{"glyphs":{"0":{"ha":806,"x_min":-16,"x_max":807,"o":"m 787 827 q 802 759 797 794 q 807 682 807 723 q 792 559 807 624 q 751 427 778 494 q 687 296 724 361 q 604 172 649 231 q 506 62 558 113 q 398 -25 454 12 q 284 -83 342 -62 q 167 -104 225 -104 q 116 -87 144 -104 q 63 -44 88 -69 q 18 8 37 -19 q -5 54 -1 35 q -8 68 -7 58 q -12 92 -10 79 q -14 119 -13 105 q -16 144 -16 134 q -9 236 -16 187 q 16 338 -2 284 q 66 450 35 391 q 149 571 98 509 q 169 577 156 574 q 196 584 181 581 q 228 591 212 587 q 260 597 244 594 q 306 733 272 667 q 389 852 340 800 q 497 936 437 904 q 619 968 556 968 q 670 952 644 968 q 719 915 696 937 q 760 869 742 893 q 787 827 779 845 m 275 401 q 265 432 270 415 q 256 477 260 450 q 202 378 230 431 q 153 272 175 326 q 117 164 131 218 q 103 62 103 111 q 107 40 103 51 q 117 20 111 29 q 130 6 123 12 q 144 1 138 1 q 221 23 179 1 q 309 84 263 45 q 400 177 354 123 q 490 293 447 230 q 571 426 533 356 q 637 566 609 495 q 681 708 665 637 q 697 843 697 779 q 686 878 697 863 q 654 893 675 893 q 577 874 619 893 q 497 814 534 854 q 436 710 460 773 q 411 558 411 646 q 415 497 411 526 q 424 445 419 468 q 432 408 428 422 q 436 389 436 393 q 400 387 423 386 q 352 390 376 387 q 306 396 327 393 q 275 401 284 399 z "},"1":{"ha":456,"x_min":-58,"x_max":522,"o":"m 522 844 q 491 774 513 823 q 437 661 469 726 q 367 518 406 595 q 289 361 329 441 q 211 204 250 281 q 139 62 172 127 q 81 -51 106 -3 q 45 -121 56 -99 q 24 -107 39 -117 q -7 -86 9 -97 q -38 -65 -23 -75 q -58 -50 -52 -55 q 58 182 5 66 q 158 409 112 298 q 244 622 204 519 q 319 814 283 724 q 273 786 296 800 q 230 761 250 772 q 196 742 210 749 q 176 732 182 734 q 162 743 172 734 q 143 760 153 751 q 125 776 133 768 q 118 785 118 783 q 139 797 123 788 q 177 819 155 806 q 227 849 199 832 q 282 886 254 866 q 337 928 310 906 q 389 974 365 950 q 425 940 404 960 q 466 900 446 920 q 501 864 486 880 q 522 844 517 848 z "},"2":{"ha":778,"x_min":-111,"x_max":778,"o":"m 772 804 q 777 785 776 799 q 778 761 778 772 q 764 636 778 696 q 716 517 749 576 q 629 400 683 458 q 495 282 574 342 q 309 158 416 222 q 63 26 202 95 q 167 43 113 33 q 272 66 220 54 q 369 91 323 78 q 452 113 416 103 q 512 129 488 123 q 542 135 536 135 q 545 132 545 135 q 538 117 545 129 q 521 89 532 106 q 496 53 510 73 q 469 13 483 33 q 440 -25 454 -7 q 416 -58 427 -44 q 356 -60 392 -60 q 279 -62 321 -61 q 191 -64 237 -63 q 101 -65 145 -64 q 15 -67 56 -66 q -58 -69 -26 -68 q -72 -51 -64 -62 q -87 -25 -80 -39 q -102 4 -95 -11 q -111 31 -109 18 q 153 172 39 99 q 352 318 267 245 q 493 465 436 392 q 585 607 550 538 q 634 740 619 676 q 648 860 648 804 q 647 872 648 865 q 644 886 646 880 q 636 896 641 892 q 625 900 632 900 q 574 887 604 900 q 513 851 545 873 q 446 798 480 828 q 378 734 411 768 q 316 667 345 701 q 266 602 288 633 q 233 544 245 570 q 221 500 220 517 q 221 492 221 494 q 225 489 222 489 q 252 505 232 489 q 297 546 271 521 q 349 603 322 571 q 397 665 376 634 q 420 644 406 657 q 447 617 433 631 q 471 592 460 604 q 488 575 483 580 q 431 519 467 547 q 356 471 396 492 q 277 437 317 450 q 210 424 238 424 q 192 431 203 424 q 170 449 182 438 q 146 474 158 460 q 125 499 135 487 q 110 521 116 511 q 104 534 104 530 q 127 639 104 587 q 187 740 149 692 q 276 831 225 789 q 383 904 326 873 q 498 953 439 935 q 612 971 557 971 q 642 959 626 970 q 674 933 657 949 q 706 898 690 917 q 736 861 722 879 q 759 827 749 842 q 772 804 768 812 z "},"3":{"ha":688,"x_min":-129,"x_max":729,"o":"m 724 799 q 729 768 729 787 q 713 674 729 717 q 669 597 697 632 q 605 534 642 562 q 526 483 568 506 q 440 443 484 460 q 353 411 395 425 q 438 381 406 392 q 489 363 471 370 q 521 353 511 356 q 530 339 530 349 q 510 279 530 317 q 453 194 490 240 q 367 97 417 147 q 257 3 317 47 q 132 -75 198 -41 q -4 -123 65 -109 q -18 -110 -8 -121 q -40 -83 -27 -98 q -66 -51 -52 -68 q -93 -17 -80 -33 q -115 12 -105 -1 q -129 31 -125 24 q -52 39 -96 31 q 42 64 -7 47 q 143 103 92 80 q 243 157 195 127 q 333 225 292 188 q 401 304 374 262 q 321 331 349 321 q 279 346 292 340 q 260 355 262 353 q 244 373 254 358 q 227 407 235 389 q 212 442 218 425 q 205 465 205 459 q 328 485 273 465 q 426 537 382 505 q 500 610 469 569 q 552 695 532 652 q 583 782 573 739 q 593 859 593 824 q 587 880 593 871 q 567 889 581 889 q 515 877 547 889 q 446 844 483 864 q 371 797 409 823 q 302 742 333 770 q 253 687 272 714 q 233 636 233 659 q 243 627 233 627 q 277 639 257 627 q 319 670 297 652 q 362 711 340 689 q 400 750 383 732 q 417 735 407 745 q 439 714 428 725 q 461 691 450 703 q 479 672 472 680 q 422 627 454 647 q 358 592 391 606 q 292 569 325 577 q 229 561 258 561 q 219 561 223 561 q 211 562 214 561 q 185 577 201 564 q 154 606 169 590 q 127 638 138 623 q 117 660 117 654 q 139 736 117 698 q 197 808 161 774 q 280 872 233 842 q 377 923 328 901 q 476 958 427 945 q 566 970 525 970 q 588 960 574 969 q 617 935 602 950 q 649 902 633 920 q 679 865 665 884 q 706 829 694 846 q 724 799 718 812 z "},"4":{"ha":806,"x_min":0,"x_max":750,"o":"m 461 742 q 412 672 435 705 q 363 609 388 639 q 313 550 339 578 q 255 492 286 521 q 188 433 224 463 q 106 368 151 402 q 249 377 177 371 q 395 393 321 384 q 448 526 422 459 q 497 664 473 593 q 544 811 521 735 q 590 971 568 888 q 624 936 605 956 q 662 895 642 916 q 700 851 681 873 q 736 810 720 829 q 653 619 698 718 q 560 417 609 519 q 654 432 607 425 q 750 449 701 440 l 653 288 q 576 285 616 286 q 495 282 536 283 q 390 72 442 173 q 292 -115 338 -28 q 267 -101 282 -109 q 236 -84 252 -92 q 207 -68 220 -75 q 189 -57 194 -60 q 272 116 233 33 q 347 279 311 198 q 207 276 272 277 q 96 273 142 275 q 67 308 83 286 q 38 351 52 329 q 13 393 24 374 q 0 419 3 412 q 110 531 57 471 q 210 653 163 590 q 299 784 258 717 q 372 917 340 850 q 378 922 375 922 q 392 911 383 922 q 409 884 400 901 q 428 846 418 867 q 445 805 437 825 q 456 768 452 785 q 461 742 461 751 z "},"5":{"ha":656,"x_min":-123,"x_max":760,"o":"m 757 979 q 760 977 760 979 q 753 962 760 973 q 735 936 746 951 q 710 902 724 920 q 681 866 696 884 q 651 833 666 848 q 625 807 637 817 q 541 808 578 807 q 474 810 504 808 q 419 813 444 811 q 373 817 394 814 l 227 600 q 354 631 307 621 q 428 645 402 641 q 461 649 453 649 q 469 650 469 650 q 490 642 477 650 q 515 622 502 634 q 541 595 528 610 q 564 567 554 581 q 581 544 574 554 q 587 529 587 533 q 563 399 587 466 q 496 268 538 332 q 396 143 454 203 q 273 32 339 83 q 136 -57 207 -18 q -5 -118 64 -96 q -39 -79 -20 -102 q -75 -34 -58 -56 q -105 6 -92 -12 q -123 31 -119 24 q -7 64 -71 39 q 121 124 56 88 q 247 207 185 161 q 359 307 309 254 q 444 418 410 360 q 487 536 477 476 q 426 536 458 539 q 361 526 394 533 q 298 509 329 519 q 242 491 268 500 q 198 475 216 482 q 171 467 179 469 q 155 483 165 471 q 134 507 144 494 q 115 532 124 519 q 103 550 106 544 q 116 576 105 556 q 143 625 126 595 q 182 691 160 654 q 231 771 205 728 q 287 858 258 813 q 346 949 315 903 q 453 951 398 949 q 561 957 507 953 q 664 967 614 961 q 757 979 714 972 z "},"6":{"ha":639,"x_min":-35,"x_max":648,"o":"m 648 975 q 640 921 645 949 q 630 869 635 894 q 619 826 624 845 q 611 798 614 806 q 475 714 537 759 q 363 623 414 670 q 272 526 312 575 q 200 427 231 476 q 304 509 254 475 q 393 562 354 542 q 454 591 431 583 q 476 600 477 600 q 497 592 485 600 q 524 573 510 585 q 551 546 537 561 q 575 517 564 532 q 593 491 586 503 q 602 473 600 479 q 584 401 597 443 q 548 314 570 360 q 497 218 526 267 q 433 122 468 169 q 359 34 398 76 q 277 -38 319 -7 q 191 -87 235 -69 q 103 -106 147 -106 q 83 -98 95 -106 q 59 -79 72 -91 q 34 -53 46 -68 q 10 -25 21 -39 q -9 0 -1 -12 q -21 18 -18 12 q -31 40 -26 26 q -35 75 -35 54 q -9 270 -35 175 q 62 453 16 366 q 171 619 107 541 q 310 765 234 698 q 472 885 386 831 q 648 975 557 938 m 469 499 q 282 401 373 460 q 119 267 191 342 q 82 137 93 197 q 71 33 71 77 q 76 -4 71 8 q 90 -16 82 -16 q 152 8 118 -16 q 221 71 185 31 q 293 161 256 110 q 362 270 329 213 q 422 387 395 328 q 469 499 450 446 z "},"7":{"ha":621,"x_min":-14,"x_max":676,"o":"m 676 860 q 602 740 638 800 q 530 613 566 680 q 455 471 494 547 q 374 307 417 396 q 280 113 330 218 q 171 -119 230 7 q 153 -112 167 -118 q 119 -95 138 -105 q 79 -74 100 -85 q 38 -52 58 -62 q 5 -31 19 -41 q -14 -16 -9 -22 q 136 207 64 97 q 278 423 208 316 q 419 635 349 530 q 564 846 490 741 q 472 834 516 840 q 379 822 427 828 q 275 810 331 817 q 146 796 218 804 q 140 844 144 817 q 131 896 136 870 q 122 943 126 922 q 117 977 117 965 q 245 967 178 970 q 377 963 313 964 q 497 962 441 962 q 596 960 554 961 q 612 943 601 956 q 635 913 623 929 q 659 882 647 897 q 676 860 670 867 z "},"8":{"ha":664,"x_min":-60,"x_max":733,"o":"m 570 972 q 598 964 582 972 q 631 943 614 956 q 664 914 648 930 q 694 881 681 898 q 718 848 708 864 q 730 822 727 833 q 732 813 730 819 q 733 800 733 808 q 707 686 733 735 q 639 598 682 637 q 541 527 596 559 q 427 463 486 494 q 454 375 440 418 q 479 296 467 332 q 498 234 490 260 q 505 196 505 208 q 484 105 505 147 q 427 28 462 63 q 348 -33 392 -6 q 259 -78 304 -60 q 172 -106 214 -96 q 102 -115 131 -115 q 65 -105 84 -115 q 28 -77 46 -94 q -6 -39 10 -60 q -34 5 -22 -18 q -53 47 -45 27 q -60 83 -60 68 q -34 203 -60 151 q 36 298 -7 255 q 135 377 79 340 q 252 448 191 413 q 224 546 235 500 q 212 623 212 592 q 226 709 212 666 q 265 791 240 752 q 323 863 290 830 q 396 921 357 897 q 480 959 436 945 q 570 972 524 972 m 322 184 q 318 219 322 199 q 308 264 314 239 q 292 316 301 288 q 274 374 283 345 q 197 313 233 346 q 134 241 161 281 q 92 153 107 201 q 77 45 77 104 q 77 28 77 39 q 80 7 77 18 q 89 -12 83 -4 q 106 -20 95 -20 q 150 -12 125 -20 q 198 9 174 -5 q 244 41 222 22 q 284 83 267 60 q 312 132 301 106 q 322 184 322 157 m 602 901 q 512 871 551 895 q 445 813 473 847 q 403 740 418 779 q 389 665 389 701 q 393 608 389 640 q 406 541 398 576 q 489 605 450 571 q 556 678 528 638 q 601 765 585 718 q 618 869 618 812 q 616 891 618 880 q 602 901 614 901 z "},"9":{"ha":639,"x_min":-16,"x_max":668,"o":"m -16 -106 q -7 -52 -12 -79 q 3 0 -2 -24 q 14 43 9 24 q 22 72 19 62 q 158 155 96 111 q 270 246 219 199 q 361 342 321 293 q 433 441 401 392 q 329 360 378 393 q 240 307 279 327 q 179 278 201 287 q 157 269 156 269 q 136 277 148 269 q 110 297 123 285 q 83 323 96 309 q 58 352 69 338 q 40 378 47 366 q 32 396 33 390 q 50 468 36 427 q 85 556 64 509 q 136 651 107 602 q 200 747 165 701 q 275 835 235 793 q 356 908 314 877 q 442 957 398 939 q 530 975 486 975 q 550 968 538 975 q 574 949 562 960 q 600 923 587 937 q 623 895 612 908 q 643 869 634 881 q 654 851 651 857 q 664 829 660 843 q 668 794 668 815 q 643 599 668 694 q 572 416 617 504 q 463 250 526 329 q 323 105 399 172 q 161 -15 248 38 q -16 -106 75 -68 m 164 370 q 259 414 212 390 q 351 468 306 439 q 436 531 395 497 q 513 602 477 564 q 551 732 540 672 q 562 836 562 791 q 557 873 562 861 q 543 885 551 885 q 482 862 515 885 q 413 799 448 838 q 341 708 377 760 q 272 599 304 656 q 211 483 239 542 q 164 370 183 424 z "},"C":{"ha":760,"x_min":-14,"x_max":864,"o":"m 533 606 q 576 638 553 618 q 622 684 599 659 q 665 739 644 709 q 702 799 686 768 q 728 859 718 829 q 737 917 737 889 q 734 951 737 938 q 725 971 730 964 q 711 981 719 978 q 696 983 704 983 q 622 956 663 983 q 535 881 581 928 q 441 771 489 834 q 349 636 393 708 q 264 487 304 564 q 195 336 224 410 q 148 193 165 261 q 131 71 131 125 q 134 37 131 50 q 143 16 137 24 q 157 5 149 8 q 178 3 166 3 q 224 19 197 3 q 281 62 251 36 q 342 121 311 89 q 400 185 373 154 q 449 244 427 217 q 482 286 471 271 q 499 272 482 286 q 538 239 515 258 q 583 201 560 220 q 616 170 605 182 q 575 123 600 151 q 518 63 550 94 q 451 -1 487 31 q 377 -58 415 -33 q 300 -99 339 -83 q 225 -115 262 -115 q 169 -99 199 -115 q 110 -58 139 -83 q 56 -2 81 -33 q 14 60 31 29 q -10 130 -7 98 q -14 180 -14 161 q 1 298 -14 233 q 44 436 16 364 q 111 581 72 507 q 198 724 151 655 q 302 854 246 793 q 419 961 358 916 q 546 1033 481 1006 q 679 1059 612 1059 q 719 1049 698 1059 q 760 1023 740 1039 q 800 986 781 1007 q 833 943 819 965 q 856 899 847 921 q 864 859 864 877 q 848 769 864 818 q 804 670 831 720 q 738 572 776 620 q 656 488 699 525 l 533 606 z "},"D":{"ha":960,"x_min":-71,"x_max":973,"o":"m 942 871 q 957 847 951 859 q 966 819 963 835 q 971 784 970 804 q 972 737 973 764 q 950 557 970 650 q 892 377 930 465 q 802 208 855 289 q 679 61 748 127 q 525 -53 610 -5 q 342 -121 441 -100 q 286 -81 310 -100 q 245 -46 262 -62 q 218 -19 229 -31 q 203 -1 208 -7 q 132 -84 167 -54 q 62 -115 96 -115 q 30 -106 46 -115 q -1 -83 14 -97 q -28 -51 -16 -68 q -51 -17 -41 -33 q -65 13 -60 -1 q -71 33 -71 26 q -57 127 -71 75 q -20 238 -44 180 q 37 359 3 296 q 111 484 70 421 q 198 608 151 547 q 294 726 244 669 q 325 911 313 819 q 340 1086 337 1002 q 411 1038 379 1062 q 465 995 442 1015 q 511 951 491 972 l 509 921 q 636 993 574 967 q 755 1019 699 1019 q 809 1004 783 1019 q 860 966 836 989 q 904 918 884 944 q 942 871 925 892 m 479 739 q 449 613 467 679 q 411 480 432 547 q 366 347 390 413 q 317 219 342 280 q 263 104 291 158 q 208 7 235 50 q 365 53 292 20 q 499 133 438 85 q 610 240 560 181 q 699 365 660 300 q 766 498 737 430 q 813 631 795 566 q 841 755 831 696 q 850 861 850 814 q 846 890 850 876 q 835 918 842 905 q 816 937 827 930 q 790 945 805 945 q 726 929 762 945 q 651 887 691 914 q 568 822 611 859 q 479 739 524 784 m 33 12 q 67 37 46 6 q 114 124 88 67 q 168 261 140 181 q 223 433 196 340 q 143 315 180 373 q 80 207 106 258 q 39 113 54 155 q 24 41 24 71 q 33 12 24 18 z "},"E":{"ha":764,"x_min":-56,"x_max":838,"o":"m 571 660 q 621 712 597 681 q 665 778 646 743 q 695 848 684 812 q 707 916 707 884 q 695 958 707 941 q 652 975 683 975 q 593 963 625 975 q 529 929 562 951 q 466 879 496 908 q 411 814 435 849 q 373 742 387 780 q 358 665 358 704 q 366 608 358 632 q 390 565 374 584 q 428 531 406 547 q 478 498 450 515 q 321 410 393 463 q 198 296 250 357 q 118 171 146 235 q 89 46 89 106 q 99 9 89 25 q 131 -7 109 -7 q 195 9 159 -7 q 268 50 230 24 q 344 106 306 75 q 416 169 382 137 q 476 229 450 200 q 518 277 503 257 q 589 219 559 244 q 644 172 618 193 q 606 129 633 157 q 542 69 579 101 q 461 4 505 37 q 373 -55 418 -28 q 283 -98 328 -81 q 203 -115 239 -115 q 139 -104 171 -115 q 79 -76 108 -94 q 27 -34 51 -58 q -15 14 3 -11 q -44 64 -33 39 q -56 111 -55 90 l -56 127 q -31 262 -56 199 q 38 378 -5 325 q 141 474 82 431 q 267 549 199 517 q 242 576 254 562 q 221 608 231 590 q 207 648 212 626 q 201 699 201 671 q 218 791 201 746 q 264 877 235 837 q 331 950 292 917 q 412 1007 369 983 q 499 1045 454 1031 q 586 1059 544 1059 q 684 1044 656 1059 q 733 1009 707 1032 q 783 959 760 986 q 822 903 806 931 q 838 852 838 875 q 825 772 838 814 q 791 690 812 730 q 743 615 770 650 q 688 557 715 581 l 571 660 z "},"F":{"ha":1025,"x_min":41,"x_max":1108,"o":"m 989 432 q 990 428 990 432 q 983 403 990 421 q 961 361 975 385 q 926 311 947 338 q 879 261 905 285 q 844 254 865 258 q 797 247 823 250 q 739 240 770 243 q 673 233 707 236 q 596 107 633 170 q 525 -14 558 45 q 464 -127 492 -73 q 415 -228 435 -181 q 371 -240 400 -234 q 310 -253 342 -247 q 252 -264 279 -259 q 214 -273 224 -270 q 342 -17 277 -137 q 475 215 407 104 q 408 210 439 212 q 353 206 377 208 q 315 204 330 205 q 297 203 300 203 q 293 208 293 203 q 300 230 293 216 q 316 259 307 244 q 335 284 325 273 q 350 297 345 296 q 450 307 403 302 q 540 319 497 313 q 766 641 650 490 q 1002 935 882 791 q 1004 946 1004 937 q 1002 954 1004 950 q 991 956 1000 958 q 730 868 847 916 q 523 771 614 820 q 366 675 432 722 q 257 590 300 628 q 194 528 214 553 q 174 500 174 504 q 175 494 174 498 q 187 490 177 490 q 234 496 209 490 q 283 512 258 503 q 331 533 308 522 q 374 554 354 544 q 375 518 374 538 q 377 476 376 497 q 379 436 378 455 q 380 404 380 416 q 354 396 372 400 q 310 388 336 391 q 251 381 283 384 q 180 379 218 379 q 174 380 176 379 q 170 380 172 380 q 152 391 163 381 q 125 417 140 401 q 96 451 111 433 q 69 487 81 470 q 49 519 57 505 q 41 541 41 534 q 72 626 41 582 q 156 715 103 671 q 277 802 208 759 q 423 882 347 844 q 579 952 500 920 q 731 1008 659 985 q 865 1044 804 1031 q 966 1057 926 1057 q 993 1048 978 1057 q 1024 1025 1008 1040 q 1054 994 1039 1011 q 1081 958 1069 976 q 1100 925 1093 941 q 1108 899 1107 909 q 1094 872 1108 895 q 1056 812 1080 849 q 998 725 1031 775 q 926 617 965 675 q 843 493 886 558 q 754 358 799 427 q 859 386 815 372 q 930 409 902 399 q 973 426 959 419 q 989 432 987 432 z "},"G":{"ha":818,"x_min":-14,"x_max":873,"o":"m 710 364 q 692 329 706 359 q 657 250 677 298 q 614 139 637 202 q 569 6 591 76 q 528 -138 547 -64 q 497 -282 509 -212 q 455 -293 479 -288 q 409 -303 432 -298 q 367 -311 386 -308 q 339 -314 348 -314 q 363 -214 351 -262 q 389 -122 375 -167 q 421 -33 404 -77 q 461 58 438 12 q 407 -6 435 25 q 348 -62 378 -37 q 287 -101 317 -86 q 225 -115 256 -115 q 178 -104 204 -115 q 125 -72 152 -92 q 74 -25 99 -52 q 30 35 49 3 q -2 102 10 66 q -14 172 -14 137 q 3 300 -14 231 q 48 442 19 369 q 119 590 77 515 q 210 732 160 664 q 316 860 259 801 q 433 964 372 920 q 557 1033 494 1008 q 684 1059 621 1059 q 730 1048 707 1059 q 773 1022 753 1038 q 809 987 793 1006 q 838 951 826 968 q 862 906 851 932 q 873 854 873 880 q 860 763 873 811 q 824 667 847 715 q 770 575 801 620 q 703 496 739 531 l 583 607 q 632 661 604 628 q 686 736 661 694 q 730 825 712 778 q 749 921 749 872 q 748 939 749 929 q 744 958 747 949 q 732 973 740 967 q 710 979 724 979 q 627 951 672 979 q 534 874 582 922 q 438 761 486 825 q 345 623 389 696 q 261 474 300 551 q 193 326 222 398 q 148 191 164 254 q 131 82 131 128 q 141 21 131 39 q 171 3 152 3 q 223 18 194 3 q 284 58 252 33 q 347 114 315 83 q 406 176 378 144 q 455 237 433 208 q 490 286 477 266 q 511 327 503 306 q 532 370 520 348 q 579 369 557 370 q 623 367 602 368 q 665 366 644 366 q 710 364 686 365 z "},"H":{"ha":922,"x_min":-127,"x_max":896,"o":"m 453 930 q 392 776 422 850 q 333 631 362 701 q 273 492 303 560 q 213 359 243 425 q 316 374 264 366 q 414 389 369 382 q 492 401 459 396 q 534 408 524 406 q 645 688 592 546 q 751 978 699 830 q 794 935 771 958 q 838 891 817 912 q 875 854 859 870 q 896 832 890 838 q 803 635 848 731 q 713 446 758 538 q 809 474 773 461 q 864 493 845 486 q 887 502 882 500 q 890 497 892 503 q 882 478 888 492 q 865 446 875 464 q 843 409 855 429 q 819 374 831 390 q 796 347 807 357 q 778 335 785 336 q 745 330 764 332 q 704 323 728 327 q 649 315 680 319 q 516 54 578 171 q 404 -143 454 -63 q 357 -103 379 -123 q 313 -75 334 -83 q 264 99 300 5 q 178 286 229 193 q 80 84 130 184 q -26 -122 30 -16 q -82 -80 -56 -98 q -127 -49 -109 -62 q -62 86 -98 10 q 11 250 -27 161 q 87 437 48 338 q 163 641 125 536 q 237 855 201 746 q 304 1072 273 964 q 345 1035 324 1053 q 386 998 366 1016 q 423 963 406 980 q 453 930 440 945 m 369 35 q 486 292 429 161 q 255 266 387 279 q 290 206 273 237 q 321 144 307 175 q 348 86 336 114 q 369 35 359 58 z "},"I":{"ha":690,"x_min":-139,"x_max":774,"o":"m 765 939 q 771 919 768 931 q 774 890 774 907 q 762 797 774 848 q 728 686 749 745 q 675 564 706 627 q 606 437 644 501 q 526 309 569 372 q 435 186 482 245 q 497 121 465 151 q 567 66 530 90 q 525 40 545 50 q 464 76 498 52 q 393 136 430 100 q 234 -25 314 43 q 77 -126 155 -93 q 53 -133 67 -130 q 15 -136 39 -136 q -24 -122 -4 -136 q -63 -88 -45 -108 q -97 -48 -82 -68 q -119 -17 -111 -28 q -134 15 -128 -4 q -139 62 -139 34 q -132 133 -139 97 q -104 215 -124 169 q -76 225 -96 218 q -30 238 -55 231 q 19 251 -5 245 q 60 260 43 257 q 22 201 39 229 q -8 145 4 173 q -28 87 -21 117 q -36 25 -36 58 q -31 -1 -36 12 q -12 -14 -26 -14 q 41 7 9 -14 q 112 66 73 28 q 195 154 151 103 q 285 264 239 205 q 237 341 259 300 q 200 427 216 382 q 175 518 184 471 q 165 614 165 565 q 188 747 165 686 q 249 858 211 808 q 335 945 286 907 q 435 1009 383 983 q 537 1048 486 1035 q 629 1061 587 1061 q 664 1053 652 1061 q 691 1030 675 1045 q 722 998 707 1015 q 749 965 737 981 q 765 939 761 949 m 285 541 q 299 443 285 495 q 339 337 313 391 q 419 453 380 393 q 493 571 458 512 q 557 687 528 630 q 608 795 587 744 q 641 890 629 846 q 653 966 653 934 q 650 977 653 975 q 640 979 646 979 q 601 968 631 979 q 531 933 570 957 q 448 874 492 910 q 369 790 405 839 q 309 679 332 741 q 285 541 285 616 z "},"J":{"ha":808,"x_min":-127,"x_max":794,"o":"m 779 895 q 794 825 794 872 q 781 727 794 781 q 745 613 768 673 q 690 487 722 553 q 620 356 659 422 q 667 245 652 307 q 682 117 682 184 q 682 90 682 101 q 681 72 681 79 q 635 45 661 59 q 581 19 612 34 q 510 -11 549 4 q 529 38 520 10 q 544 96 538 65 q 554 161 551 127 q 558 227 558 194 q 558 241 558 234 q 557 255 557 248 q 466 124 513 188 q 370 4 418 60 q 273 -100 321 -53 q 179 -182 224 -148 q 92 -235 134 -216 q 17 -254 51 -254 q -8 -245 5 -254 q -37 -222 -22 -236 q -64 -191 -51 -208 q -89 -158 -78 -174 q -108 -129 -100 -142 q -118 -110 -116 -116 q -124 -90 -120 -104 q -127 -58 -127 -76 q -108 63 -127 0 q -55 185 -89 125 q 26 298 -20 245 q 128 392 73 352 q 243 456 183 433 q 366 479 304 479 q 495 456 439 479 q 565 585 532 521 q 620 708 597 648 q 656 822 643 768 q 669 920 669 876 q 659 966 669 951 q 618 981 649 981 q 564 973 596 981 q 495 952 531 966 q 422 919 458 939 q 356 873 385 899 q 309 818 327 848 q 290 753 290 787 q 297 711 290 734 q 321 660 304 687 q 367 603 338 633 q 443 545 397 574 q 377 533 408 538 q 319 525 345 528 q 275 519 294 522 q 249 517 257 517 q 216 542 235 525 q 179 586 197 559 q 149 646 161 612 q 136 724 136 681 q 163 840 136 789 q 233 928 191 891 q 329 991 276 966 q 435 1032 382 1017 q 532 1055 487 1048 q 606 1061 578 1061 q 645 1051 625 1061 q 683 1025 665 1041 q 716 989 701 1009 q 745 951 732 970 q 766 917 758 932 q 779 895 775 902 m -18 -107 q 38 -89 5 -107 q 110 -36 71 -70 q 192 43 149 -3 q 280 145 235 90 q 369 262 325 200 q 454 389 413 324 q 444 390 451 390 q 334 366 390 390 q 227 303 279 342 q 129 214 174 264 q 48 111 83 163 q -5 8 14 58 q -25 -82 -25 -43 q -24 -100 -25 -92 q -18 -107 -22 -107 z "},"K":{"ha":811,"x_min":-87,"x_max":1006,"o":"m 496 930 q 380 642 437 777 q 266 380 323 507 q 376 473 319 424 q 488 575 432 522 q 596 683 543 627 q 697 793 650 738 q 783 902 744 848 q 851 1007 823 956 q 888 979 868 995 q 930 944 909 962 q 970 909 951 926 q 1006 879 990 892 q 873 742 940 808 q 727 610 806 676 q 555 477 649 545 q 341 336 460 410 q 502 70 429 182 q 642 -123 575 -43 q 613 -137 635 -126 q 564 -160 591 -147 q 510 -186 537 -174 q 465 -207 482 -199 q 368 19 422 -118 q 250 345 313 156 q 138 113 195 228 q 17 -122 81 -1 q -41 -80 -13 -98 q -87 -49 -68 -62 q -22 86 -58 10 q 51 250 13 161 q 127 437 88 338 q 204 641 166 536 q 278 855 242 746 q 345 1072 313 964 q 386 1035 364 1053 q 427 998 407 1016 q 466 963 448 980 q 496 930 484 945 z "},"L":{"ha":704,"x_min":-103,"x_max":576,"o":"m -103 -43 q -28 95 -68 18 q 52 260 11 172 q 133 447 92 349 q 212 649 174 545 q 283 859 250 752 q 345 1072 317 966 q 386 1035 364 1053 q 427 998 407 1016 q 466 963 448 980 q 496 930 484 945 q 437 776 471 857 q 367 611 404 695 q 290 445 330 528 q 212 286 250 362 q 139 144 174 210 q 77 28 104 78 q 174 27 118 28 q 294 26 229 27 q 431 24 359 26 q 576 21 503 23 q 551 -12 566 6 q 521 -48 537 -29 q 489 -84 505 -66 q 456 -118 472 -102 q 338 -109 395 -115 q 229 -97 281 -104 q 125 -82 176 -90 q 25 -67 75 -75 q 13 -87 18 -81 q 9 -92 9 -93 l -103 -43 z "},"M":{"ha":990,"x_min":-167,"x_max":990,"o":"m 990 957 q 913 728 949 844 q 850 480 878 612 q 807 196 823 349 q 790 -143 791 43 q 766 -158 782 -149 q 731 -177 750 -167 q 690 -199 711 -188 q 650 -220 669 -210 q 615 -238 631 -230 q 591 -250 600 -246 q 598 -138 592 -199 q 615 -10 604 -77 q 639 130 625 58 q 669 277 653 203 q 576 167 621 211 q 497 97 532 123 q 422 47 457 66 q 388 46 408 39 q 348 66 368 53 q 311 96 328 80 q 288 123 294 113 q 273 185 281 134 q 262 331 265 236 q 199 251 233 293 q 130 167 165 209 q 61 86 95 125 q -2 15 27 47 q -55 -40 -32 -17 q -92 -74 -79 -64 q -108 -57 -98 -66 q -129 -37 -118 -47 q -149 -16 -139 -26 q -167 4 -159 -5 q 34 249 -68 91 q 228 631 136 408 q 247 614 238 622 q 264 597 256 606 q 280 835 269 705 q 313 1125 292 966 q 329 1112 316 1124 q 358 1083 341 1101 q 394 1046 375 1066 q 430 1008 413 1026 q 460 975 448 989 q 478 956 473 961 q 472 926 477 950 q 461 865 467 903 q 447 780 454 828 q 433 678 439 732 q 423 567 427 624 q 418 454 418 509 q 417 401 417 431 q 416 339 416 371 q 417 276 416 307 q 420 221 418 245 q 426 180 422 196 q 436 163 430 164 q 472 182 444 161 q 541 246 500 204 q 628 348 581 288 q 719 483 675 408 q 760 636 739 562 q 800 773 781 710 q 836 886 819 836 q 867 968 853 936 q 898 966 880 967 q 932 963 915 965 q 965 960 950 962 q 990 957 981 958 z "},"N":{"ha":921,"x_min":-167,"x_max":905,"o":"m 905 829 q 899 746 905 794 q 879 636 893 699 q 839 498 864 574 q 778 328 814 421 q 696 148 738 226 q 618 15 654 69 q 555 -69 582 -39 q 517 -104 528 -99 q 478 -113 499 -113 q 442 -107 460 -113 q 411 -90 424 -102 q 384 -56 403 -83 q 345 23 366 -28 q 304 151 323 75 q 275 334 284 228 q 211 252 245 296 q 140 166 176 209 q 69 82 104 123 q 2 7 33 41 q -54 -52 -29 -27 q -92 -87 -78 -77 q -109 -71 -99 -81 q -129 -51 -119 -62 q -150 -30 -140 -41 q -167 -9 -159 -19 q 34 235 -68 77 q 228 616 136 393 q 250 597 239 607 q 269 578 260 588 q 276 747 272 673 q 284 878 279 821 q 293 975 289 935 q 302 1044 298 1016 q 309 1091 306 1073 q 314 1120 312 1109 q 334 1100 321 1114 q 365 1071 348 1087 q 400 1037 382 1055 q 436 1002 419 1019 q 465 973 452 986 q 482 954 477 960 q 462 875 473 920 q 441 769 451 830 q 425 631 431 709 q 418 453 418 553 q 425 273 418 360 q 431 196 427 236 q 440 118 435 157 q 454 45 446 80 q 473 -18 463 9 q 608 252 557 121 q 686 509 659 383 q 721 756 713 634 q 729 999 729 878 l 729 1046 q 796 985 764 1019 q 852 922 828 952 q 905 852 881 888 l 905 829 z "},"O":{"ha":864,"x_min":-20,"x_max":872,"o":"m 840 909 q 850 893 845 901 q 861 871 856 886 q 869 833 865 857 q 872 770 872 810 q 852 603 872 686 q 799 442 833 520 q 719 293 765 364 q 620 159 673 221 q 509 46 566 97 q 394 -40 451 -4 q 282 -96 336 -76 q 182 -115 228 -115 q 144 -106 163 -115 q 106 -83 125 -98 q 71 -52 87 -69 q 41 -19 54 -35 q 19 12 28 -2 q 7 32 10 25 q -1 48 3 39 q -10 72 -6 58 q -17 108 -14 87 q -20 160 -20 130 q -11 262 -20 207 q 22 381 -1 317 q 87 517 46 445 q 192 669 128 589 q 208 651 197 663 q 232 625 219 640 q 259 593 245 610 q 286 562 273 576 q 307 535 298 547 q 319 517 316 523 q 258 436 287 479 q 204 348 229 393 q 159 260 179 304 q 124 180 138 217 q 102 113 110 142 q 94 68 94 84 q 98 47 94 57 q 109 30 102 37 q 121 18 115 22 q 134 14 128 14 q 214 34 169 14 q 310 91 260 54 q 412 179 359 127 q 513 293 464 231 q 605 427 562 355 q 680 576 648 498 q 731 734 713 653 q 750 896 750 815 q 745 937 750 920 q 730 964 739 954 q 710 979 722 975 q 688 983 699 983 q 594 963 635 983 q 524 913 553 943 q 475 846 494 882 q 450 775 457 809 q 447 673 440 718 q 466 595 454 628 q 491 541 479 562 q 505 511 504 520 q 467 515 489 513 q 420 519 444 517 q 372 523 395 521 q 329 529 348 526 q 311 556 321 538 q 294 597 302 574 q 281 647 286 620 q 275 703 275 674 q 293 805 275 757 q 339 892 310 852 q 406 963 368 932 q 483 1015 443 994 q 562 1047 523 1036 q 635 1059 602 1059 q 679 1050 656 1059 q 722 1028 701 1042 q 762 997 743 1014 q 797 964 781 981 q 824 933 812 947 q 840 909 835 918 z "},"P":{"ha":860,"x_min":-111,"x_max":985,"o":"m 985 847 q 967 748 985 798 q 920 648 950 697 q 850 553 890 599 q 766 469 810 508 q 673 400 721 431 q 579 353 625 370 q 561 379 572 363 q 536 411 549 394 q 510 444 524 427 q 485 475 497 460 q 659 565 582 513 q 790 674 736 617 q 872 790 844 732 q 901 900 901 849 q 899 914 901 907 q 892 927 897 922 q 880 935 888 932 q 861 935 872 937 q 791 909 829 928 q 710 864 753 891 q 622 800 668 836 q 530 723 576 764 q 472 556 505 644 q 401 381 439 469 q 322 212 363 294 q 237 62 280 130 q 151 -56 194 -6 q 68 -127 108 -106 q 43 -138 58 -133 q 7 -144 28 -142 q -13 -138 -1 -145 q -35 -119 -24 -130 q -58 -93 -47 -107 q -80 -66 -70 -79 q -96 -43 -90 -53 q -104 -29 -102 -33 q -110 -5 -110 -19 q -107 22 -111 9 q -69 122 -94 68 q -12 236 -45 176 q 61 358 21 295 q 148 483 102 420 q 246 605 195 545 q 351 720 297 665 q 408 924 386 828 q 435 1092 431 1021 q 486 1064 462 1081 q 530 1029 511 1047 q 565 992 550 1010 q 589 960 580 974 q 585 936 587 948 q 580 911 583 924 q 714 980 648 955 q 843 1004 781 1004 q 871 996 856 1004 q 902 975 886 988 q 932 945 918 962 q 958 912 947 929 q 977 881 970 896 q 985 857 984 867 l 985 847 m 3 -5 q 45 29 18 -5 q 104 123 71 64 q 174 262 137 183 q 246 431 210 342 q 147 304 193 367 q 67 186 101 242 q 15 83 34 130 q -4 3 -4 36 q 3 -5 -4 -5 z "},"Q":{"ha":864,"x_min":-20,"x_max":872,"o":"m 635 1059 q 679 1050 656 1059 q 722 1028 701 1042 q 762 997 743 1014 q 797 964 781 981 q 824 933 812 947 q 840 909 835 918 q 850 893 845 901 q 861 871 856 885 q 869 833 865 857 q 872 770 872 809 q 847 582 872 675 q 780 402 823 488 q 682 238 738 315 q 563 98 626 161 q 656 -21 606 35 q 757 -136 705 -78 q 662 -141 717 -138 q 546 -144 608 -144 q 492 -73 517 -107 q 444 -5 467 -39 q 306 -86 374 -57 q 182 -115 239 -115 q 143 -106 163 -115 q 106 -83 124 -98 q 71 -52 87 -69 q 42 -19 55 -35 q 19 12 28 -2 q 7 32 10 25 q -1 48 3 39 q -10 72 -6 57 q -17 107 -14 86 q -20 160 -20 129 q -11 262 -20 207 q 22 381 -1 317 q 87 517 46 445 q 192 669 128 589 q 205 655 197 664 q 223 635 213 646 q 244 610 233 623 q 266 585 255 597 q 289 706 270 646 q 337 818 308 765 q 402 915 366 870 q 479 991 439 959 q 559 1041 519 1023 q 635 1059 599 1059 m 408 585 q 427 400 408 484 q 477 245 445 317 q 582 385 532 309 q 669 545 631 461 q 728 717 706 628 q 750 896 750 806 q 745 937 750 920 q 730 964 739 954 q 710 979 722 975 q 688 983 699 983 q 610 966 646 983 q 542 919 573 949 q 486 850 511 890 q 444 767 461 811 q 417 676 427 723 q 408 585 408 629 m 363 130 q 299 292 322 210 q 269 468 275 374 q 219 391 242 431 q 177 311 196 351 q 142 234 157 271 q 116 164 127 196 q 100 107 106 132 q 94 68 94 82 q 98 47 94 57 q 109 30 102 37 q 121 18 115 22 q 134 14 128 14 q 239 44 180 14 q 363 130 299 75 z "},"R":{"ha":960,"x_min":-111,"x_max":1002,"o":"m 1002 836 q 977 693 1002 767 q 900 548 952 618 q 768 414 848 477 q 575 302 687 350 q 632 174 603 235 q 691 59 662 113 q 746 -40 720 5 q 793 -122 772 -86 q 749 -136 774 -128 q 698 -153 724 -144 q 646 -169 671 -161 q 602 -182 621 -177 q 586 -135 596 -167 q 563 -59 576 -103 q 535 41 550 -14 q 506 158 520 96 q 478 284 491 219 q 454 415 465 350 q 609 482 541 445 q 728 561 677 519 q 816 647 780 603 q 874 734 852 691 q 908 816 897 777 q 918 889 918 856 q 916 912 918 902 q 908 928 914 922 q 891 936 902 934 q 861 935 880 937 q 791 909 829 928 q 710 864 753 891 q 622 800 668 836 q 530 723 576 764 q 472 556 505 644 q 401 381 439 469 q 322 212 363 294 q 237 62 280 130 q 151 -56 194 -6 q 68 -127 108 -106 q 43 -138 58 -133 q 7 -144 28 -142 q -13 -138 -1 -145 q -35 -119 -24 -130 q -58 -93 -47 -107 q -80 -66 -70 -79 q -96 -43 -90 -53 q -104 -29 -102 -33 q -110 -5 -110 -19 q -107 22 -111 9 q -69 122 -94 68 q -12 236 -45 176 q 61 358 21 295 q 148 483 102 420 q 246 605 195 545 q 351 720 297 665 q 408 924 386 828 q 435 1092 431 1021 q 486 1064 462 1081 q 530 1029 511 1047 q 565 992 550 1010 q 589 960 580 974 q 585 936 587 948 q 580 911 583 924 q 714 980 648 955 q 843 1004 781 1004 q 876 996 858 1004 q 910 974 893 987 q 944 942 928 960 q 973 905 960 924 q 993 868 985 886 q 1002 836 1001 850 m 3 -5 q 45 29 18 -5 q 104 123 71 64 q 174 262 137 183 q 246 431 210 342 q 147 304 193 367 q 67 186 101 242 q 15 83 34 130 q -4 3 -4 36 q 3 -5 -4 -5 z "},"S":{"ha":838,"x_min":-60,"x_max":925,"o":"m 913 907 q 916 900 913 905 q 920 889 918 895 q 923 876 922 882 q 925 867 925 869 q 916 811 925 844 q 889 743 906 779 q 850 670 873 707 q 803 599 828 633 q 751 538 778 566 q 699 494 724 511 q 676 515 689 503 q 648 542 663 528 q 618 570 633 555 q 590 597 603 584 q 634 638 610 613 q 685 695 659 664 q 734 760 710 726 q 777 824 759 793 q 805 880 795 854 q 812 920 815 905 q 806 930 810 927 q 790 933 802 933 q 694 917 749 933 q 581 870 640 901 q 462 794 522 839 q 350 693 402 749 q 256 570 297 637 q 193 427 215 503 q 283 430 241 427 q 365 437 326 433 q 439 443 404 440 q 507 446 474 446 q 545 427 525 446 q 583 381 566 408 q 612 327 601 355 q 624 282 624 299 q 599 185 624 234 q 533 92 574 137 q 436 8 491 47 q 320 -60 381 -31 q 197 -105 260 -89 q 77 -122 134 -122 q 57 -103 69 -116 q 31 -76 45 -91 q 2 -43 17 -60 q -25 -11 -12 -26 q -47 18 -37 5 q -60 37 -56 31 q 30 35 -22 32 q 141 50 83 37 q 259 84 199 62 q 370 142 318 107 q 460 224 421 176 q 517 335 500 272 q 446 331 478 334 q 385 325 414 328 q 323 318 355 321 q 254 315 292 315 q 228 316 242 315 q 199 318 214 316 q 172 323 185 319 q 151 335 159 328 q 116 368 133 351 q 85 403 99 385 q 64 439 72 421 q 56 475 56 458 q 81 590 56 526 q 153 718 107 653 q 261 843 199 782 q 397 951 323 903 q 552 1027 471 998 q 717 1055 633 1055 q 770 1046 746 1055 q 814 1023 794 1038 q 849 992 833 1009 q 877 958 865 975 q 898 928 889 942 q 913 907 907 914 z "},"T":{"ha":790,"x_min":56,"x_max":1034,"o":"m 1034 861 q 966 865 1000 863 q 894 869 932 867 q 809 872 855 871 q 704 873 762 873 q 559 870 629 873 q 421 856 490 866 q 284 827 353 846 q 144 779 216 809 q 191 620 173 698 q 218 471 208 542 q 231 339 228 401 q 235 228 235 277 q 233 145 235 181 q 228 86 231 110 q 221 37 225 58 q 284 201 254 115 q 343 373 315 288 q 395 537 371 458 q 436 680 418 616 q 466 785 454 743 q 481 839 477 827 q 517 808 496 827 q 560 768 538 789 q 601 729 582 748 q 629 699 619 711 q 585 559 612 635 q 523 403 557 484 q 453 241 490 322 q 382 87 416 160 q 318 -45 347 15 q 269 -143 288 -104 q 244 -115 259 -133 q 214 -80 229 -98 q 185 -46 198 -62 q 165 -24 172 -31 q 171 4 167 -16 q 178 55 174 24 q 184 125 182 85 q 187 214 187 165 q 182 333 187 269 q 164 467 178 397 q 124 609 150 536 q 57 757 98 682 q 56 758 56 757 q 56 761 56 758 q 60 780 56 768 q 73 805 65 791 q 90 833 81 819 q 107 857 99 847 q 140 877 111 861 q 220 913 169 892 q 342 958 271 934 q 499 1001 413 981 q 685 1034 585 1021 q 892 1047 784 1047 q 907 1029 897 1042 q 931 1000 918 1017 q 960 964 945 983 q 989 926 975 945 q 1015 890 1004 907 q 1034 861 1027 873 z "},"U":{"ha":913,"x_min":36,"x_max":913,"o":"m 460 -50 q 529 130 495 52 q 592 273 563 208 q 530 185 559 223 q 479 121 501 147 q 432 69 454 91 q 340 -16 380 20 q 268 -76 300 -52 q 213 -111 237 -99 q 171 -122 189 -122 q 141 -112 157 -122 q 110 -88 125 -102 q 81 -57 94 -73 q 57 -28 67 -41 q 38 28 40 -6 q 36 114 36 63 q 49 277 36 192 q 87 449 62 363 q 146 622 111 536 q 223 786 180 707 q 315 935 266 865 q 419 1059 365 1004 q 452 1024 433 1044 q 489 985 470 1005 q 525 944 507 964 q 554 909 542 924 q 446 792 496 857 q 353 652 395 726 q 278 497 311 578 q 222 335 245 417 q 187 170 199 252 q 174 12 174 88 q 312 104 249 50 q 428 222 375 158 q 523 357 480 286 q 601 499 566 427 q 664 641 636 571 q 713 772 691 711 q 753 885 736 834 q 785 970 770 936 q 803 945 791 960 q 828 912 814 930 q 855 878 841 895 q 881 845 869 860 q 901 818 892 829 q 913 803 910 807 q 847 626 876 709 q 793 466 818 543 q 746 317 768 390 q 701 169 724 244 q 654 15 679 94 q 600 -153 629 -64 l 460 -50 z "},"V":{"ha":856,"x_min":43,"x_max":901,"o":"m 901 848 q 831 617 879 729 q 719 405 783 505 q 582 218 656 304 q 433 65 507 132 q 290 -50 359 -3 q 167 -118 220 -96 q 154 -122 159 -121 q 146 -123 148 -123 q 118 -113 132 -123 q 90 -87 103 -102 q 67 -59 77 -73 q 53 -37 57 -45 q 46 -21 50 -32 q 43 3 43 -11 q 50 98 43 38 q 72 235 58 158 q 105 404 86 313 q 149 591 125 494 q 201 788 174 688 q 260 983 229 888 q 285 955 270 972 q 316 917 300 937 q 348 877 332 897 q 377 840 364 857 q 397 813 389 824 q 404 803 404 803 q 336 588 368 696 q 277 377 304 480 q 226 177 250 273 q 182 -3 202 81 q 332 113 262 45 q 461 259 402 180 q 567 426 520 338 q 645 603 613 513 q 694 782 677 693 q 711 951 711 870 q 710 991 711 975 q 706 1019 708 1008 q 702 1037 704 1031 q 700 1047 701 1044 l 901 848 z "},"W":{"ha":1229,"x_min":43,"x_max":1275,"o":"m 612 39 q 612 15 612 25 q 613 -3 612 4 q 738 108 677 42 q 850 253 798 174 q 945 421 902 332 q 1020 601 989 510 q 1067 782 1050 692 q 1084 951 1084 871 q 1083 991 1084 975 q 1080 1019 1082 1008 q 1076 1037 1078 1031 q 1074 1047 1074 1044 l 1275 848 q 1210 617 1254 729 q 1107 405 1166 505 q 982 218 1049 304 q 846 65 914 132 q 714 -50 778 -3 q 599 -118 650 -96 q 587 -122 592 -121 q 579 -123 581 -123 q 552 -114 566 -123 q 526 -93 538 -105 q 505 -67 514 -80 q 492 -47 496 -55 q 488 -39 490 -45 q 484 -25 486 -33 q 480 -9 481 -17 q 478 5 478 -1 q 479 53 478 24 q 481 117 480 82 q 167 -118 310 -58 q 154 -122 159 -121 q 146 -123 148 -123 q 118 -113 132 -123 q 90 -87 103 -102 q 67 -59 77 -73 q 53 -37 57 -45 q 46 -21 50 -32 q 43 3 43 -11 q 50 98 43 38 q 72 235 58 158 q 105 404 86 313 q 149 591 125 494 q 201 788 174 688 q 260 983 229 888 q 285 955 270 972 q 316 917 300 937 q 348 877 332 897 q 377 840 364 857 q 397 813 389 824 q 404 803 404 803 q 335 585 368 696 q 275 368 303 475 q 222 163 247 262 q 178 -20 198 64 q 347 109 267 34 q 493 274 428 184 q 508 398 499 337 q 530 509 517 460 q 557 588 542 557 q 593 618 573 618 q 618 606 602 618 q 652 579 635 595 q 685 547 669 563 q 707 522 700 531 q 713 510 710 518 q 717 489 717 503 q 711 429 717 456 q 693 377 705 402 q 666 328 682 353 q 631 277 650 304 q 621 199 625 239 q 615 123 618 165 q 612 39 612 81 z "},"X":{"ha":736,"x_min":-167,"x_max":860,"o":"m 549 -187 q 519 -196 534 -192 q 489 -203 503 -200 q 461 -209 474 -206 q 440 -212 448 -211 q 365 -4 400 -109 q 298 208 329 100 q 112 44 210 124 q -100 -115 14 -36 q -117 -97 -107 -108 q -136 -74 -126 -85 q -154 -53 -145 -63 q -167 -37 -162 -43 q 63 145 -43 50 q 261 342 170 241 q 194 623 223 484 q 146 901 165 763 q 180 884 159 895 q 224 861 201 873 q 270 836 247 848 q 313 812 294 823 q 345 794 332 802 q 361 786 358 787 q 389 495 370 636 q 595 810 512 655 q 722 1099 677 965 q 757 1056 736 1082 q 798 1002 777 1030 q 835 949 818 975 q 860 909 852 924 q 657 612 765 758 q 416 326 549 467 q 472 74 440 199 q 549 -187 505 -52 z "},"Y":{"ha":878,"x_min":36,"x_max":913,"o":"m 400 -681 q 360 -640 378 -659 q 323 -601 341 -620 q 285 -562 304 -582 q 244 -521 266 -543 q 305 -352 273 -437 q 378 -173 338 -267 q 467 26 418 -79 q 580 256 517 131 q 522 175 549 210 q 475 117 495 140 q 432 69 452 90 q 340 -16 380 20 q 268 -76 300 -52 q 213 -111 237 -99 q 171 -122 189 -122 q 141 -112 157 -122 q 110 -88 125 -102 q 81 -57 94 -73 q 57 -28 67 -41 q 38 28 40 -6 q 36 114 36 63 q 49 277 36 192 q 87 449 62 363 q 146 622 111 536 q 223 786 180 707 q 315 935 266 865 q 419 1059 365 1004 q 452 1024 433 1044 q 489 985 470 1005 q 525 944 507 964 q 554 909 542 924 q 446 792 496 857 q 353 652 395 726 q 278 497 311 578 q 222 335 245 417 q 187 170 199 252 q 174 12 174 88 q 312 104 249 50 q 428 222 375 158 q 523 357 480 286 q 601 499 566 427 q 664 641 636 571 q 713 772 691 711 q 753 885 736 834 q 785 970 770 936 q 803 945 791 960 q 828 912 814 930 q 855 878 841 895 q 881 845 869 860 q 901 818 892 829 q 913 803 910 807 q 842 632 877 718 q 770 453 807 547 q 694 248 734 358 q 610 2 655 138 q 513 -302 565 -134 q 400 -681 461 -471 z "},"Z":{"ha":729,"x_min":-153,"x_max":854,"o":"m 854 825 q 767 715 817 772 q 659 599 718 658 q 537 481 601 540 q 409 366 473 422 q 281 259 344 311 q 162 165 218 208 q 58 88 106 122 q -22 33 11 54 q 71 36 18 35 q 182 38 123 37 q 299 42 240 39 q 411 48 359 44 q 506 58 464 52 q 571 74 548 64 q 534 24 554 52 q 492 -35 513 -5 q 450 -95 471 -66 q 411 -146 429 -124 q 326 -139 379 -144 q 211 -129 273 -135 q 82 -116 148 -123 q -43 -102 16 -109 q -76 -65 -60 -84 q -105 -26 -92 -45 q -131 9 -119 -7 q -153 40 -143 26 q 25 197 -68 114 q 219 377 119 281 q 422 584 319 473 q 627 825 525 695 q 533 808 581 815 q 436 796 484 801 q 340 788 387 791 q 250 783 293 785 q 209 823 235 798 q 156 876 183 848 q 105 930 130 903 q 66 975 80 957 q 106 969 81 972 q 169 963 132 966 q 257 958 206 960 q 376 956 309 956 q 506 957 452 956 q 598 961 560 958 q 660 965 636 963 q 698 970 684 968 q 719 974 712 972 q 730 975 726 975 q 752 955 740 968 q 778 926 765 942 q 804 893 791 910 q 828 861 817 876 q 846 837 839 847 q 854 825 853 827 z "},"a":{"ha":574,"x_min":-97,"x_max":575,"o":"m 350 60 q 354 56 350 56 q 374 64 360 56 q 407 87 389 73 q 446 117 425 100 q 486 151 467 134 q 520 180 505 167 q 543 201 535 194 q 558 185 549 195 q 575 167 568 175 q 536 131 559 152 q 487 86 513 109 q 433 40 461 63 q 379 0 406 18 q 329 -29 353 -18 q 288 -40 305 -40 q 261 -35 275 -40 q 234 -22 246 -31 q 214 -2 222 -14 q 205 24 205 9 q 205 37 205 29 q 206 57 205 45 q 212 88 208 70 q 224 132 216 106 q 171 83 201 109 q 108 34 141 57 q 41 -8 75 11 q -21 -36 7 -26 q -26 -37 -24 -37 q -31 -37 -28 -37 q -48 -31 -37 -37 q -71 -13 -60 -24 q -89 13 -81 -1 q -97 41 -97 27 q -93 68 -97 45 q -74 127 -89 92 q -28 207 -58 163 q 53 298 1 252 q 110 343 79 322 q 169 379 136 361 q 239 408 202 397 q 241 409 240 408 q 244 408 242 410 q 263 400 252 406 q 286 388 275 394 q 306 375 297 381 q 317 364 314 368 q 317 362 317 363 l 315 361 q 258 325 285 345 q 210 287 231 304 q 164 245 185 266 q 96 161 115 197 q 77 110 77 125 q 86 98 77 98 q 110 106 96 98 q 143 127 125 114 q 183 158 161 140 q 229 196 205 176 q 270 233 250 213 q 305 270 287 249 q 336 313 323 291 q 337 314 336 313 q 339 314 338 315 q 356 296 347 309 q 374 269 366 283 q 388 240 382 254 q 393 218 393 226 q 369 160 378 186 q 356 115 361 134 q 351 81 352 95 q 350 60 350 67 z "},"b":{"ha":498,"x_min":-62,"x_max":615,"o":"m 282 74 q 272 74 277 74 q 263 75 268 74 q 215 31 241 52 q 164 -5 190 10 q 114 -29 138 -20 q 66 -37 89 -37 q 23 -22 45 -37 q -19 13 0 -7 q -50 56 -38 34 q -62 90 -62 77 q -55 176 -62 122 q -28 299 -47 230 q 23 448 -9 368 q 107 611 56 528 q 236 790 174 721 q 350 899 298 859 q 439 955 401 939 q 498 977 478 972 q 531 969 513 977 q 566 948 549 961 q 596 918 583 935 q 615 884 610 901 q 584 788 607 836 q 526 690 560 739 q 448 591 492 641 q 353 490 404 541 q 247 389 302 439 q 134 289 191 339 q 116 224 124 255 q 102 166 108 193 q 93 120 96 140 q 90 87 90 100 q 93 62 90 68 q 104 56 96 56 q 125 63 113 56 q 150 82 137 70 q 176 110 163 94 q 202 144 190 126 q 201 153 201 149 q 201 160 201 157 q 210 211 201 186 q 231 258 218 236 q 259 300 243 281 q 292 336 275 320 q 308 319 300 330 q 325 296 317 309 q 341 269 334 283 q 357 240 349 254 q 341 186 353 214 q 309 131 328 159 l 311 131 q 355 135 334 131 q 396 148 376 138 q 436 172 416 157 q 476 210 456 187 q 492 193 483 203 q 509 175 502 182 q 452 126 480 145 q 397 95 425 106 q 341 79 369 83 q 282 74 313 74 m 245 572 q 211 501 228 540 q 178 420 194 463 q 316 562 252 492 q 426 693 380 632 q 498 803 472 754 q 525 884 525 852 q 518 893 525 893 q 484 879 508 893 q 424 828 459 864 q 343 729 388 791 q 245 572 298 667 z "},"c":{"ha":443,"x_min":-97,"x_max":444,"o":"m 26 -50 q -1 -42 14 -50 q -33 -21 -17 -35 q -65 10 -50 -8 q -90 47 -80 28 q -96 64 -94 55 q -97 89 -97 74 q -85 166 -97 127 q -52 241 -73 205 q -2 307 -31 276 q 62 360 28 338 q 136 395 97 382 q 216 408 176 408 q 233 402 222 408 q 256 385 243 395 q 280 360 268 374 q 303 333 293 347 q 320 306 313 319 q 326 282 326 292 q 305 254 323 269 q 263 225 288 239 q 213 203 239 212 q 167 195 186 195 q 155 201 155 195 q 165 223 155 209 q 188 255 176 238 q 211 290 201 273 q 221 319 221 307 q 218 330 221 326 q 210 334 215 334 q 178 320 195 334 q 146 284 162 307 q 115 233 130 262 q 89 174 100 204 q 71 113 77 143 q 64 57 64 82 q 73 36 64 42 q 100 31 81 31 q 188 46 145 31 q 269 85 230 61 q 343 139 308 109 q 410 199 378 169 q 428 181 417 190 q 444 167 439 173 q 355 83 402 123 q 256 14 308 43 q 146 -33 203 -16 q 26 -50 89 -50 z "},"d":{"ha":618,"x_min":-97,"x_max":810,"o":"m 374 75 q 385 58 374 58 q 415 66 397 58 q 453 88 433 75 q 493 117 473 101 q 531 149 513 134 q 564 178 549 165 q 586 200 578 192 q 602 184 593 194 q 619 167 612 175 q 579 127 602 149 q 531 83 557 106 q 478 39 506 60 q 424 1 451 18 q 371 -26 397 -16 q 322 -36 345 -36 q 292 -25 310 -36 q 258 3 275 -14 q 231 37 242 19 q 220 69 220 55 q 224 134 220 100 q 165 83 193 107 q 107 37 136 58 q 48 -2 79 16 q -16 -33 18 -20 q -33 -37 -26 -37 q -51 -31 -40 -37 q -72 -13 -62 -24 q -90 11 -82 -3 q -97 36 -97 24 q -86 98 -97 64 q -56 169 -76 132 q -7 241 -36 205 q 58 310 22 277 q 139 368 95 342 q 233 410 183 394 q 258 401 243 408 q 286 387 273 394 q 341 527 310 456 q 409 662 373 597 q 483 783 444 726 q 560 883 522 840 q 636 954 599 927 q 708 987 674 981 q 740 978 723 987 q 771 954 756 968 q 797 925 786 940 q 810 900 807 910 q 794 827 810 869 q 751 738 779 786 q 686 638 724 690 q 605 532 648 586 q 514 425 562 478 q 418 321 466 371 q 386 189 397 252 q 374 75 374 126 m 714 905 q 686 888 703 905 q 649 841 669 871 q 605 770 628 811 q 558 680 582 728 q 511 576 534 631 q 466 465 487 521 q 563 590 517 527 q 643 709 608 652 q 698 812 677 765 q 718 889 718 859 q 718 899 718 893 q 714 905 718 905 m 71 98 q 137 130 93 98 q 237 214 181 161 q 252 278 243 245 q 271 343 260 310 q 194 283 232 317 q 127 216 157 249 q 80 154 98 182 q 62 110 62 125 q 71 98 62 98 z "},"e":{"ha":437,"x_min":-97,"x_max":439,"o":"m 439 167 q 321 64 376 106 q 216 -2 266 23 q 120 -38 165 -27 q 31 -49 74 -49 q -10 -35 12 -49 q -52 -2 -33 -22 q -84 38 -71 17 q -97 74 -97 59 q -82 176 -97 130 q -41 260 -66 222 q 16 326 -16 297 q 83 373 48 354 q 153 401 118 392 q 216 411 187 411 q 258 399 237 411 q 296 369 279 387 q 323 332 313 351 q 334 298 334 313 q 314 251 334 275 q 260 202 295 227 q 175 151 224 177 q 66 98 125 125 q 64 66 64 82 q 73 38 64 45 q 107 31 82 31 q 192 45 152 31 q 268 84 231 60 q 338 138 304 108 q 406 200 372 169 l 439 167 m 200 336 q 170 322 186 336 q 138 283 154 307 q 106 229 121 260 q 81 165 92 198 q 130 199 106 181 q 173 238 154 218 q 203 279 192 258 q 215 321 215 300 q 211 332 215 327 q 200 336 208 336 z "},"f":{"ha":418,"x_min":-282,"x_max":624,"o":"m 427 174 q 327 83 376 123 q 225 12 277 43 q 121 -41 174 -19 q 13 -79 68 -64 q -43 -250 -14 -159 q -104 -443 -73 -340 l -282 -501 q -217 -300 -249 -397 q -153 -112 -185 -203 q -196 -117 -174 -115 q -241 -121 -218 -119 l -252 -52 q -186 -44 -217 -48 q -127 -37 -155 -41 q 30 367 -47 186 q 187 680 108 547 q 349 892 267 812 q 522 996 432 973 q 548 986 534 993 q 574 969 562 979 q 599 949 587 960 q 618 929 610 939 q 623 922 621 926 q 624 909 624 918 q 606 817 624 867 q 556 711 588 766 q 479 597 524 656 q 381 482 435 539 q 267 370 328 425 q 143 267 207 315 q 94 143 120 211 q 39 -6 68 75 q 130 25 87 7 q 215 68 173 43 q 301 128 257 94 q 395 208 345 162 l 427 174 m 273 553 q 255 518 266 539 q 233 473 245 500 q 203 409 220 446 q 295 502 251 453 q 376 600 338 550 q 446 697 414 649 q 499 787 477 745 q 534 863 522 829 q 546 918 546 897 q 539 928 546 928 q 505 907 526 928 q 452 842 484 887 q 376 726 420 798 q 273 553 332 655 z "},"g":{"ha":528,"x_min":-155,"x_max":530,"o":"m 530 167 q 413 57 472 107 q 297 -36 355 7 q 274 -99 286 -67 q 248 -164 261 -132 q 202 -250 228 -209 q 146 -326 176 -291 q 87 -389 117 -361 q 28 -437 56 -417 q -24 -467 0 -456 q -65 -478 -48 -478 q -92 -468 -77 -478 q -122 -443 -108 -458 q -145 -409 -136 -427 q -155 -375 -155 -391 q -131 -306 -155 -340 q -65 -236 -107 -272 q 35 -160 -22 -200 q 158 -75 92 -121 q 192 17 173 -36 q 236 149 210 71 q 179 82 212 115 q 112 23 146 49 q 43 -19 77 -3 q -20 -35 9 -35 q -39 -27 -27 -35 q -63 -9 -51 -20 q -83 18 -75 3 q -92 52 -92 34 q -81 105 -92 74 q -49 172 -70 137 q 1 244 -28 208 q 67 313 31 281 q 148 371 104 345 q 241 410 192 396 q 262 404 249 410 q 289 391 276 398 q 312 377 302 384 q 322 368 322 370 q 320 365 322 367 q 318 364 319 364 q 278 338 302 355 q 227 299 254 321 q 172 254 199 278 q 123 205 145 229 q 87 159 101 181 q 74 119 74 137 q 77 109 74 113 q 86 104 80 104 q 124 116 103 104 q 168 147 146 128 q 213 190 191 166 q 255 236 235 213 q 291 278 275 258 q 315 310 307 298 q 318 313 317 311 q 321 315 319 314 q 335 302 326 314 q 353 274 345 290 q 369 242 362 258 q 375 220 375 227 l 375 218 q 374 214 375 218 q 355 147 366 190 q 326 49 343 104 q 413 121 369 83 q 500 203 456 159 l 530 167 m -75 -387 q -36 -367 -62 -387 q 18 -314 -11 -346 q 74 -242 46 -281 q 119 -167 101 -203 q 39 -227 75 -199 q -24 -281 2 -255 q -65 -333 -50 -308 q -79 -382 -79 -357 q -75 -387 -79 -387 z "},"h":{"ha":585,"x_min":-72,"x_max":586,"o":"m 347 57 q 374 66 357 57 q 412 88 391 75 q 454 118 433 102 q 496 151 476 135 q 532 180 516 167 q 555 200 547 193 q 570 184 562 194 q 586 167 578 175 q 549 131 571 152 q 500 89 526 111 q 447 46 475 67 q 393 8 419 25 q 343 -19 366 -9 q 304 -29 320 -29 q 274 -23 292 -29 q 241 -6 257 -16 q 214 15 225 3 q 203 39 203 27 q 214 106 203 68 q 238 186 224 145 q 268 266 252 227 q 297 337 283 306 q 276 322 292 336 q 238 285 260 309 q 190 229 216 262 q 139 155 164 196 q 90 67 113 115 q 52 -32 67 20 q 46 -43 50 -39 q 33 -46 42 -46 q 14 -40 27 -46 q -13 -25 1 -34 q -41 -7 -27 -17 q -62 9 -54 2 q -69 18 -66 14 q -72 31 -72 22 q -57 140 -72 75 q -16 282 -42 205 q 45 441 10 358 q 120 604 80 524 q 202 756 159 684 q 287 884 245 829 q 367 973 329 939 q 437 1008 406 1006 q 469 994 453 1004 q 499 971 485 983 q 525 947 513 959 q 542 928 536 936 q 547 915 546 922 q 549 904 549 907 q 535 844 549 880 q 497 763 522 808 q 438 667 473 718 q 360 562 403 616 q 269 453 318 508 q 166 347 220 398 q 142 275 153 310 q 209 339 178 313 q 263 380 239 365 q 303 402 287 395 q 329 408 320 408 q 351 400 335 408 q 383 382 366 393 q 414 359 400 371 q 432 340 429 348 q 432 331 433 337 q 429 322 431 326 q 415 280 423 304 q 396 229 406 256 q 377 175 387 202 q 360 125 368 148 q 348 85 353 102 q 343 61 343 68 q 347 57 343 57 m 288 640 q 256 571 271 606 q 227 503 241 537 q 315 621 272 561 q 391 736 357 681 q 445 838 425 791 q 465 917 465 885 q 460 932 465 932 q 435 910 452 932 q 395 849 418 888 q 345 757 372 810 q 288 640 317 703 z "},"i":{"ha":290,"x_min":-78,"x_max":296,"o":"m 12 -37 q -14 -30 2 -37 q -43 -13 -29 -23 q -68 11 -58 -2 q -78 36 -78 24 q -60 104 -71 66 q -35 183 -48 143 q -7 261 -22 223 q 19 330 7 300 q 40 378 31 359 q 52 396 49 396 q 72 387 56 396 q 106 366 88 378 q 138 339 124 353 q 153 315 153 326 q 152 310 153 313 q 150 302 151 307 q 136 262 144 286 q 118 215 127 239 q 99 165 109 190 q 82 119 90 140 q 70 81 75 97 q 65 57 65 64 q 69 53 65 53 q 92 62 77 53 q 126 85 106 71 q 166 116 145 99 q 207 150 187 133 q 241 180 226 166 q 265 200 257 193 q 280 184 271 194 q 296 167 288 175 q 258 131 281 152 q 210 87 236 109 q 156 42 184 64 q 101 2 127 20 q 52 -26 75 -16 q 12 -37 28 -37 m 281 603 q 276 590 280 600 q 265 565 271 579 q 251 536 259 551 q 236 508 243 521 q 222 487 229 495 q 211 478 215 478 q 181 486 199 479 q 148 501 164 492 q 121 517 132 509 q 110 529 110 526 q 118 566 110 543 q 137 610 126 589 q 159 647 148 631 q 176 663 170 663 q 206 655 189 663 q 240 637 224 647 q 269 617 257 627 q 281 603 281 607 z "},"j":{"ha":300,"x_min":-410,"x_max":306,"o":"m 306 167 q 179 84 244 125 q 51 3 115 43 q 25 -72 39 -33 q -11 -163 12 -111 q -81 -288 -41 -231 q -164 -387 -121 -345 q -250 -452 -208 -429 q -325 -476 -292 -476 q -350 -465 -336 -476 q -378 -438 -365 -454 q -400 -407 -391 -423 q -410 -380 -410 -391 q -387 -299 -410 -340 q -323 -214 -363 -257 q -227 -128 -282 -172 q -106 -39 -171 -84 q -71 63 -88 11 q -39 166 -54 116 q -11 260 -24 216 q 13 338 3 304 q 30 390 23 371 q 39 410 37 410 q 60 399 43 410 q 96 375 77 389 q 130 348 115 361 q 144 326 144 334 q 144 320 144 323 q 142 314 143 317 q 118 239 128 273 q 100 177 108 205 q 85 123 92 148 q 72 76 78 98 q 174 139 123 108 q 275 203 224 170 l 306 167 m 252 603 q 247 590 251 600 q 236 565 242 579 q 222 536 230 551 q 207 508 214 521 q 193 487 199 495 q 182 478 186 478 q 152 486 170 479 q 119 501 135 492 q 92 517 103 509 q 81 529 81 526 q 89 567 81 544 q 108 611 97 590 q 131 647 119 632 q 147 663 142 663 q 177 655 159 663 q 211 637 195 647 q 240 617 228 627 q 252 603 252 607 m -164 -186 q -151 -157 -157 -172 q -138 -126 -145 -142 q -218 -192 -182 -159 q -280 -258 -254 -225 q -320 -325 -306 -292 q -335 -393 -335 -359 q -328 -403 -335 -403 q -295 -384 -315 -403 q -251 -333 -274 -364 q -205 -263 -228 -302 q -164 -186 -182 -224 z "},"k":{"ha":567,"x_min":-56,"x_max":571,"o":"m 340 68 q 368 76 351 68 q 404 97 385 84 q 445 125 424 109 q 484 155 465 140 q 517 183 503 170 q 541 203 532 196 q 555 187 547 197 q 571 170 564 178 q 534 133 556 155 q 485 90 511 112 q 431 45 459 67 q 376 5 403 22 q 326 -24 349 -13 q 288 -35 303 -35 q 240 -24 261 -35 q 201 3 218 -14 q 169 41 184 20 q 141 85 154 62 q 118 52 130 70 q 96 18 106 34 q 79 -11 85 1 q 70 -26 72 -23 q 66 -34 68 -31 q 57 -36 63 -36 q 33 -28 47 -36 q 5 -7 19 -20 q -23 21 -9 5 q -47 52 -37 36 q -54 68 -53 59 q -56 92 -56 78 q -45 193 -56 136 q -14 311 -34 249 q 33 439 5 373 q 94 570 60 505 q 165 696 127 635 q 245 812 204 758 q 330 908 287 865 q 418 978 374 951 q 430 983 425 982 q 440 985 436 985 q 463 976 448 985 q 495 954 478 966 q 526 928 511 941 q 547 907 541 915 q 551 889 551 901 q 522 778 551 844 q 437 630 492 711 q 306 460 383 550 q 135 279 229 370 q 115 210 125 244 q 98 141 106 176 q 211 286 161 233 q 295 367 260 339 q 352 402 330 394 q 383 410 374 410 q 402 401 391 410 q 424 381 414 393 q 442 360 434 370 q 453 345 450 349 q 439 317 454 338 q 397 269 424 296 q 335 212 371 242 q 256 156 298 182 q 293 107 277 125 q 319 81 309 90 q 340 68 332 71 m 268 615 q 226 525 248 574 q 184 420 205 475 q 312 578 259 505 q 400 711 366 652 q 450 816 434 770 q 465 892 465 861 q 465 896 465 894 q 461 899 465 899 q 435 880 453 899 q 391 824 416 861 q 333 735 365 787 q 268 615 302 682 z "},"l":{"ha":368,"x_min":-56,"x_max":543,"o":"m 111 47 q 141 57 122 47 q 182 81 159 66 q 229 113 204 96 q 274 148 253 131 q 313 179 296 165 q 338 200 330 193 q 352 184 344 194 q 368 167 361 175 q 331 131 353 152 q 282 87 309 109 q 228 42 256 64 q 173 2 200 20 q 123 -26 146 -16 q 85 -37 100 -37 q 40 -22 64 -37 q -3 13 17 -7 q -38 53 -24 33 q -54 83 -52 73 q -56 93 -56 87 q -56 106 -56 99 q -47 192 -56 140 q -24 301 -39 243 q 8 417 -10 359 q 47 518 27 474 q 133 678 89 608 q 218 800 176 748 q 299 887 260 852 q 369 944 338 922 q 421 975 399 966 q 450 985 442 985 q 476 971 463 980 q 501 951 490 962 q 522 931 513 941 q 534 917 530 922 q 542 906 540 911 q 543 893 543 901 q 535 848 543 877 q 505 776 527 820 q 443 671 482 732 q 339 529 403 610 q 276 452 309 491 q 210 378 248 418 q 134 301 173 338 q 106 170 114 227 q 98 81 98 113 q 102 54 98 60 q 111 47 105 47 m 220 545 q 198 494 208 519 q 180 446 189 470 q 218 492 201 470 q 248 529 235 513 q 273 564 262 547 q 355 686 321 630 q 412 784 390 741 q 445 854 435 826 q 456 895 456 882 q 455 900 456 898 q 452 901 455 901 q 424 881 446 901 q 371 818 402 861 q 300 707 339 774 q 220 545 261 640 z "},"m":{"ha":787,"x_min":-92,"x_max":787,"o":"m 151 328 q 135 284 143 307 q 119 239 127 262 q 190 320 162 290 q 237 368 218 351 q 268 391 256 385 q 290 401 280 398 q 311 395 296 401 q 342 378 326 388 q 374 358 359 368 q 395 340 389 347 q 396 325 400 335 q 380 281 388 303 q 365 236 372 259 q 441 320 410 288 q 491 368 471 351 q 521 391 510 385 q 538 396 532 396 q 564 387 547 396 q 600 366 582 378 q 631 339 618 353 q 644 315 644 326 q 644 310 644 313 q 642 302 643 307 q 628 262 636 286 q 610 215 619 239 q 591 165 600 190 q 574 119 581 140 q 562 81 566 97 q 557 57 557 64 q 561 53 557 53 q 583 62 568 53 q 617 85 598 71 q 658 116 637 99 q 698 150 679 133 q 733 180 718 166 q 757 200 749 193 q 771 184 763 194 q 787 167 780 175 q 750 131 772 152 q 702 87 728 109 q 647 42 675 64 q 593 2 619 20 q 543 -26 566 -16 q 504 -37 520 -37 q 478 -30 494 -37 q 448 -13 463 -23 q 424 11 434 -2 q 414 36 414 24 q 430 99 420 64 q 452 171 440 134 q 478 244 465 208 q 503 311 491 280 q 467 271 490 294 q 416 211 445 248 q 355 117 388 173 q 290 -18 323 62 q 271 -32 286 -32 q 251 -29 262 -32 q 225 -19 239 -26 q 198 -3 212 -13 q 172 20 184 6 q 177 48 172 24 q 192 110 182 73 q 216 193 202 147 q 246 288 229 239 q 205 243 230 271 q 153 177 181 216 q 96 86 125 138 q 41 -31 67 35 q 22 -45 37 -45 q -4 -38 11 -45 q -34 -21 -18 -32 q -64 2 -49 -11 q -92 28 -79 15 q -88 51 -92 32 q -77 99 -84 70 q -61 164 -71 127 q -38 242 -51 201 q -9 325 -25 283 q 24 407 6 368 q 87 374 52 393 q 151 328 122 354 z "},"n":{"ha":558,"x_min":-83,"x_max":558,"o":"m 160 328 q 144 283 152 306 q 127 237 136 261 q 201 317 170 286 q 253 366 232 348 q 288 390 275 383 q 309 396 301 396 q 335 387 317 396 q 371 366 353 378 q 402 339 389 353 q 415 315 415 326 q 414 310 415 313 q 412 302 414 307 q 398 262 407 286 q 380 215 390 239 q 361 165 371 190 q 345 119 352 140 q 332 81 337 97 q 328 57 328 64 q 332 53 328 53 q 354 62 339 53 q 388 85 369 71 q 429 116 408 99 q 469 150 450 133 q 504 180 488 166 q 528 200 519 193 q 543 184 534 194 q 558 167 551 175 q 521 131 543 152 q 472 87 498 109 q 418 42 446 64 q 363 2 390 20 q 314 -26 337 -16 q 275 -37 291 -37 q 250 -30 265 -37 q 219 -13 234 -23 q 195 11 205 -2 q 184 36 184 24 q 201 99 191 64 q 224 171 212 134 q 249 244 236 208 q 275 311 262 281 l 273 310 q 236 269 260 294 q 182 204 212 243 q 117 108 151 164 q 51 -24 83 52 q 43 -39 47 -34 q 31 -45 40 -45 q 4 -38 19 -45 q -25 -21 -10 -32 q -56 2 -41 -11 q -83 28 -71 15 q -80 51 -83 32 q -69 99 -76 70 q -52 164 -62 127 q -29 242 -42 201 q -1 325 -16 283 q 32 407 14 368 q 95 374 60 393 q 160 328 130 354 z "},"o":{"ha":456,"x_min":-92,"x_max":465,"o":"m 50 69 q 65 49 50 49 q 106 74 81 49 q 160 136 132 98 q 158 150 159 144 q 158 160 158 155 q 161 192 158 174 q 176 235 164 211 q 196 271 184 253 q 219 304 205 286 q 249 338 233 322 l 253 342 q 271 320 260 334 q 293 291 282 306 q 313 264 304 277 q 323 248 321 252 q 313 189 323 218 q 285 132 302 160 q 360 152 326 134 q 433 211 395 170 q 449 194 439 205 q 465 176 459 184 q 409 127 437 146 q 354 96 382 107 q 298 79 327 84 q 240 74 270 74 q 191 29 217 50 q 137 -6 164 9 q 82 -29 109 -21 q 31 -37 55 -37 q -12 -25 10 -37 q -51 5 -33 -13 q -80 43 -68 23 q -92 79 -92 64 q -78 182 -92 131 q -34 277 -64 233 q 41 355 -5 321 q 150 407 87 389 q 157 409 152 408 q 165 410 162 410 q 185 402 175 410 q 205 387 196 395 q 220 369 214 378 q 227 358 227 361 q 216 350 225 355 q 193 332 208 345 q 157 297 178 320 q 113 237 137 275 q 63 138 76 182 q 50 69 50 94 z "},"p":{"ha":549,"x_min":-293,"x_max":549,"o":"m 117 250 q 184 325 154 296 q 238 372 215 355 q 278 396 262 389 q 302 403 294 403 q 326 395 313 403 q 352 375 339 387 q 375 351 364 363 q 393 332 386 339 q 402 316 401 324 q 404 298 404 307 q 393 229 404 267 q 365 154 382 191 q 325 84 347 117 q 279 28 302 51 q 320 48 299 36 q 361 73 340 60 q 401 101 381 87 q 438 130 420 116 q 518 200 479 163 l 549 167 q 499 122 526 146 q 441 75 471 98 q 381 31 412 52 q 321 -6 350 10 q 269 -32 293 -22 q 227 -41 244 -41 q 196 -34 214 -41 q 160 -17 178 -27 q 131 5 143 -7 q 118 26 118 17 q 125 36 118 32 q 146 52 132 41 q 178 87 159 64 q 221 154 197 110 q 245 204 234 178 q 266 253 257 231 q 280 293 275 276 q 285 315 285 309 q 283 324 285 321 q 280 328 281 326 q 275 328 277 328 q 237 297 266 325 q 170 219 208 270 q 87 94 131 168 q 5 -74 44 20 q -58 -258 -26 -165 q -121 -443 -90 -351 l -293 -484 q -211 -261 -254 -372 q -127 -41 -169 -151 q -45 180 -85 69 q 32 401 -5 290 q 36 412 34 409 q 43 415 37 415 q 69 402 54 412 q 100 381 85 393 q 127 357 115 370 q 144 336 140 345 q 144 329 146 334 q 140 318 142 324 l 117 250 z "},"q":{"ha":562,"x_min":-110,"x_max":562,"o":"m 562 167 q 517 127 541 147 q 470 88 496 109 q 416 47 444 67 q 419 27 418 38 q 419 4 419 16 q 408 -99 419 -45 q 379 -208 397 -154 q 335 -311 360 -262 q 283 -396 311 -359 q 226 -455 256 -433 q 170 -475 197 -476 q 137 -461 157 -474 q 99 -432 118 -449 q 62 -399 79 -416 q 36 -372 45 -382 q 30 -363 33 -368 q 28 -350 28 -358 q 39 -302 28 -334 q 67 -228 50 -270 q 108 -138 85 -186 q 154 -39 131 -90 q 200 60 178 12 q 239 151 222 109 q 177 89 211 121 q 108 30 144 56 q 35 -15 72 3 q -35 -32 -1 -32 q -55 -24 -42 -32 q -79 -3 -67 -16 q -101 25 -92 9 q -110 56 -110 41 q -95 120 -110 86 q -54 188 -79 154 q 5 254 -28 222 q 74 314 38 287 q 147 361 111 341 q 216 392 184 382 q 237 387 223 392 q 264 376 250 382 q 288 362 278 369 q 298 350 298 355 q 296 346 298 347 q 258 322 281 338 q 208 286 235 306 q 154 241 181 265 q 106 194 127 218 q 71 148 84 170 q 57 109 57 125 q 69 94 57 94 q 99 103 81 94 q 139 128 117 113 q 185 165 161 144 q 234 211 210 186 q 281 263 258 236 q 321 317 303 290 q 322 319 322 318 q 325 319 323 319 q 343 307 331 319 q 368 277 356 294 q 390 244 380 260 q 399 221 399 228 q 390 188 399 214 q 365 123 380 161 q 328 36 349 84 q 286 -62 307 -12 q 244 -163 264 -113 q 207 -257 223 -214 q 181 -334 191 -300 q 171 -383 171 -367 q 174 -387 171 -387 q 216 -362 193 -387 q 260 -297 238 -337 q 302 -208 282 -258 q 338 -109 323 -158 q 363 -17 354 -60 q 372 53 372 26 l 372 66 q 379 80 372 75 q 405 97 387 85 q 453 132 422 109 q 532 200 484 155 l 562 167 z "},"r":{"ha":429,"x_min":-45,"x_max":429,"o":"m 275 281 q 253 220 267 254 q 228 154 240 186 q 207 95 216 121 q 199 57 199 68 q 203 53 199 53 q 225 62 210 53 q 259 85 240 71 q 300 116 279 99 q 340 150 321 133 q 375 180 359 166 q 399 200 391 193 q 413 184 405 194 q 429 167 422 175 q 392 131 414 152 q 343 87 370 109 q 289 42 317 64 q 234 2 261 20 q 184 -26 208 -16 q 146 -37 161 -37 q 120 -30 136 -37 q 90 -13 104 -23 q 66 11 76 -2 q 56 36 56 24 q 76 115 66 81 q 95 173 86 149 q 111 212 104 197 q 121 235 117 227 q 105 242 113 238 q 90 250 98 246 q 66 226 79 239 q 39 200 53 213 q 12 175 26 187 q -12 153 -1 163 l -45 186 q -2 227 -27 203 q 46 275 22 251 q 16 295 29 286 q -7 311 2 304 q -28 326 -19 319 q -32 335 -32 328 q -26 356 -32 342 q -12 386 -20 370 q 7 419 -3 402 q 27 449 18 435 q 44 471 37 463 q 53 479 51 479 q 62 476 54 479 q 79 468 70 473 q 95 458 87 464 q 104 449 102 453 q 106 435 105 446 q 107 408 106 424 q 161 377 134 395 q 212 345 189 360 q 264 309 239 327 q 275 295 273 303 q 275 281 277 287 z "},"s":{"ha":437,"x_min":-45,"x_max":437,"o":"m -45 187 q -9 221 -29 202 q 31 262 11 240 q 68 311 51 285 q 96 366 85 336 q 104 399 98 382 q 117 431 110 416 q 131 454 124 445 q 143 464 138 464 q 168 446 151 459 q 200 418 184 433 q 229 390 216 403 q 241 375 241 378 q 234 319 233 344 q 238 269 234 294 q 246 217 241 245 q 250 154 250 190 q 243 104 250 132 q 218 54 236 76 q 287 99 253 74 q 347 147 321 125 q 407 200 378 174 l 437 167 q 389 122 415 146 q 335 75 363 98 q 277 31 307 52 q 220 -6 248 10 q 165 -32 191 -22 q 115 -41 138 -41 q 72 -32 96 -41 q 27 -9 48 -22 q -9 20 6 5 q -28 45 -25 35 q -25 51 -28 46 q -19 60 -22 55 q -11 68 -15 64 q -5 72 -7 72 q 11 66 -1 72 q 52 60 23 60 q 78 68 67 60 q 97 90 90 76 q 108 121 104 103 q 111 158 111 138 q 109 213 111 186 q 102 265 106 240 q 76 237 91 252 q 46 207 61 222 q 15 179 31 193 q -12 154 0 165 l -45 187 l -45 187 z "},"t":{"ha":318,"x_min":-75,"x_max":412,"o":"m 35 -37 q 4 -27 23 -37 q -32 -1 -14 -16 q -62 31 -50 14 q -75 58 -75 47 q -64 123 -75 79 q -35 223 -53 167 q 7 345 -16 280 q 54 471 31 409 l -41 471 l -42 471 q -43 472 -43 471 q -40 484 -43 476 q -32 500 -37 492 q -22 516 -28 509 q -11 525 -16 523 l 77 529 q 114 614 96 575 q 144 681 131 653 q 152 697 148 688 q 162 714 155 705 q 181 731 170 722 q 214 750 193 741 q 250 766 229 758 q 292 783 271 775 q 330 795 313 790 q 354 800 347 800 q 361 798 361 800 l 361 796 q 359 793 361 795 q 345 763 355 786 q 318 706 334 741 q 282 628 302 672 q 243 536 263 585 l 406 542 q 410 534 412 542 q 399 515 407 526 q 382 492 392 504 q 366 475 372 481 q 360 472 364 473 q 350 471 356 471 l 216 471 q 169 351 191 412 q 129 237 146 291 q 101 137 111 182 q 90 62 90 92 q 94 58 90 58 q 117 67 102 58 q 150 89 132 75 q 190 119 169 102 q 230 151 211 135 q 264 180 249 167 q 288 200 279 193 q 302 184 294 194 q 318 167 311 175 q 281 131 303 152 q 232 87 258 109 q 178 42 206 64 q 123 2 150 20 q 73 -26 96 -16 q 35 -37 50 -37 z "},"u":{"ha":557,"x_min":-85,"x_max":557,"o":"m 322 60 q 326 56 322 56 q 349 64 334 56 q 384 87 364 73 q 425 117 404 100 q 467 150 447 134 q 502 180 486 166 q 526 200 518 193 q 541 184 532 194 q 557 167 549 175 q 519 131 542 152 q 470 87 496 110 q 414 42 443 64 q 358 3 385 20 q 307 -25 331 -14 q 268 -36 283 -36 q 242 -29 256 -36 q 215 -11 228 -22 q 194 14 203 1 q 186 40 186 28 q 194 81 186 51 q 214 153 202 112 q 154 80 183 111 q 100 26 125 48 q 58 -11 76 3 q 31 -31 39 -24 q 18 -36 25 -34 q 4 -37 10 -37 q -24 -30 -9 -37 q -53 -10 -40 -22 q -76 16 -66 1 q -85 43 -85 30 q -75 92 -85 58 q -48 175 -65 127 q -9 283 -32 223 q 39 408 13 342 q 41 411 40 412 q 45 411 42 411 q 80 400 58 409 q 124 382 102 392 q 161 362 145 372 q 176 350 176 353 q 166 328 174 345 q 146 285 157 310 q 122 232 135 260 q 99 176 110 203 q 82 129 89 150 q 75 97 75 107 q 78 94 75 94 q 102 109 83 94 q 147 155 120 123 q 208 235 174 186 q 278 353 241 284 l 297 407 q 306 412 299 412 q 327 403 311 412 q 360 382 342 394 q 393 358 378 370 q 408 342 407 347 q 408 335 408 340 q 406 326 407 330 q 390 283 399 308 q 372 232 381 258 q 354 178 363 205 q 338 127 345 151 q 327 86 331 104 q 322 60 322 68 z "},"v":{"ha":484,"x_min":-64,"x_max":492,"o":"m 285 71 q 235 80 256 71 q 189 36 213 56 q 140 -1 164 15 q 94 -26 117 -17 q 50 -37 71 -36 q 21 -28 40 -37 q -17 -6 1 -20 q -50 26 -36 8 q -64 62 -64 44 q -55 152 -64 107 q -33 241 -46 197 q -4 328 -20 286 q 26 410 12 370 q 94 375 61 394 q 155 330 127 356 q 135 283 145 310 q 115 229 125 257 q 98 172 106 200 q 83 119 90 143 q 74 76 77 94 q 71 49 71 57 q 73 39 71 43 q 81 35 75 35 q 105 41 92 35 q 133 59 118 48 q 163 86 148 71 q 193 118 178 101 q 180 160 180 139 q 185 194 180 174 q 197 236 189 214 q 213 280 204 258 q 232 321 222 302 q 251 354 242 340 q 268 375 260 368 q 300 358 283 369 q 332 336 317 348 q 355 313 346 324 q 366 294 364 302 q 359 261 366 280 q 340 220 352 242 q 312 174 328 198 q 275 125 295 150 q 284 123 279 124 q 294 122 288 122 q 342 127 321 122 q 382 143 363 133 q 420 170 401 154 q 460 205 438 185 q 476 190 466 199 q 492 172 486 180 q 438 124 463 144 q 388 93 412 105 q 338 76 363 81 q 285 71 313 71 z "},"w":{"ha":733,"x_min":-64,"x_max":733,"o":"m 297 -37 q 272 -31 288 -37 q 239 -13 256 -24 q 208 13 222 -1 q 186 44 193 28 q 116 -12 151 11 q 50 -37 81 -35 q 21 -28 40 -37 q -17 -6 1 -20 q -50 26 -36 8 q -64 62 -64 44 q -54 154 -64 107 q -30 248 -44 201 q 2 339 -15 295 q 33 424 19 384 q 101 389 68 408 q 163 345 134 370 q 142 296 153 324 q 121 239 131 269 q 101 178 111 209 q 85 122 92 148 q 75 77 79 96 q 71 49 71 57 q 73 39 71 43 q 81 35 75 35 q 103 42 91 35 q 130 62 116 50 q 158 90 144 74 q 187 123 173 106 q 201 195 192 159 q 222 264 211 230 q 247 333 234 299 q 272 399 260 366 q 340 364 307 383 q 401 319 373 345 q 381 273 391 299 q 362 220 371 248 q 345 166 353 193 q 331 116 336 139 q 321 75 325 92 q 318 49 318 57 q 320 39 318 43 q 328 35 322 35 q 353 42 338 35 q 382 63 367 50 q 413 94 397 77 q 444 131 429 112 q 437 179 437 152 q 445 232 437 201 q 464 293 452 262 q 489 350 475 323 q 515 389 503 376 q 548 373 531 383 q 578 350 564 362 q 602 327 593 338 q 612 309 611 315 q 605 273 612 294 q 584 227 597 252 q 553 176 571 203 q 514 123 535 150 q 555 109 526 109 q 623 133 589 109 q 701 197 657 157 q 718 181 708 191 q 733 164 727 172 q 631 82 676 108 q 543 57 586 57 q 476 79 503 57 q 430 35 454 56 q 384 -1 407 14 q 339 -26 361 -17 q 297 -37 317 -36 z "},"x":{"ha":567,"x_min":-68,"x_max":571,"o":"m 311 57 q 317 46 313 53 q 335 40 321 40 q 358 50 342 40 q 394 75 374 60 q 437 110 414 91 q 479 146 459 128 q 516 179 500 164 q 541 200 532 193 q 555 184 547 194 q 571 167 564 175 q 533 130 556 152 q 484 85 511 109 q 427 39 456 62 q 371 -2 398 16 q 320 -32 344 -20 q 281 -43 296 -43 q 206 -31 238 -43 q 168 5 174 -18 q 158 44 163 24 q 149 83 153 64 l -16 -52 q -29 -47 -20 -52 q -46 -38 -38 -43 q -61 -27 -55 -32 q -68 -20 -68 -22 q -67 -16 -68 -18 q -65 -14 -66 -15 l 134 154 q 118 240 125 202 q 107 296 112 278 q 91 272 102 288 q 64 235 80 256 q 29 193 49 215 q -14 153 9 171 l -46 186 q 28 274 0 233 q 73 345 56 315 q 97 392 90 375 q 111 410 105 410 q 144 407 125 410 q 183 399 163 404 q 221 388 203 395 q 249 374 239 382 q 256 337 251 367 q 269 268 262 308 l 427 400 q 439 406 434 406 q 451 401 443 406 q 468 390 460 396 q 483 377 477 383 q 489 370 490 372 q 486 366 489 368 q 467 349 484 363 q 422 311 450 334 q 358 257 394 288 q 282 195 321 227 q 291 146 287 170 q 299 103 296 122 q 306 72 303 85 q 311 57 309 60 z "},"y":{"ha":542,"x_min":-170,"x_max":546,"o":"m 546 168 q 420 64 485 113 q 292 -30 356 16 q 270 -90 282 -58 q 240 -163 258 -122 q 195 -250 220 -208 q 142 -331 170 -293 q 84 -399 114 -368 q 25 -453 54 -431 q -30 -489 -3 -476 q -79 -501 -57 -501 q -106 -493 -90 -501 q -136 -472 -121 -485 q -160 -446 -150 -460 q -170 -419 -170 -431 q -146 -335 -170 -376 q -83 -253 -123 -294 q 12 -169 -43 -212 q 130 -82 66 -127 q 168 27 149 -30 q 204 139 186 83 q 148 74 175 102 q 98 27 121 46 q 58 -4 75 7 q 32 -22 41 -16 q 19 -27 26 -26 q 5 -29 12 -29 q -23 -21 -7 -29 q -52 -2 -39 -14 q -74 24 -65 10 q -83 52 -83 39 q -74 99 -83 66 q -47 179 -64 132 q -8 284 -31 226 q 40 408 14 342 q 42 411 41 412 q 46 411 43 411 q 81 400 59 409 q 125 382 104 392 q 162 362 146 372 q 178 350 178 353 q 167 328 176 345 q 148 285 159 310 q 124 232 136 260 q 101 176 111 203 q 83 129 90 150 q 77 97 77 107 q 79 94 77 94 q 100 106 84 94 q 140 145 116 119 q 193 213 163 172 q 256 311 223 254 q 279 383 270 356 q 290 410 288 410 q 311 399 294 410 q 347 375 328 389 q 381 348 366 361 q 396 326 396 334 q 395 320 396 323 q 393 314 395 317 q 366 228 378 267 q 346 158 355 190 q 329 99 336 126 q 315 47 322 73 q 416 122 366 84 q 515 203 467 161 l 546 168 m -83 -427 q -50 -403 -71 -427 q -3 -343 -28 -380 q 48 -261 22 -307 q 93 -173 73 -216 q 35 -220 67 -195 q -24 -277 3 -246 q -71 -342 -52 -307 q -90 -416 -90 -377 q -83 -427 -90 -427 z "},"z":{"ha":490,"x_min":-180,"x_max":492,"o":"m 492 165 q 397 80 446 121 q 298 -3 348 38 q 299 -12 299 -7 q 300 -22 300 -17 q 279 -129 300 -74 q 224 -236 258 -183 q 148 -335 191 -288 q 64 -417 106 -382 q -17 -472 22 -452 q -81 -493 -55 -493 q -118 -479 -100 -492 q -150 -452 -136 -467 q -172 -420 -163 -436 q -180 -395 -180 -404 q -151 -319 -180 -360 q -74 -231 -122 -277 q 37 -136 -25 -185 q 165 -37 99 -87 q 172 16 172 -7 q 172 22 172 18 q 168 30 171 26 q 160 37 165 34 q 147 40 155 40 q 129 37 138 40 q 102 28 119 34 q 91 31 99 26 q 71 42 82 35 q 46 57 59 49 q 23 73 34 66 q 5 86 12 81 q -1 93 -1 92 q 63 137 33 113 q 117 185 94 160 q 153 234 140 210 q 167 282 167 259 q 166 291 167 284 q 163 304 165 297 q 157 317 161 311 q 147 322 153 322 q 122 307 136 322 q 90 268 109 292 q 46 214 71 244 q -12 154 21 184 q -24 168 -18 161 q -36 179 -30 173 q -45 189 -41 184 q 30 271 -1 230 q 86 344 62 311 q 128 396 110 376 q 164 416 146 416 q 198 409 178 416 q 240 389 219 401 q 281 363 262 378 q 311 336 300 349 q 317 316 317 330 q 318 296 318 303 q 310 235 318 263 q 289 182 302 206 q 258 137 275 157 q 221 100 240 117 q 255 83 239 95 q 281 52 271 71 q 378 127 332 90 q 460 200 423 165 l 492 165 m -102 -412 q -54 -389 -83 -412 q 7 -327 -24 -366 q 71 -241 39 -289 q 125 -143 102 -193 q 33 -221 76 -184 q -41 -292 -9 -259 q -90 -354 -72 -326 q -107 -407 -107 -383 q -102 -412 -107 -412 z "},"":{"ha":708,"x_min":-282,"x_max":714,"o":"m 431 -37 q 405 -30 420 -37 q 375 -13 389 -23 q 351 11 361 -2 q 340 36 340 24 q 349 71 344 52 q 359 111 353 90 q 192 -8 277 38 q 12 -79 106 -54 q -44 -249 -15 -159 q -104 -443 -73 -340 l -282 -501 q -216 -300 -248 -397 q -153 -111 -184 -203 q -196 -117 -174 -115 q -241 -121 -218 -119 l -252 -52 l -126 -37 q 31 367 -47 186 q 187 680 108 547 q 349 892 267 812 q 522 996 432 972 q 548 986 534 993 q 574 969 562 979 q 599 949 587 960 q 618 929 610 939 q 623 922 621 926 q 624 909 624 918 q 606 817 624 867 q 556 711 588 766 q 479 598 524 656 q 381 483 434 540 q 267 371 328 425 q 143 268 207 316 q 94 143 120 212 q 39 -5 68 75 q 129 24 87 7 q 213 67 172 42 q 298 126 255 92 q 390 204 341 159 q 416 275 403 241 q 440 337 429 310 q 459 380 451 363 q 469 396 467 396 q 490 387 473 396 q 525 366 507 378 q 557 339 543 353 q 571 315 571 326 q 565 283 571 304 q 548 236 558 262 q 527 182 538 210 q 506 128 516 153 q 490 84 496 103 q 484 57 484 64 q 488 53 484 53 q 510 62 495 53 q 544 85 525 71 q 585 116 564 99 q 625 150 606 133 q 660 180 644 166 q 684 200 675 193 l 714 167 q 677 131 699 152 q 628 87 654 109 q 574 42 602 64 q 519 2 546 20 q 469 -26 492 -16 q 431 -37 446 -37 m 273 553 q 255 517 266 538 q 233 473 245 500 q 203 408 220 446 q 294 500 250 452 q 376 599 338 549 q 445 696 414 648 q 499 786 477 744 q 534 862 522 828 q 546 918 546 897 q 539 928 546 928 q 505 907 526 928 q 452 842 484 887 q 376 726 420 798 q 273 553 332 655 m 699 603 q 693 590 698 600 q 683 565 689 579 q 669 536 677 551 q 654 508 661 521 q 640 487 646 495 q 629 478 633 478 q 600 486 617 479 q 567 501 583 492 q 539 517 551 509 q 528 529 528 526 q 536 566 528 543 q 555 610 544 589 q 577 647 566 631 q 595 663 589 663 q 625 655 607 663 q 659 637 642 647 q 687 617 675 627 q 699 603 699 607 z "},"":{"ha":789,"x_min":-279,"x_max":964,"o":"m 532 47 q 561 57 543 47 q 603 81 580 66 q 649 113 625 96 q 695 148 673 131 q 733 179 717 165 q 758 200 750 193 l 789 167 q 751 131 774 152 q 703 87 729 109 q 649 42 677 64 q 594 2 621 20 q 545 -26 568 -16 q 505 -37 522 -37 q 462 -23 485 -37 q 419 12 439 -8 q 385 52 399 32 q 370 82 372 72 q 367 94 368 86 q 366 113 366 101 q 281 46 323 75 q 195 -7 239 16 q 107 -48 152 -30 q 16 -79 62 -66 q -41 -249 -12 -159 q -102 -443 -70 -340 l -279 -501 q -214 -301 -245 -398 q -151 -113 -183 -203 l -239 -121 l -249 -52 q -184 -44 -214 -48 q -125 -37 -153 -41 q 28 367 -47 186 q 180 680 103 547 q 339 892 258 812 q 511 996 421 972 q 537 986 524 993 q 563 969 550 979 q 588 949 576 960 q 607 929 599 939 q 611 922 610 926 q 612 909 612 918 q 596 836 612 878 q 549 745 579 794 q 477 641 519 695 q 387 531 436 587 q 281 421 337 475 q 167 318 225 367 q 109 174 141 255 q 41 -5 77 94 q 127 23 87 7 q 208 63 168 40 q 288 117 248 86 q 375 187 329 147 q 393 269 382 225 q 418 357 404 313 q 448 443 432 401 q 479 518 464 484 q 564 678 521 608 q 648 800 607 748 q 725 887 688 852 q 792 944 762 922 q 842 975 822 966 q 871 985 863 985 q 897 971 884 980 q 922 951 910 962 q 943 931 934 941 q 956 917 951 922 q 962 906 961 911 q 964 893 964 901 q 956 848 964 877 q 925 776 947 820 q 863 671 903 732 q 760 529 823 610 q 699 455 732 492 q 636 384 671 422 q 562 309 601 345 q 529 172 539 231 q 519 81 519 113 q 523 54 519 60 q 532 47 526 47 m 277 553 q 266 534 272 545 q 253 511 260 525 q 237 478 246 497 q 316 564 278 520 q 387 651 354 608 q 448 735 420 694 q 494 810 475 775 q 524 873 513 845 q 534 918 534 901 q 528 928 534 928 q 496 907 515 928 q 448 842 477 887 q 377 726 418 798 q 277 553 335 655 m 648 545 q 630 503 639 523 q 614 461 621 482 q 647 502 632 483 q 672 534 661 521 q 694 564 684 551 q 776 686 742 630 q 833 784 810 741 q 866 854 855 826 q 876 895 876 882 q 876 900 876 898 q 872 901 876 901 q 846 881 866 901 q 796 818 826 861 q 728 707 766 774 q 648 545 690 640 z "},"":{"ha":562,"x_min":-292,"x_max":614,"o":"m 608 929 q 613 922 612 926 q 614 909 614 918 q 604 807 614 857 q 571 709 593 758 q 515 609 549 660 q 431 503 480 558 q 371 408 386 452 q 355 321 355 363 q 358 276 355 298 q 365 233 361 254 q 372 193 369 212 q 375 154 375 173 q 368 104 375 132 q 343 53 361 76 q 411 99 378 74 q 472 147 445 125 q 532 200 504 174 l 562 164 q 514 120 540 143 q 459 73 488 96 q 402 30 431 50 q 345 -7 373 9 q 290 -32 316 -22 q 240 -41 263 -41 q 197 -32 220 -41 q 152 -9 173 -22 q 116 20 131 5 q 97 45 100 35 q 100 51 97 46 q 106 60 102 55 q 114 68 110 64 q 119 72 117 72 q 136 66 123 72 q 176 60 149 60 q 204 68 192 60 q 223 90 216 76 q 235 121 231 103 q 239 158 239 138 q 237 197 239 177 q 233 237 235 218 q 229 273 231 256 q 227 301 227 290 q 240 375 227 340 q 275 441 253 410 q 325 504 297 473 q 381 568 353 535 q 438 636 410 600 q 488 715 466 673 q 523 808 510 758 q 536 918 536 858 q 529 928 536 928 q 498 907 519 928 q 446 842 478 887 q 369 726 414 798 q 267 553 325 655 q 157 322 217 463 q 37 13 106 202 q -114 -443 -33 -176 l -292 -501 q -156 -96 -223 -286 q -21 255 -88 94 q 113 546 46 416 q 245 770 179 675 q 378 922 312 865 q 513 996 445 979 q 538 986 525 993 q 565 969 551 979 q 589 949 578 960 q 608 929 600 939 z "},"":{"ha":835,"x_min":-14,"x_max":876,"o":"m 876 867 q 863 796 876 835 q 828 716 850 757 q 779 633 807 675 q 722 555 751 592 q 753 523 739 538 q 774 504 768 509 q 748 456 764 488 q 712 385 731 425 q 674 300 694 345 q 640 212 655 255 q 614 131 624 169 q 604 66 604 92 q 613 3 604 33 q 641 -48 623 -26 q 685 -84 659 -70 q 747 -103 712 -99 l 714 -147 q 689 -143 706 -147 q 651 -131 672 -140 q 607 -106 630 -121 q 564 -66 584 -90 q 528 -8 543 -42 q 506 71 512 25 q 436 3 473 37 q 358 -56 398 -30 q 277 -99 318 -83 q 197 -115 236 -115 q 152 -103 175 -115 q 105 -71 128 -91 q 62 -24 83 -51 q 25 30 41 2 q -1 86 9 58 q -14 138 -12 114 q -13 159 -14 146 q -12 185 -13 172 q -11 212 -12 199 q -8 235 -9 224 q 24 362 2 295 q 79 498 47 429 q 152 636 111 568 q 240 767 193 705 q 340 883 288 829 q 449 975 393 936 q 563 1036 505 1014 q 679 1059 621 1059 q 721 1048 699 1059 q 765 1022 743 1038 q 807 985 787 1006 q 843 943 827 964 q 867 902 858 922 q 876 867 876 882 m 170 3 q 207 18 182 3 q 265 60 232 33 q 336 129 298 88 q 414 221 375 170 q 492 333 454 272 q 564 465 530 395 l 484 545 q 519 577 495 557 q 574 625 544 597 q 635 687 604 653 q 693 761 667 722 q 736 845 719 801 q 753 936 753 888 q 742 976 753 962 q 724 990 732 990 q 636 961 684 990 q 540 883 589 932 q 440 768 490 834 q 345 628 391 703 q 259 475 299 553 q 191 321 220 396 q 144 178 161 245 q 127 58 127 110 q 170 3 127 3 m 806 1141 q 777 1129 790 1133 q 743 1120 763 1125 q 721 1160 733 1137 q 695 1208 708 1182 q 669 1263 682 1234 q 645 1324 656 1293 q 707 1344 680 1337 q 749 1353 735 1351 l 806 1141 l 806 1141 z "},"":{"ha":574,"x_min":-97,"x_max":575,"o":"m 350 60 q 354 56 350 56 q 374 64 360 56 q 407 87 389 73 q 446 117 425 100 q 486 151 467 134 q 520 180 505 167 q 543 201 535 194 q 558 185 549 195 q 575 167 568 175 q 536 131 559 152 q 487 86 513 109 q 433 40 461 63 q 379 0 406 18 q 329 -29 353 -18 q 288 -40 305 -40 q 261 -35 275 -40 q 234 -22 246 -31 q 214 -2 222 -14 q 205 24 205 9 q 205 37 205 29 q 206 57 205 45 q 212 88 208 70 q 224 132 216 106 q 171 83 201 109 q 108 34 141 57 q 41 -8 75 11 q -21 -36 7 -26 q -26 -37 -24 -37 q -31 -37 -28 -37 q -48 -31 -37 -37 q -71 -13 -60 -24 q -89 13 -81 -1 q -97 41 -97 27 q -93 68 -97 45 q -74 127 -89 92 q -28 207 -58 163 q 53 298 1 252 q 110 343 79 322 q 169 379 136 361 q 239 408 202 397 q 241 409 240 408 q 244 408 242 410 q 263 400 252 406 q 286 388 275 394 q 306 375 297 381 q 317 364 314 368 q 317 362 317 363 l 315 361 q 258 325 285 345 q 210 287 231 304 q 164 245 185 266 q 96 161 115 197 q 77 110 77 125 q 86 98 77 98 q 110 106 96 98 q 143 127 125 114 q 183 158 161 140 q 229 196 205 176 q 270 233 250 213 q 305 270 287 249 q 336 313 323 291 q 337 314 336 313 q 339 314 338 315 q 356 296 347 309 q 374 269 366 283 q 388 240 382 254 q 393 218 393 226 q 369 160 378 186 q 356 115 361 134 q 351 81 352 95 q 350 60 350 67 m 374 485 q 345 473 358 477 q 311 464 331 469 q 289 504 301 481 q 263 552 276 526 q 237 608 250 578 q 213 668 224 637 q 275 688 248 681 q 317 697 303 695 l 374 485 l 374 485 z "},"":{"ha":835,"x_min":-14,"x_max":913,"o":"m 876 867 q 863 796 876 835 q 828 716 850 757 q 779 633 807 675 q 722 555 751 592 q 753 523 739 538 q 774 504 768 509 q 748 456 764 488 q 712 385 731 425 q 674 300 694 345 q 640 212 655 255 q 614 131 624 169 q 604 66 604 92 q 613 3 604 33 q 641 -48 623 -26 q 685 -84 659 -70 q 747 -103 712 -99 l 714 -147 q 689 -143 706 -147 q 651 -131 672 -140 q 607 -106 630 -121 q 564 -66 584 -90 q 528 -8 543 -42 q 506 71 512 25 q 436 3 473 37 q 358 -56 398 -30 q 277 -99 318 -83 q 197 -115 236 -115 q 152 -103 175 -115 q 105 -71 128 -91 q 62 -24 83 -51 q 25 30 41 2 q -1 86 9 58 q -14 138 -12 114 q -13 159 -14 146 q -12 185 -13 172 q -11 212 -12 199 q -8 235 -9 224 q 24 362 2 295 q 79 498 47 429 q 152 636 111 568 q 240 767 193 705 q 340 883 288 829 q 449 975 393 936 q 563 1036 505 1014 q 679 1059 621 1059 q 721 1048 699 1059 q 765 1022 743 1038 q 807 985 787 1006 q 843 943 827 964 q 867 902 858 922 q 876 867 876 882 m 170 3 q 207 18 182 3 q 265 60 232 33 q 336 129 298 88 q 414 221 375 170 q 492 333 454 272 q 564 465 530 395 l 484 545 q 519 577 495 557 q 574 625 544 597 q 635 687 604 653 q 693 761 667 722 q 736 845 719 801 q 753 936 753 888 q 742 976 753 962 q 724 990 732 990 q 636 961 684 990 q 540 883 589 932 q 440 768 490 834 q 345 628 391 703 q 259 475 299 553 q 191 321 220 396 q 144 178 161 245 q 127 58 127 110 q 170 3 127 3 m 913 1286 q 831 1198 875 1240 q 742 1120 787 1156 q 731 1127 739 1122 q 717 1139 724 1133 q 703 1152 709 1146 q 693 1161 696 1158 q 731 1211 710 1182 q 772 1267 752 1239 q 807 1319 791 1295 q 829 1354 823 1342 q 857 1337 844 1348 q 881 1316 870 1326 q 901 1298 892 1306 q 913 1286 909 1289 z "},"":{"ha":574,"x_min":-97,"x_max":575,"o":"m 350 60 q 354 56 350 56 q 374 64 360 56 q 407 87 389 73 q 446 117 425 100 q 486 151 467 134 q 520 180 505 167 q 543 201 535 194 q 558 185 549 195 q 575 167 568 175 q 536 131 559 152 q 487 86 513 109 q 433 40 461 63 q 379 0 406 18 q 329 -29 353 -18 q 288 -40 305 -40 q 261 -35 275 -40 q 234 -22 246 -31 q 214 -2 222 -14 q 205 24 205 9 q 205 37 205 29 q 206 57 205 45 q 212 88 208 70 q 224 132 216 106 q 171 83 201 109 q 108 34 141 57 q 41 -8 75 11 q -21 -36 7 -26 q -26 -37 -24 -37 q -31 -37 -28 -37 q -48 -31 -37 -37 q -71 -13 -60 -24 q -89 13 -81 -1 q -97 41 -97 27 q -93 68 -97 45 q -74 127 -89 92 q -28 207 -58 163 q 53 298 1 252 q 110 343 79 322 q 169 379 136 361 q 239 408 202 397 q 241 409 240 408 q 244 408 242 410 q 263 400 252 406 q 286 388 275 394 q 306 375 297 381 q 317 364 314 368 q 317 362 317 363 l 315 361 q 258 325 285 345 q 210 287 231 304 q 164 245 185 266 q 96 161 115 197 q 77 110 77 125 q 86 98 77 98 q 110 106 96 98 q 143 127 125 114 q 183 158 161 140 q 229 196 205 176 q 270 233 250 213 q 305 270 287 249 q 336 313 323 291 q 337 314 336 313 q 339 314 338 315 q 356 296 347 309 q 374 269 366 283 q 388 240 382 254 q 393 218 393 226 q 369 160 378 186 q 356 115 361 134 q 351 81 352 95 q 350 60 350 67 m 481 631 q 399 542 443 584 q 310 464 355 500 q 299 471 307 466 q 285 484 292 477 q 271 496 277 490 q 261 505 264 502 q 299 555 278 526 q 340 611 320 583 q 375 663 359 640 q 397 699 391 686 q 425 681 412 692 q 449 661 438 671 q 469 642 460 650 q 481 631 477 633 z "},"":{"ha":835,"x_min":-14,"x_max":886,"o":"m 876 867 q 863 796 876 835 q 828 716 850 757 q 779 633 807 675 q 722 555 751 592 q 753 523 739 538 q 774 504 768 509 q 748 456 764 488 q 712 385 731 425 q 674 300 694 345 q 640 212 655 255 q 614 131 624 169 q 604 66 604 92 q 613 3 604 33 q 641 -48 623 -26 q 685 -84 659 -70 q 747 -103 712 -99 l 714 -147 q 689 -143 706 -147 q 651 -131 672 -140 q 607 -106 630 -121 q 564 -66 584 -90 q 528 -8 543 -42 q 506 71 512 25 q 436 3 473 37 q 358 -56 398 -30 q 277 -99 318 -83 q 197 -115 236 -115 q 152 -103 175 -115 q 105 -71 128 -91 q 62 -24 83 -51 q 25 30 41 2 q -1 86 9 58 q -14 138 -12 114 q -13 159 -14 146 q -12 185 -13 172 q -11 212 -12 199 q -8 235 -9 224 q 24 362 2 295 q 79 498 47 429 q 152 636 111 568 q 240 767 193 705 q 340 883 288 829 q 449 975 393 936 q 563 1036 505 1014 q 679 1059 621 1059 q 721 1048 699 1059 q 765 1022 743 1038 q 807 985 787 1006 q 843 943 827 964 q 867 902 858 922 q 876 867 876 882 m 170 3 q 207 18 182 3 q 265 60 232 33 q 336 129 298 88 q 414 221 375 170 q 492 333 454 272 q 564 465 530 395 l 484 545 q 519 577 495 557 q 574 625 544 597 q 635 687 604 653 q 693 761 667 722 q 736 845 719 801 q 753 936 753 888 q 742 976 753 962 q 724 990 732 990 q 636 961 684 990 q 540 883 589 932 q 440 768 490 834 q 345 628 391 703 q 259 475 299 553 q 191 321 220 396 q 144 178 161 245 q 127 58 127 110 q 170 3 127 3 m 886 1132 q 850 1126 869 1128 q 811 1120 832 1123 q 791 1178 802 1145 q 774 1247 781 1211 q 705 1189 739 1217 q 627 1126 671 1161 q 611 1145 619 1137 q 591 1166 602 1153 q 639 1211 614 1187 q 688 1259 664 1235 q 733 1304 711 1282 q 772 1343 755 1326 q 823 1331 803 1339 q 861 1313 844 1323 q 866 1269 863 1294 q 873 1218 869 1244 q 880 1170 876 1193 q 886 1132 883 1147 z "},"":{"ha":574,"x_min":-97,"x_max":575,"o":"m 350 60 q 354 56 350 56 q 374 64 360 56 q 407 87 389 73 q 446 117 425 100 q 486 151 467 134 q 520 180 505 167 q 543 201 535 194 q 558 185 549 195 q 575 167 568 175 q 536 131 559 152 q 487 86 513 109 q 433 40 461 63 q 379 0 406 18 q 329 -29 353 -18 q 288 -40 305 -40 q 261 -35 275 -40 q 234 -22 246 -31 q 214 -2 222 -14 q 205 24 205 9 q 205 37 205 29 q 206 57 205 45 q 212 88 208 70 q 224 132 216 106 q 171 83 201 109 q 108 34 141 57 q 41 -8 75 11 q -21 -36 7 -26 q -26 -37 -24 -37 q -31 -37 -28 -37 q -48 -31 -37 -37 q -71 -13 -60 -24 q -89 13 -81 -1 q -97 41 -97 27 q -93 68 -97 45 q -74 127 -89 92 q -28 207 -58 163 q 53 298 1 252 q 110 343 79 322 q 169 379 136 361 q 239 408 202 397 q 241 409 240 408 q 244 408 242 410 q 263 400 252 406 q 286 388 275 394 q 306 375 297 381 q 317 364 314 368 q 317 362 317 363 l 315 361 q 258 325 285 345 q 210 287 231 304 q 164 245 185 266 q 96 161 115 197 q 77 110 77 125 q 86 98 77 98 q 110 106 96 98 q 143 127 125 114 q 183 158 161 140 q 229 196 205 176 q 270 233 250 213 q 305 270 287 249 q 336 313 323 291 q 337 314 336 313 q 339 314 338 315 q 356 296 347 309 q 374 269 366 283 q 388 240 382 254 q 393 218 393 226 q 369 160 378 186 q 356 115 361 134 q 351 81 352 95 q 350 60 350 67 m 454 476 q 418 470 437 473 q 379 464 400 467 q 359 522 370 490 q 342 591 349 555 q 273 533 307 562 q 195 471 239 505 q 179 489 187 481 q 159 510 170 497 q 207 555 182 531 q 256 603 232 579 q 301 648 279 627 q 340 688 323 670 q 391 675 371 684 q 429 657 412 667 q 434 613 431 638 q 441 563 437 588 q 448 514 444 537 q 454 476 451 491 z "},"":{"ha":835,"x_min":-14,"x_max":970,"o":"m 876 867 q 863 796 876 835 q 828 716 850 757 q 779 633 807 675 q 722 555 751 592 q 753 523 739 538 q 774 504 768 509 q 748 456 764 488 q 712 385 731 425 q 674 300 694 345 q 640 212 655 255 q 614 131 624 169 q 604 66 604 92 q 613 3 604 33 q 641 -48 623 -26 q 685 -84 659 -70 q 747 -103 712 -99 l 714 -147 q 689 -143 706 -147 q 651 -131 672 -140 q 607 -106 630 -121 q 564 -66 584 -90 q 528 -8 543 -42 q 506 71 512 25 q 436 3 473 37 q 358 -56 398 -30 q 277 -99 318 -83 q 197 -115 236 -115 q 152 -103 175 -115 q 105 -71 128 -91 q 62 -24 83 -51 q 25 30 41 2 q -1 86 9 58 q -14 138 -12 114 q -13 159 -14 146 q -12 185 -13 172 q -11 212 -12 199 q -8 235 -9 224 q 24 362 2 295 q 79 498 47 429 q 152 636 111 568 q 240 767 193 705 q 340 883 288 829 q 449 975 393 936 q 563 1036 505 1014 q 679 1059 621 1059 q 721 1048 699 1059 q 765 1022 743 1038 q 807 985 787 1006 q 843 943 827 964 q 867 902 858 922 q 876 867 876 882 m 170 3 q 207 18 182 3 q 265 60 232 33 q 336 129 298 88 q 414 221 375 170 q 492 333 454 272 q 564 465 530 395 l 484 545 q 519 577 495 557 q 574 625 544 597 q 635 687 604 653 q 693 761 667 722 q 736 845 719 801 q 753 936 753 888 q 742 976 753 962 q 724 990 732 990 q 636 961 684 990 q 540 883 589 932 q 440 768 490 834 q 345 628 391 703 q 259 475 299 553 q 191 321 220 396 q 144 178 161 245 q 127 58 127 110 q 170 3 127 3 m 845 1236 q 867 1241 856 1236 q 887 1254 878 1246 q 906 1271 897 1261 q 922 1291 915 1280 q 946 1276 935 1284 q 970 1260 956 1268 q 943 1223 959 1243 q 907 1185 928 1202 q 861 1155 886 1167 q 806 1143 836 1143 q 779 1155 794 1143 q 748 1181 764 1166 q 718 1207 732 1195 q 693 1219 703 1219 q 675 1214 686 1219 q 653 1201 665 1209 q 630 1182 642 1193 q 610 1160 619 1171 q 583 1179 592 1171 q 563 1196 574 1187 q 594 1232 576 1212 q 634 1270 612 1252 q 681 1299 656 1287 q 731 1312 705 1312 q 757 1300 742 1312 q 788 1274 772 1288 q 819 1248 804 1260 q 845 1236 834 1236 z "},"":{"ha":574,"x_min":-97,"x_max":575,"o":"m 350 60 q 354 56 350 56 q 374 64 360 56 q 407 87 389 73 q 446 117 425 100 q 486 151 467 134 q 520 180 505 167 q 543 201 535 194 q 558 185 549 195 q 575 167 568 175 q 536 131 559 152 q 487 86 513 109 q 433 40 461 63 q 379 0 406 18 q 329 -29 353 -18 q 288 -40 305 -40 q 261 -35 275 -40 q 234 -22 246 -31 q 214 -2 222 -14 q 205 24 205 9 q 205 37 205 29 q 206 57 205 45 q 212 88 208 70 q 224 132 216 106 q 171 83 201 109 q 108 34 141 57 q 41 -8 75 11 q -21 -36 7 -26 q -26 -37 -24 -37 q -31 -37 -28 -37 q -48 -31 -37 -37 q -71 -13 -60 -24 q -89 13 -81 -1 q -97 41 -97 27 q -93 68 -97 45 q -74 127 -89 92 q -28 207 -58 163 q 53 298 1 252 q 110 343 79 322 q 169 379 136 361 q 239 408 202 397 q 241 409 240 408 q 244 408 242 410 q 263 400 252 406 q 286 388 275 394 q 306 375 297 381 q 317 364 314 368 q 317 362 317 363 l 315 361 q 258 325 285 345 q 210 287 231 304 q 164 245 185 266 q 96 161 115 197 q 77 110 77 125 q 86 98 77 98 q 110 106 96 98 q 143 127 125 114 q 183 158 161 140 q 229 196 205 176 q 270 233 250 213 q 305 270 287 249 q 336 313 323 291 q 337 314 336 313 q 339 314 338 315 q 356 296 347 309 q 374 269 366 283 q 388 240 382 254 q 393 218 393 226 q 369 160 378 186 q 356 115 361 134 q 351 81 352 95 q 350 60 350 67 m 413 581 q 435 585 424 581 q 455 598 446 590 q 474 615 465 606 q 490 635 483 625 q 514 621 503 629 q 538 604 524 612 q 511 567 527 587 q 475 529 496 547 q 429 499 454 511 q 374 488 404 488 q 347 499 362 488 q 316 525 332 511 q 286 551 300 539 q 261 564 271 563 q 243 558 254 564 q 221 545 233 553 q 198 526 210 537 q 178 504 187 515 q 151 524 160 515 q 131 541 142 532 q 162 576 144 556 q 202 614 180 596 q 249 644 224 631 q 299 656 273 656 q 325 644 310 656 q 356 618 340 632 q 387 592 372 604 q 413 581 402 581 z "},"":{"ha":835,"x_min":-14,"x_max":938,"o":"m 876 867 q 863 796 876 835 q 828 716 850 757 q 779 633 807 675 q 722 555 751 592 q 753 523 739 538 q 774 504 768 509 q 748 456 764 488 q 712 385 731 425 q 674 300 694 345 q 640 212 655 255 q 614 131 624 169 q 604 66 604 92 q 613 3 604 33 q 641 -48 623 -26 q 685 -84 659 -70 q 747 -103 712 -99 l 714 -147 q 689 -143 706 -147 q 651 -131 672 -140 q 607 -106 630 -121 q 564 -66 584 -90 q 528 -8 543 -42 q 506 71 512 25 q 436 3 473 37 q 358 -56 398 -30 q 277 -99 318 -83 q 197 -115 236 -115 q 152 -103 175 -115 q 105 -71 128 -91 q 62 -24 83 -51 q 25 30 41 2 q -1 86 9 58 q -14 138 -12 114 q -13 159 -14 146 q -12 185 -13 172 q -11 212 -12 199 q -8 235 -9 224 q 24 362 2 295 q 79 498 47 429 q 152 636 111 568 q 240 767 193 705 q 340 883 288 829 q 449 975 393 936 q 563 1036 505 1014 q 679 1059 621 1059 q 721 1048 699 1059 q 765 1022 743 1038 q 807 985 787 1006 q 843 943 827 964 q 867 902 858 922 q 876 867 876 882 m 170 3 q 207 18 182 3 q 265 60 232 33 q 336 129 298 88 q 414 221 375 170 q 492 333 454 272 q 564 465 530 395 l 484 545 q 519 577 495 557 q 574 625 544 597 q 635 687 604 653 q 693 761 667 722 q 736 845 719 801 q 753 936 753 888 q 742 976 753 962 q 724 990 732 990 q 636 961 684 990 q 540 883 589 932 q 440 768 490 834 q 345 628 391 703 q 259 475 299 553 q 191 321 220 396 q 144 178 161 245 q 127 58 127 110 q 170 3 127 3 m 743 1255 q 735 1234 743 1251 q 716 1199 727 1217 q 696 1167 706 1181 q 681 1153 686 1153 q 660 1160 676 1153 q 626 1175 644 1166 q 595 1193 609 1184 q 582 1204 582 1201 q 590 1234 582 1215 q 608 1271 597 1253 q 627 1303 618 1290 q 640 1317 637 1317 q 666 1309 649 1317 q 701 1289 684 1300 q 730 1268 718 1278 q 743 1255 743 1258 m 938 1240 q 930 1220 938 1236 q 911 1186 922 1204 q 890 1154 901 1168 q 876 1139 880 1139 q 854 1146 871 1139 q 821 1161 838 1152 q 790 1178 804 1170 q 777 1190 777 1187 q 784 1219 777 1200 q 802 1257 792 1238 q 822 1289 812 1276 q 835 1303 831 1303 q 861 1294 844 1303 q 895 1275 878 1286 q 925 1255 912 1265 q 938 1240 938 1244 z "},"":{"ha":574,"x_min":-97,"x_max":575,"o":"m 350 60 q 354 56 350 56 q 374 64 360 56 q 407 87 389 73 q 446 117 425 100 q 486 151 467 134 q 520 180 505 167 q 543 201 535 194 q 558 185 549 195 q 575 167 568 175 q 536 131 559 152 q 487 86 513 109 q 433 40 461 63 q 379 0 406 18 q 329 -29 353 -18 q 288 -40 305 -40 q 261 -35 275 -40 q 234 -22 246 -31 q 214 -2 222 -14 q 205 24 205 9 q 205 37 205 29 q 206 57 205 45 q 212 88 208 70 q 224 132 216 106 q 171 83 201 109 q 108 34 141 57 q 41 -8 75 11 q -21 -36 7 -26 q -26 -37 -24 -37 q -31 -37 -28 -37 q -48 -31 -37 -37 q -71 -13 -60 -24 q -89 13 -81 -1 q -97 41 -97 27 q -93 68 -97 45 q -74 127 -89 92 q -28 207 -58 163 q 53 298 1 252 q 110 343 79 322 q 169 379 136 361 q 239 408 202 397 q 241 409 240 408 q 244 408 242 410 q 263 400 252 406 q 286 388 275 394 q 306 375 297 381 q 317 364 314 368 q 317 362 317 363 l 315 361 q 258 325 285 345 q 210 287 231 304 q 164 245 185 266 q 96 161 115 197 q 77 110 77 125 q 86 98 77 98 q 110 106 96 98 q 143 127 125 114 q 183 158 161 140 q 229 196 205 176 q 270 233 250 213 q 305 270 287 249 q 336 313 323 291 q 337 314 336 313 q 339 314 338 315 q 356 296 347 309 q 374 269 366 283 q 388 240 382 254 q 393 218 393 226 q 369 160 378 186 q 356 115 361 134 q 351 81 352 95 q 350 60 350 67 m 311 599 q 303 578 311 595 q 284 544 295 562 q 264 511 274 526 q 249 497 254 497 q 228 504 244 497 q 194 519 212 511 q 163 537 177 528 q 150 549 150 545 q 158 578 150 559 q 176 615 165 597 q 195 648 186 634 q 208 661 205 661 q 234 653 217 661 q 269 633 252 644 q 298 612 286 623 q 311 599 311 602 m 506 585 q 498 564 506 581 q 479 530 490 548 q 458 498 469 512 q 444 484 448 484 q 422 490 439 484 q 389 505 406 496 q 358 523 372 514 q 345 534 345 531 q 352 564 345 545 q 370 601 360 583 q 390 633 380 620 q 403 647 399 647 q 429 638 412 647 q 463 620 446 630 q 493 599 480 609 q 506 585 506 589 z "},"":{"ha":835,"x_min":-14,"x_max":876,"o":"m 876 867 q 863 796 876 835 q 828 716 850 757 q 779 633 807 675 q 722 555 751 592 q 753 523 739 538 q 774 504 768 509 q 748 456 764 488 q 712 385 731 425 q 674 300 694 345 q 640 212 655 255 q 614 131 624 169 q 604 66 604 92 q 613 3 604 33 q 641 -48 623 -26 q 685 -84 659 -70 q 747 -103 712 -99 l 714 -147 q 689 -143 706 -147 q 651 -131 672 -140 q 607 -106 630 -121 q 564 -66 584 -90 q 528 -8 543 -42 q 506 71 512 25 q 436 3 473 37 q 358 -56 398 -30 q 277 -99 318 -83 q 197 -115 236 -115 q 152 -103 175 -115 q 105 -71 128 -91 q 62 -24 83 -51 q 25 30 41 2 q -1 86 9 58 q -14 138 -12 114 q -13 159 -14 146 q -12 185 -13 172 q -11 212 -12 199 q -8 235 -9 224 q 24 362 2 295 q 79 498 47 429 q 152 636 111 568 q 240 767 193 705 q 340 883 288 829 q 449 975 393 936 q 563 1036 505 1014 q 679 1059 621 1059 q 721 1048 699 1059 q 765 1022 743 1038 q 807 985 787 1006 q 843 943 827 964 q 867 902 858 922 q 876 867 876 882 m 170 3 q 207 18 182 3 q 265 60 232 33 q 336 129 298 88 q 414 221 375 170 q 492 333 454 272 q 564 465 530 395 l 484 545 q 519 577 495 557 q 574 625 544 597 q 635 687 604 653 q 693 761 667 722 q 736 845 719 801 q 753 936 753 888 q 742 976 753 962 q 724 990 732 990 q 636 961 684 990 q 540 883 589 932 q 440 768 490 834 q 345 628 391 703 q 259 475 299 553 q 191 321 220 396 q 144 178 161 245 q 127 58 127 110 q 170 3 127 3 m 873 1255 q 859 1197 873 1224 q 823 1150 845 1171 q 772 1118 800 1130 q 717 1106 744 1106 q 685 1114 702 1106 q 652 1135 667 1122 q 628 1164 637 1147 q 618 1198 618 1180 q 629 1255 618 1227 q 661 1306 640 1284 q 709 1343 681 1329 q 770 1357 736 1357 q 802 1348 784 1357 q 836 1325 820 1339 q 863 1292 852 1310 q 873 1255 873 1274 m 796 1312 q 765 1300 781 1312 q 736 1269 749 1288 q 714 1226 723 1250 q 705 1178 705 1202 q 708 1165 705 1170 q 720 1160 710 1160 q 751 1170 735 1160 q 781 1198 768 1181 q 803 1239 794 1216 q 811 1288 811 1262 q 796 1312 811 1312 z "},"":{"ha":574,"x_min":-97,"x_max":575,"o":"m 350 60 q 354 56 350 56 q 374 64 360 56 q 407 87 389 73 q 446 117 425 100 q 486 151 467 134 q 520 180 505 167 q 543 201 535 194 q 558 185 549 195 q 575 167 568 175 q 536 131 559 152 q 487 86 513 109 q 433 40 461 63 q 379 0 406 18 q 329 -29 353 -18 q 288 -40 305 -40 q 261 -35 275 -40 q 234 -22 246 -31 q 214 -2 222 -14 q 205 24 205 9 q 205 37 205 29 q 206 57 205 45 q 212 88 208 70 q 224 132 216 106 q 171 83 201 109 q 108 34 141 57 q 41 -8 75 11 q -21 -36 7 -26 q -26 -37 -24 -37 q -31 -37 -28 -37 q -48 -31 -37 -37 q -71 -13 -60 -24 q -89 13 -81 -1 q -97 41 -97 27 q -93 68 -97 45 q -74 127 -89 92 q -28 207 -58 163 q 53 298 1 252 q 110 343 79 322 q 169 379 136 361 q 239 408 202 397 q 241 409 240 408 q 244 408 242 410 q 263 400 252 406 q 286 388 275 394 q 306 375 297 381 q 317 364 314 368 q 317 362 317 363 l 315 361 q 258 325 285 345 q 210 287 231 304 q 164 245 185 266 q 96 161 115 197 q 77 110 77 125 q 86 98 77 98 q 110 106 96 98 q 143 127 125 114 q 183 158 161 140 q 229 196 205 176 q 270 233 250 213 q 305 270 287 249 q 336 313 323 291 q 337 314 336 313 q 339 314 338 315 q 356 296 347 309 q 374 269 366 283 q 388 240 382 254 q 393 218 393 226 q 369 160 378 186 q 356 115 361 134 q 351 81 352 95 q 350 60 350 67 m 441 599 q 427 542 441 568 q 391 494 413 515 q 340 462 368 474 q 285 450 312 450 q 253 458 270 450 q 220 479 235 466 q 196 508 205 492 q 186 542 186 524 q 197 600 186 571 q 229 651 208 628 q 277 687 249 673 q 338 701 304 701 q 370 692 352 701 q 404 669 388 684 q 431 636 420 654 q 441 599 441 618 m 364 656 q 333 644 349 656 q 304 613 317 632 q 282 570 291 594 q 273 522 273 546 q 276 509 273 514 q 288 504 278 504 q 319 514 303 504 q 349 543 336 525 q 371 583 362 560 q 379 632 379 606 q 364 656 379 656 z "},"":{"ha":1251,"x_min":-14,"x_max":1325,"o":"m 1059 660 q 1109 712 1084 681 q 1152 778 1133 743 q 1183 848 1171 812 q 1194 916 1194 884 q 1182 958 1194 941 q 1139 975 1170 975 q 1081 963 1113 975 q 1017 929 1049 951 q 953 879 984 908 q 899 814 922 849 q 860 742 875 780 q 846 665 846 704 q 854 608 846 632 q 877 565 862 584 q 915 531 892 547 q 965 498 937 515 q 808 410 880 463 q 685 296 736 357 q 605 171 634 235 q 576 46 576 106 q 586 9 576 25 q 618 -7 596 -7 q 682 9 646 -7 q 755 50 718 24 q 831 106 793 75 q 903 169 869 137 q 964 229 937 200 q 1006 277 990 257 q 1076 219 1046 244 q 1132 172 1106 193 q 1094 129 1120 157 q 1030 69 1067 101 q 949 4 993 37 q 860 -55 905 -28 q 771 -98 815 -81 q 690 -115 727 -115 q 622 -103 656 -115 q 559 -71 589 -91 q 504 -25 529 -51 q 463 28 479 1 q 400 -26 433 0 q 333 -72 367 -52 q 264 -103 298 -92 q 197 -115 230 -115 q 152 -103 175 -115 q 105 -71 128 -91 q 62 -24 83 -51 q 25 30 41 2 q -1 86 9 58 q -14 138 -12 114 q -13 159 -14 146 q -12 185 -13 172 q -11 212 -12 199 q -8 235 -9 224 q 24 362 2 295 q 79 498 47 429 q 152 636 111 568 q 240 767 193 705 q 340 883 288 829 q 449 975 393 936 q 563 1036 505 1014 q 679 1059 621 1059 q 732 1043 703 1059 q 786 1005 760 1028 q 801 1052 793 1029 q 814 1097 808 1076 q 837 1081 824 1090 q 865 1062 850 1072 q 895 1041 880 1052 q 923 1020 909 1031 q 999 1048 961 1038 q 1074 1059 1037 1059 q 1171 1044 1144 1059 q 1221 1009 1194 1032 q 1271 959 1248 986 q 1310 903 1294 931 q 1325 852 1325 875 q 1312 772 1325 814 q 1278 690 1299 730 q 1230 615 1257 650 q 1175 557 1203 581 l 1059 660 m 489 326 q 602 454 533 398 q 754 549 671 510 q 730 576 742 562 q 709 608 718 590 q 694 648 700 626 q 689 699 689 671 q 702 781 689 741 q 739 858 715 821 q 743 869 741 863 q 746 880 745 875 q 751 908 749 894 q 753 936 753 922 q 742 976 753 962 q 724 990 732 990 q 636 961 684 990 q 540 883 589 932 q 440 768 490 834 q 345 628 391 703 q 259 475 299 553 q 191 321 220 396 q 144 178 161 245 q 127 58 127 110 q 170 3 127 3 q 219 25 185 3 q 298 90 254 47 q 392 191 342 132 q 489 326 442 251 z "},"":{"ha":750,"x_min":-97,"x_max":751,"o":"m 751 167 q 634 64 689 106 q 528 -2 578 23 q 432 -38 478 -27 q 343 -49 387 -49 q 302 -35 325 -49 q 261 -2 280 -22 q 228 38 241 17 q 215 74 215 59 q 217 116 215 96 q 159 69 189 92 q 98 25 129 45 q 38 -11 68 5 q -21 -36 7 -26 q -26 -37 -24 -37 q -31 -37 -28 -37 q -48 -31 -37 -37 q -71 -13 -60 -24 q -89 13 -81 -1 q -97 41 -97 27 q -85 109 -97 72 q -50 183 -73 145 q 9 257 -26 221 q 91 324 45 294 q 196 377 138 355 q 322 408 254 399 q 325 409 323 408 q 328 408 326 410 q 343 402 334 406 q 361 392 352 397 q 379 381 370 387 q 393 371 387 376 q 464 401 429 391 q 529 411 498 411 q 571 399 550 411 q 608 369 591 387 q 635 332 625 351 q 646 298 646 313 q 626 251 646 275 q 572 202 607 227 q 487 151 536 177 q 378 98 438 125 q 376 66 376 82 q 385 38 376 45 q 419 31 394 31 q 504 45 464 31 q 581 84 544 60 q 651 138 617 108 q 718 200 685 169 l 751 167 m 229 196 q 233 199 231 197 q 236 202 234 200 q 241 206 239 204 q 293 289 261 253 q 361 351 324 326 q 258 310 309 336 q 167 252 208 284 q 102 183 127 220 q 77 110 77 146 q 86 98 77 98 q 110 106 96 98 q 143 127 125 114 q 183 158 161 140 q 229 196 205 176 m 513 336 q 483 322 499 336 q 450 284 467 308 q 419 230 434 260 q 394 165 404 199 q 443 200 419 182 q 486 238 467 218 q 516 279 505 258 q 528 321 528 300 q 524 332 528 327 q 513 336 520 336 z "},"":{"ha":1251,"x_min":-14,"x_max":1325,"o":"m 1059 660 q 1109 712 1084 681 q 1152 778 1133 743 q 1183 848 1171 812 q 1194 916 1194 884 q 1182 958 1194 941 q 1139 975 1170 975 q 1081 963 1113 975 q 1017 929 1049 951 q 953 879 984 908 q 899 814 922 849 q 860 742 875 780 q 846 665 846 704 q 854 608 846 632 q 877 565 862 584 q 915 531 892 547 q 965 498 937 515 q 808 410 880 463 q 685 296 736 357 q 605 171 634 235 q 576 46 576 106 q 586 9 576 25 q 618 -7 596 -7 q 682 9 646 -7 q 755 50 718 24 q 831 106 793 75 q 903 169 869 137 q 964 229 937 200 q 1006 277 990 257 q 1076 219 1046 244 q 1132 172 1106 193 q 1094 129 1120 157 q 1030 69 1067 101 q 949 4 993 37 q 860 -55 905 -28 q 771 -98 815 -81 q 690 -115 727 -115 q 622 -103 656 -115 q 559 -71 589 -91 q 504 -25 529 -51 q 463 28 479 1 q 400 -26 433 0 q 333 -72 367 -52 q 264 -103 298 -92 q 197 -115 230 -115 q 152 -103 175 -115 q 105 -71 128 -91 q 62 -24 83 -51 q 25 30 41 2 q -1 86 9 58 q -14 138 -12 114 q -13 159 -14 146 q -12 185 -13 172 q -11 212 -12 199 q -8 235 -9 224 q 24 362 2 295 q 79 498 47 429 q 152 636 111 568 q 240 767 193 705 q 340 883 288 829 q 449 975 393 936 q 563 1036 505 1014 q 679 1059 621 1059 q 732 1043 703 1059 q 786 1005 760 1028 q 801 1052 793 1029 q 814 1097 808 1076 q 837 1081 824 1090 q 865 1062 850 1072 q 895 1041 880 1052 q 923 1020 909 1031 q 999 1048 961 1038 q 1074 1059 1037 1059 q 1171 1044 1144 1059 q 1221 1009 1194 1032 q 1271 959 1248 986 q 1310 903 1294 931 q 1325 852 1325 875 q 1312 772 1325 814 q 1278 690 1299 730 q 1230 615 1257 650 q 1175 557 1203 581 l 1059 660 m 489 326 q 602 454 533 398 q 754 549 671 510 q 730 576 742 562 q 709 608 718 590 q 694 648 700 626 q 689 699 689 671 q 702 781 689 741 q 739 858 715 821 q 743 869 741 863 q 746 880 745 875 q 751 908 749 894 q 753 936 753 922 q 742 976 753 962 q 724 990 732 990 q 636 961 684 990 q 540 883 589 932 q 440 768 490 834 q 345 628 391 703 q 259 475 299 553 q 191 321 220 396 q 144 178 161 245 q 127 58 127 110 q 170 3 127 3 q 219 25 185 3 q 298 90 254 47 q 392 191 342 132 q 489 326 442 251 m 1132 1286 q 1050 1198 1094 1240 q 961 1120 1006 1156 q 950 1127 958 1122 q 936 1139 943 1133 q 922 1152 928 1146 q 912 1161 915 1158 q 950 1211 929 1182 q 991 1267 971 1239 q 1026 1319 1010 1295 q 1048 1354 1042 1342 q 1076 1337 1063 1348 q 1100 1316 1089 1326 q 1120 1298 1112 1306 q 1132 1286 1128 1289 z "},"":{"ha":750,"x_min":-97,"x_max":751,"o":"m 751 167 q 634 64 689 106 q 528 -2 578 23 q 432 -38 478 -27 q 343 -49 387 -49 q 302 -35 325 -49 q 261 -2 280 -22 q 228 38 241 17 q 215 74 215 59 q 217 116 215 96 q 159 69 189 92 q 98 25 129 45 q 38 -11 68 5 q -21 -36 7 -26 q -26 -37 -24 -37 q -31 -37 -28 -37 q -48 -31 -37 -37 q -71 -13 -60 -24 q -89 13 -81 -1 q -97 41 -97 27 q -85 109 -97 72 q -50 183 -73 145 q 9 257 -26 221 q 91 324 45 294 q 196 377 138 355 q 322 408 254 399 q 325 409 323 408 q 328 408 326 410 q 343 402 334 406 q 361 392 352 397 q 379 381 370 387 q 393 371 387 376 q 464 401 429 391 q 529 411 498 411 q 571 399 550 411 q 608 369 591 387 q 635 332 625 351 q 646 298 646 313 q 626 251 646 275 q 572 202 607 227 q 487 151 536 177 q 378 98 438 125 q 376 66 376 82 q 385 38 376 45 q 419 31 394 31 q 504 45 464 31 q 581 84 544 60 q 651 138 617 108 q 718 200 685 169 l 751 167 m 229 196 q 233 199 231 197 q 236 202 234 200 q 241 206 239 204 q 293 289 261 253 q 361 351 324 326 q 258 310 309 336 q 167 252 208 284 q 102 183 127 220 q 77 110 77 146 q 86 98 77 98 q 110 106 96 98 q 143 127 125 114 q 183 158 161 140 q 229 196 205 176 m 513 336 q 483 322 499 336 q 450 284 467 308 q 419 230 434 260 q 394 165 404 199 q 443 200 419 182 q 486 238 467 218 q 516 279 505 258 q 528 321 528 300 q 524 332 528 327 q 513 336 520 336 m 623 631 q 541 542 585 584 q 452 464 496 500 q 441 471 448 466 q 427 484 434 477 q 412 496 419 490 q 403 505 406 502 q 441 555 420 526 q 481 611 462 583 q 517 663 501 640 q 539 699 532 686 q 567 681 553 692 q 591 661 580 671 q 610 642 602 650 q 623 631 618 633 z "},"":{"ha":835,"x_min":-14,"x_max":929,"o":"m 876 867 q 863 796 876 835 q 828 716 850 757 q 779 633 807 675 q 722 555 751 592 q 753 523 739 538 q 774 504 768 509 q 748 456 764 488 q 712 385 731 425 q 674 300 694 345 q 640 212 655 255 q 614 131 624 169 q 604 66 604 92 q 613 3 604 33 q 641 -48 623 -26 q 685 -84 659 -70 q 747 -103 712 -99 l 714 -147 q 689 -143 706 -147 q 651 -131 672 -140 q 607 -106 630 -121 q 564 -66 584 -90 q 528 -8 543 -42 q 506 71 512 25 q 436 3 473 37 q 358 -56 398 -30 q 277 -99 318 -83 q 197 -115 236 -115 q 152 -103 175 -115 q 105 -71 128 -91 q 62 -24 83 -51 q 25 30 41 2 q -1 86 9 58 q -14 138 -12 114 q -13 159 -14 146 q -12 185 -13 172 q -11 212 -12 199 q -8 235 -9 224 q 24 362 2 295 q 79 498 47 429 q 152 636 111 568 q 240 767 193 705 q 340 883 288 829 q 449 975 393 936 q 563 1036 505 1014 q 679 1059 621 1059 q 721 1048 699 1059 q 765 1022 743 1038 q 807 985 787 1006 q 843 943 827 964 q 867 902 858 922 q 876 867 876 882 m 170 3 q 207 18 182 3 q 265 60 232 33 q 336 129 298 88 q 414 221 375 170 q 492 333 454 272 q 564 465 530 395 l 484 545 q 519 577 495 557 q 574 625 544 597 q 635 687 604 653 q 693 761 667 722 q 736 845 719 801 q 753 936 753 888 q 742 976 753 962 q 724 990 732 990 q 636 961 684 990 q 540 883 589 932 q 440 768 490 834 q 345 628 391 703 q 259 475 299 553 q 191 321 220 396 q 144 178 161 245 q 127 58 127 110 q 170 3 127 3 m 929 1272 q 901 1220 915 1240 q 878 1185 888 1200 q 846 1184 869 1184 q 794 1184 823 1184 q 731 1183 764 1183 q 669 1183 698 1183 q 619 1183 640 1183 q 591 1183 597 1183 q 612 1222 600 1200 q 636 1268 625 1243 q 661 1268 640 1268 q 713 1269 683 1268 q 779 1269 744 1269 q 846 1270 814 1270 q 900 1271 878 1271 q 929 1272 923 1272 z "},"":{"ha":574,"x_min":-97,"x_max":575,"o":"m 350 60 q 354 56 350 56 q 374 64 360 56 q 407 87 389 73 q 446 117 425 100 q 486 151 467 134 q 520 180 505 167 q 543 201 535 194 q 558 185 549 195 q 575 167 568 175 q 536 131 559 152 q 487 86 513 109 q 433 40 461 63 q 379 0 406 18 q 329 -29 353 -18 q 288 -40 305 -40 q 261 -35 275 -40 q 234 -22 246 -31 q 214 -2 222 -14 q 205 24 205 9 q 205 37 205 29 q 206 57 205 45 q 212 88 208 70 q 224 132 216 106 q 171 83 201 109 q 108 34 141 57 q 41 -8 75 11 q -21 -36 7 -26 q -26 -37 -24 -37 q -31 -37 -28 -37 q -48 -31 -37 -37 q -71 -13 -60 -24 q -89 13 -81 -1 q -97 41 -97 27 q -93 68 -97 45 q -74 127 -89 92 q -28 207 -58 163 q 53 298 1 252 q 110 343 79 322 q 169 379 136 361 q 239 408 202 397 q 241 409 240 408 q 244 408 242 410 q 263 400 252 406 q 286 388 275 394 q 306 375 297 381 q 317 364 314 368 q 317 362 317 363 l 315 361 q 258 325 285 345 q 210 287 231 304 q 164 245 185 266 q 96 161 115 197 q 77 110 77 125 q 86 98 77 98 q 110 106 96 98 q 143 127 125 114 q 183 158 161 140 q 229 196 205 176 q 270 233 250 213 q 305 270 287 249 q 336 313 323 291 q 337 314 336 313 q 339 314 338 315 q 356 296 347 309 q 374 269 366 283 q 388 240 382 254 q 393 218 393 226 q 369 160 378 186 q 356 115 361 134 q 351 81 352 95 q 350 60 350 67 m 497 616 q 469 564 483 584 q 446 529 456 544 q 414 528 437 528 q 362 528 391 528 q 299 528 332 528 q 237 528 266 528 q 187 528 208 528 q 159 528 165 528 q 180 566 168 545 q 204 612 193 587 q 229 612 208 612 q 281 613 251 612 q 347 613 312 613 q 414 614 382 614 q 468 615 446 615 q 497 616 491 616 z "},"":{"ha":835,"x_min":-14,"x_max":916,"o":"m 876 867 q 863 796 876 835 q 828 716 850 757 q 779 633 807 675 q 722 555 751 592 q 753 523 739 538 q 774 504 768 509 q 748 456 764 488 q 712 385 731 425 q 674 300 694 345 q 640 212 655 255 q 614 131 624 169 q 604 66 604 92 q 613 3 604 33 q 641 -48 623 -26 q 685 -84 659 -70 q 747 -103 712 -99 l 714 -147 q 689 -143 706 -147 q 651 -131 672 -140 q 607 -106 630 -121 q 564 -66 584 -90 q 528 -8 543 -42 q 506 71 512 25 q 436 3 473 37 q 358 -56 398 -30 q 277 -99 318 -83 q 197 -115 236 -115 q 152 -103 175 -115 q 105 -71 128 -91 q 62 -24 83 -51 q 25 30 41 2 q -1 86 9 58 q -14 138 -12 114 q -13 159 -14 146 q -12 185 -13 172 q -11 212 -12 199 q -8 235 -9 224 q 24 362 2 295 q 79 498 47 429 q 152 636 111 568 q 240 767 193 705 q 340 883 288 829 q 449 975 393 936 q 563 1036 505 1014 q 679 1059 621 1059 q 721 1048 699 1059 q 765 1022 743 1038 q 807 985 787 1006 q 843 943 827 964 q 867 902 858 922 q 876 867 876 882 m 170 3 q 207 18 182 3 q 265 60 232 33 q 336 129 298 88 q 414 221 375 170 q 492 333 454 272 q 564 465 530 395 l 484 545 q 519 577 495 557 q 574 625 544 597 q 635 687 604 653 q 693 761 667 722 q 736 845 719 801 q 753 936 753 888 q 742 976 753 962 q 724 990 732 990 q 636 961 684 990 q 540 883 589 932 q 440 768 490 834 q 345 628 391 703 q 259 475 299 553 q 191 321 220 396 q 144 178 161 245 q 127 58 127 110 q 170 3 127 3 m 916 1286 q 898 1244 909 1270 q 866 1194 886 1218 q 816 1152 846 1169 q 741 1134 786 1134 q 702 1138 720 1134 q 670 1151 684 1142 q 649 1173 656 1159 q 641 1206 641 1186 q 642 1229 641 1216 q 647 1256 644 1242 q 654 1284 650 1270 q 665 1310 659 1298 q 690 1310 675 1310 q 719 1309 705 1310 q 744 1306 732 1308 q 760 1304 755 1305 q 752 1288 758 1299 q 743 1263 747 1276 q 734 1237 738 1251 q 731 1214 731 1224 q 734 1205 731 1208 q 746 1202 738 1202 q 785 1212 768 1202 q 814 1237 802 1221 q 835 1272 827 1253 q 849 1309 844 1291 q 891 1296 876 1301 q 916 1286 905 1291 z "},"":{"ha":574,"x_min":-97,"x_max":575,"o":"m 350 60 q 354 56 350 56 q 374 64 360 56 q 407 87 389 73 q 446 117 425 100 q 486 151 467 134 q 520 180 505 167 q 543 201 535 194 q 558 185 549 195 q 575 167 568 175 q 536 131 559 152 q 487 86 513 109 q 433 40 461 63 q 379 0 406 18 q 329 -29 353 -18 q 288 -40 305 -40 q 261 -35 275 -40 q 234 -22 246 -31 q 214 -2 222 -14 q 205 24 205 9 q 205 37 205 29 q 206 57 205 45 q 212 88 208 70 q 224 132 216 106 q 171 83 201 109 q 108 34 141 57 q 41 -8 75 11 q -21 -36 7 -26 q -26 -37 -24 -37 q -31 -37 -28 -37 q -48 -31 -37 -37 q -71 -13 -60 -24 q -89 13 -81 -1 q -97 41 -97 27 q -93 68 -97 45 q -74 127 -89 92 q -28 207 -58 163 q 53 298 1 252 q 110 343 79 322 q 169 379 136 361 q 239 408 202 397 q 241 409 240 408 q 244 408 242 410 q 263 400 252 406 q 286 388 275 394 q 306 375 297 381 q 317 364 314 368 q 317 362 317 363 l 315 361 q 258 325 285 345 q 210 287 231 304 q 164 245 185 266 q 96 161 115 197 q 77 110 77 125 q 86 98 77 98 q 110 106 96 98 q 143 127 125 114 q 183 158 161 140 q 229 196 205 176 q 270 233 250 213 q 305 270 287 249 q 336 313 323 291 q 337 314 336 313 q 339 314 338 315 q 356 296 347 309 q 374 269 366 283 q 388 240 382 254 q 393 218 393 226 q 369 160 378 186 q 356 115 361 134 q 351 81 352 95 q 350 60 350 67 m 484 631 q 466 588 477 614 q 434 538 454 562 q 384 496 414 513 q 309 478 354 478 q 270 482 288 478 q 238 495 252 486 q 217 517 224 503 q 209 550 209 530 q 210 573 209 560 q 215 600 212 586 q 222 628 218 614 q 233 654 227 642 q 258 654 243 654 q 287 653 273 654 q 312 651 300 652 q 328 648 323 650 q 320 632 326 643 q 311 608 315 621 q 302 582 306 595 q 299 558 299 568 q 302 549 299 553 q 314 546 306 546 q 353 556 336 546 q 382 581 370 566 q 403 616 395 597 q 417 653 412 635 q 459 640 444 646 q 484 631 473 635 z "},"":{"ha":835,"x_min":-14,"x_max":876,"o":"m 745 -343 q 693 -363 726 -353 q 619 -374 661 -374 q 593 -365 608 -374 q 565 -345 578 -357 q 541 -319 551 -332 q 532 -296 532 -306 q 540 -247 532 -271 q 563 -200 548 -222 q 597 -159 577 -178 q 640 -125 616 -140 q 555 -55 591 -103 q 505 71 519 -7 q 435 3 473 37 q 358 -56 398 -30 q 277 -99 318 -83 q 197 -115 236 -115 q 152 -103 175 -115 q 105 -71 128 -91 q 62 -24 83 -51 q 25 30 41 2 q -1 86 9 58 q -14 138 -12 114 q -13 159 -14 146 q -12 185 -13 172 q -11 212 -12 199 q -8 235 -9 224 q 24 362 2 295 q 79 498 47 429 q 152 636 111 568 q 240 767 193 705 q 340 883 288 829 q 449 975 393 936 q 563 1036 505 1014 q 679 1059 621 1059 q 721 1048 699 1059 q 765 1022 743 1038 q 807 985 787 1006 q 843 943 827 964 q 867 902 858 922 q 876 867 876 882 q 863 796 876 835 q 828 716 850 757 q 779 633 806 675 q 721 555 751 592 q 753 523 739 538 q 774 504 767 509 q 748 456 764 488 q 712 385 731 425 q 674 300 694 345 q 640 212 655 255 q 614 131 624 169 q 604 66 604 92 q 613 3 604 33 q 641 -48 623 -26 q 685 -84 659 -70 q 747 -103 712 -99 q 749 -107 753 -103 q 742 -113 744 -111 q 640 -203 671 -165 q 608 -267 608 -241 q 614 -281 608 -276 q 629 -286 621 -286 q 648 -284 636 -286 q 673 -277 660 -281 q 700 -267 686 -273 q 725 -256 713 -262 q 730 -277 727 -264 q 735 -302 732 -290 q 741 -327 738 -315 q 745 -343 743 -338 m 170 3 q 208 18 182 3 q 266 60 233 33 q 336 129 298 88 q 414 220 374 169 q 491 333 453 271 q 562 464 530 394 l 484 545 q 519 577 495 557 q 574 625 544 597 q 635 687 604 653 q 693 761 667 722 q 736 845 719 801 q 753 936 753 888 q 742 976 753 962 q 724 990 732 990 q 636 961 684 990 q 540 883 589 932 q 440 768 490 834 q 345 628 391 703 q 259 475 299 553 q 191 321 220 396 q 144 178 161 245 q 127 58 127 110 q 170 3 127 3 z "},"":{"ha":574,"x_min":-97,"x_max":575,"o":"m 393 -232 q 342 -252 374 -242 q 268 -262 310 -262 q 242 -254 257 -262 q 213 -233 227 -245 q 190 -208 199 -221 q 180 -184 180 -195 q 188 -143 180 -163 q 207 -104 195 -123 q 234 -68 219 -85 q 264 -36 249 -51 q 242 -27 253 -33 q 224 -14 232 -22 q 211 3 216 -6 q 205 24 205 13 q 205 37 205 29 q 206 57 205 45 q 212 88 208 70 q 224 132 216 106 q 171 83 201 109 q 108 34 141 57 q 41 -8 75 11 q -21 -36 7 -26 q -26 -37 -24 -37 q -31 -37 -28 -37 q -48 -31 -37 -37 q -71 -13 -60 -24 q -89 13 -81 -1 q -97 41 -97 27 q -93 68 -97 45 q -74 127 -89 92 q -28 207 -58 163 q 53 298 1 252 q 110 343 79 322 q 169 379 136 361 q 239 408 202 397 q 241 409 240 408 q 244 408 242 410 q 263 400 252 406 q 286 388 275 394 q 306 375 297 381 q 317 364 314 368 q 317 362 317 363 l 315 361 q 258 325 285 345 q 210 287 231 304 q 164 245 185 266 q 96 161 115 197 q 77 110 77 125 q 86 98 77 98 q 110 106 96 98 q 143 127 125 114 q 183 158 161 140 q 229 196 205 176 q 270 233 250 213 q 305 270 287 249 q 336 313 323 291 q 338 315 338 314 q 339 314 338 315 q 356 296 347 309 q 374 269 366 283 q 388 240 382 254 q 393 220 393 227 l 393 218 q 369 160 378 186 q 356 115 361 134 q 351 81 352 95 q 350 60 350 67 q 354 56 350 56 q 374 64 360 56 q 407 87 389 73 q 446 117 425 100 q 486 151 467 134 q 520 180 505 167 q 543 201 535 194 l 575 167 q 528 125 555 149 q 469 75 500 101 q 407 24 438 50 q 351 -21 376 -1 q 321 -48 338 -32 q 291 -84 305 -65 q 267 -121 277 -102 q 257 -155 257 -140 q 263 -170 257 -165 q 278 -175 269 -175 q 297 -173 285 -175 q 322 -166 309 -170 q 349 -156 335 -162 q 374 -144 362 -151 q 378 -165 376 -153 q 384 -192 381 -178 q 389 -216 387 -205 q 393 -232 391 -227 z "},"":{"ha":760,"x_min":-14,"x_max":864,"o":"m 309 -218 q 300 -264 309 -240 q 270 -311 292 -289 q 212 -350 249 -333 q 118 -375 175 -368 q 109 -359 113 -370 q 101 -337 105 -349 q 95 -313 98 -325 q 89 -294 92 -302 q 131 -288 106 -292 q 178 -275 156 -283 q 216 -255 201 -267 q 232 -227 232 -243 q 231 -223 232 -226 q 227 -216 230 -220 q 217 -211 223 -213 q 200 -208 210 -208 q 152 -212 170 -208 q 134 -211 134 -216 q 157 -159 143 -188 q 180 -106 170 -131 q 134 -78 157 -96 q 87 -37 110 -60 q 46 11 65 -14 q 14 60 26 36 q -10 130 -7 98 q -14 180 -14 161 q 1 298 -14 233 q 44 436 16 364 q 111 581 72 507 q 198 724 151 655 q 302 854 246 793 q 419 961 358 916 q 546 1033 481 1006 q 679 1059 612 1059 q 719 1049 698 1059 q 760 1023 740 1039 q 800 986 781 1007 q 833 943 819 965 q 856 899 847 921 q 864 859 864 877 q 848 769 864 818 q 804 670 831 720 q 738 572 776 620 q 656 488 699 525 l 533 606 q 576 638 553 618 q 622 684 599 659 q 665 739 644 709 q 702 799 686 768 q 728 859 718 829 q 737 917 737 889 q 734 951 737 938 q 725 971 730 964 q 711 981 719 978 q 696 983 704 983 q 622 956 663 983 q 535 881 581 928 q 441 771 489 834 q 349 636 393 708 q 264 487 304 564 q 195 336 224 410 q 148 193 165 261 q 131 71 131 125 q 134 37 131 50 q 143 16 137 24 q 157 5 149 8 q 178 3 166 3 q 224 19 197 3 q 281 62 251 36 q 342 121 311 89 q 400 185 373 154 q 449 244 427 217 q 482 286 471 271 q 499 272 482 286 q 538 239 515 258 q 583 201 560 220 q 616 170 605 182 q 575 123 600 151 q 520 64 551 96 q 453 2 489 33 q 380 -55 418 -29 q 305 -96 343 -80 q 231 -114 267 -113 l 205 -172 q 228 -167 218 -169 q 254 -165 237 -165 q 270 -170 261 -165 q 287 -182 279 -175 q 301 -199 295 -190 q 309 -218 307 -209 z "},"":{"ha":443,"x_min":-97,"x_max":444,"o":"m 178 -147 q 170 -194 178 -169 q 140 -240 161 -218 q 82 -280 119 -262 q -12 -304 45 -297 q -21 -289 -17 -299 q -29 -266 -26 -278 q -36 -242 -33 -254 q -41 -224 -39 -231 q 1 -217 -24 -222 q 47 -204 25 -212 q 86 -184 70 -196 q 102 -155 102 -172 q 101 -152 102 -155 q 96 -145 100 -149 q 86 -140 92 -142 q 69 -138 79 -138 q 42 -139 54 -138 q 21 -141 30 -140 q 7 -143 12 -142 q 3 -140 3 -143 q 22 -97 11 -121 q 45 -50 34 -73 l 26 -50 q -1 -42 14 -50 q -33 -21 -17 -35 q -65 10 -50 -8 q -90 47 -80 28 q -96 64 -94 55 q -97 89 -97 74 q -85 166 -97 127 q -52 241 -73 205 q -2 307 -31 276 q 62 360 28 338 q 136 395 97 382 q 216 408 176 408 q 233 402 222 408 q 256 385 243 395 q 280 360 268 374 q 303 333 293 347 q 320 306 313 319 q 326 282 326 292 q 305 254 323 269 q 263 225 288 239 q 213 203 239 212 q 167 195 186 195 q 155 201 155 195 q 165 223 155 209 q 188 255 176 238 q 211 290 201 273 q 221 319 221 307 q 218 330 221 326 q 210 334 215 334 q 178 320 195 334 q 146 284 162 307 q 115 233 130 262 q 89 174 100 204 q 71 113 77 143 q 64 57 64 82 q 73 36 64 42 q 100 31 81 31 q 188 46 145 31 q 269 85 230 61 q 343 139 308 109 q 410 199 378 169 q 428 181 417 190 q 444 167 439 173 q 369 95 408 129 q 287 33 330 61 q 197 -14 243 5 q 100 -43 151 -34 l 75 -102 q 97 -96 87 -98 q 123 -94 107 -94 q 140 -99 131 -94 q 156 -111 149 -104 q 170 -128 164 -119 q 178 -147 176 -138 z "},"":{"ha":760,"x_min":-14,"x_max":888,"o":"m 533 606 q 576 638 553 618 q 622 684 599 659 q 665 739 644 709 q 702 799 686 768 q 728 859 718 829 q 737 917 737 889 q 734 951 737 938 q 725 971 730 964 q 711 981 719 978 q 696 983 704 983 q 622 956 663 983 q 535 881 581 928 q 441 771 489 834 q 349 636 393 708 q 264 487 304 564 q 195 336 224 410 q 148 193 165 261 q 131 71 131 125 q 134 37 131 50 q 143 16 137 24 q 157 5 149 8 q 178 3 166 3 q 224 19 197 3 q 281 62 251 36 q 342 121 311 89 q 400 185 373 154 q 449 244 427 217 q 482 286 471 271 q 499 272 482 286 q 538 239 515 258 q 583 201 560 220 q 616 170 605 182 q 575 123 600 151 q 518 63 550 94 q 451 -1 487 31 q 377 -58 415 -33 q 300 -99 339 -83 q 225 -115 262 -115 q 169 -99 199 -115 q 110 -58 139 -83 q 56 -2 81 -33 q 14 60 31 29 q -10 130 -7 98 q -14 180 -14 161 q 1 298 -14 233 q 44 436 16 364 q 111 581 72 507 q 198 724 151 655 q 302 854 246 793 q 419 961 358 916 q 546 1033 481 1006 q 679 1059 612 1059 q 719 1049 698 1059 q 760 1023 740 1039 q 800 986 781 1007 q 833 943 819 965 q 856 899 847 921 q 864 859 864 877 q 848 769 864 818 q 804 670 831 720 q 738 572 776 620 q 656 488 699 525 l 533 606 m 888 1286 q 806 1198 850 1240 q 717 1120 762 1156 q 706 1127 713 1122 q 692 1139 699 1133 q 677 1152 684 1146 q 668 1161 671 1158 q 706 1211 685 1182 q 747 1267 727 1239 q 782 1319 766 1295 q 804 1354 798 1342 q 832 1337 819 1348 q 856 1316 845 1326 q 876 1298 867 1306 q 888 1286 884 1289 z "},"":{"ha":443,"x_min":-97,"x_max":444,"o":"m 26 -50 q -1 -42 14 -50 q -33 -21 -17 -35 q -65 10 -50 -8 q -90 47 -80 28 q -96 64 -94 55 q -97 89 -97 74 q -85 166 -97 127 q -52 241 -73 205 q -2 307 -31 276 q 62 360 28 338 q 136 395 97 382 q 216 408 176 408 q 233 402 222 408 q 256 385 243 395 q 280 360 268 374 q 303 333 293 347 q 320 306 313 319 q 326 282 326 292 q 305 254 323 269 q 263 225 288 239 q 213 203 239 212 q 167 195 186 195 q 155 201 155 195 q 165 223 155 209 q 188 255 176 238 q 211 290 201 273 q 221 319 221 307 q 218 330 221 326 q 210 334 215 334 q 178 320 195 334 q 146 284 162 307 q 115 233 130 262 q 89 174 100 204 q 71 113 77 143 q 64 57 64 82 q 73 36 64 42 q 100 31 81 31 q 188 46 145 31 q 269 85 230 61 q 343 139 308 109 q 410 199 378 169 q 428 181 417 190 q 444 167 439 173 q 355 83 402 123 q 256 14 308 43 q 146 -33 203 -16 q 26 -50 89 -50 m 421 631 q 339 542 383 584 q 250 464 295 500 q 240 471 247 466 q 225 484 233 477 q 211 496 218 490 q 201 505 204 502 q 239 555 218 526 q 280 611 260 583 q 315 663 300 640 q 338 699 331 686 q 365 681 352 692 q 390 661 378 671 q 409 642 401 650 q 421 631 417 633 z "},"":{"ha":760,"x_min":-14,"x_max":864,"o":"m 533 606 q 576 638 553 618 q 622 684 599 659 q 665 739 644 709 q 702 799 686 768 q 728 859 718 829 q 737 917 737 889 q 734 951 737 938 q 725 971 730 964 q 711 981 719 978 q 696 983 704 983 q 622 956 663 983 q 535 881 581 928 q 441 771 489 834 q 349 636 393 708 q 264 487 304 564 q 195 336 224 410 q 148 193 165 261 q 131 71 131 125 q 134 37 131 50 q 143 16 137 24 q 157 5 149 8 q 178 3 166 3 q 224 19 197 3 q 281 62 251 36 q 342 121 311 89 q 400 185 373 154 q 449 244 427 217 q 482 286 471 271 q 499 272 482 286 q 538 239 515 258 q 583 201 560 220 q 616 170 605 182 q 575 123 600 151 q 518 63 550 94 q 451 -1 487 31 q 377 -58 415 -33 q 300 -99 339 -83 q 225 -115 262 -115 q 169 -99 199 -115 q 110 -58 139 -83 q 56 -2 81 -33 q 14 60 31 29 q -10 130 -7 98 q -14 180 -14 161 q 1 298 -14 233 q 44 436 16 364 q 111 581 72 507 q 198 724 151 655 q 302 854 246 793 q 419 961 358 916 q 546 1033 481 1006 q 679 1059 612 1059 q 719 1049 698 1059 q 760 1023 740 1039 q 800 986 781 1007 q 833 943 819 965 q 856 899 847 921 q 864 859 864 877 q 848 769 864 818 q 804 670 831 720 q 738 572 776 620 q 656 488 699 525 l 533 606 m 861 1132 q 825 1126 844 1128 q 786 1120 807 1123 q 766 1178 777 1145 q 749 1247 756 1211 q 680 1189 714 1217 q 602 1126 646 1161 q 586 1145 594 1137 q 566 1166 577 1153 q 614 1211 589 1187 q 663 1259 639 1235 q 708 1304 686 1282 q 747 1343 730 1326 q 798 1331 778 1339 q 836 1313 819 1323 q 841 1269 838 1294 q 848 1218 844 1244 q 854 1170 851 1193 q 861 1132 858 1147 z "},"":{"ha":443,"x_min":-97,"x_max":444,"o":"m 26 -50 q -1 -42 14 -50 q -33 -21 -17 -35 q -65 10 -50 -8 q -90 47 -80 28 q -96 64 -94 55 q -97 89 -97 74 q -85 166 -97 127 q -52 241 -73 205 q -2 307 -31 276 q 62 360 28 338 q 136 395 97 382 q 216 408 176 408 q 233 402 222 408 q 256 385 243 395 q 280 360 268 374 q 303 333 293 347 q 320 306 313 319 q 326 282 326 292 q 305 254 323 269 q 263 225 288 239 q 213 203 239 212 q 167 195 186 195 q 155 201 155 195 q 165 223 155 209 q 188 255 176 238 q 211 290 201 273 q 221 319 221 307 q 218 330 221 326 q 210 334 215 334 q 178 320 195 334 q 146 284 162 307 q 115 233 130 262 q 89 174 100 204 q 71 113 77 143 q 64 57 64 82 q 73 36 64 42 q 100 31 81 31 q 188 46 145 31 q 269 85 230 61 q 343 139 308 109 q 410 199 378 169 q 428 181 417 190 q 444 167 439 173 q 355 83 402 123 q 256 14 308 43 q 146 -33 203 -16 q 26 -50 89 -50 m 395 476 q 359 470 378 473 q 320 464 341 467 q 300 522 311 490 q 283 591 290 555 q 214 533 248 562 q 136 471 180 505 q 120 489 128 481 q 100 510 111 497 q 148 555 123 531 q 197 603 173 579 q 242 648 220 627 q 281 688 264 670 q 332 675 312 684 q 370 657 353 667 q 375 613 372 638 q 382 563 378 588 q 389 514 385 537 q 395 476 392 491 z "},"":{"ha":760,"x_min":-14,"x_max":864,"o":"m 533 606 q 576 638 553 618 q 622 684 599 659 q 665 739 644 709 q 702 799 686 768 q 728 859 718 829 q 737 917 737 889 q 734 951 737 938 q 725 971 730 964 q 711 981 719 978 q 696 983 704 983 q 622 956 663 983 q 535 881 581 928 q 441 771 489 834 q 349 636 393 708 q 264 487 304 564 q 195 336 224 410 q 148 193 165 261 q 131 71 131 125 q 134 37 131 50 q 143 16 137 24 q 157 5 149 8 q 178 3 166 3 q 224 19 197 3 q 281 62 251 36 q 342 121 311 89 q 400 185 373 154 q 449 244 427 217 q 482 286 471 271 q 499 272 482 286 q 538 239 515 258 q 583 201 560 220 q 616 170 605 182 q 575 123 600 151 q 518 63 550 94 q 451 -1 487 31 q 377 -58 415 -33 q 300 -99 339 -83 q 225 -115 262 -115 q 169 -99 199 -115 q 110 -58 139 -83 q 56 -2 81 -33 q 14 60 31 29 q -10 130 -7 98 q -14 180 -14 161 q 1 298 -14 233 q 44 436 16 364 q 111 581 72 507 q 198 724 151 655 q 302 854 246 793 q 419 961 358 916 q 546 1033 481 1006 q 679 1059 612 1059 q 719 1049 698 1059 q 760 1023 740 1039 q 800 986 781 1007 q 833 943 819 965 q 856 899 847 921 q 864 859 864 877 q 848 769 864 818 q 804 670 831 720 q 738 572 776 620 q 656 488 699 525 l 533 606 m 808 1240 q 800 1220 808 1236 q 782 1186 792 1204 q 761 1154 771 1168 q 746 1139 751 1139 q 725 1146 741 1139 q 692 1161 709 1152 q 661 1178 675 1170 q 648 1190 648 1187 q 655 1219 648 1200 q 673 1257 663 1238 q 692 1289 683 1276 q 706 1303 702 1303 q 732 1294 715 1303 q 766 1275 749 1286 q 795 1255 783 1265 q 808 1240 808 1244 z "},"":{"ha":443,"x_min":-97,"x_max":444,"o":"m 26 -50 q -1 -42 14 -50 q -33 -21 -17 -35 q -65 10 -50 -8 q -90 47 -80 28 q -96 64 -94 55 q -97 89 -97 74 q -85 166 -97 127 q -52 241 -73 205 q -2 307 -31 276 q 62 360 28 338 q 136 395 97 382 q 216 408 176 408 q 233 402 222 408 q 256 385 243 395 q 280 360 268 374 q 303 333 293 347 q 320 306 313 319 q 326 282 326 292 q 305 254 323 269 q 263 225 288 239 q 213 203 239 212 q 167 195 186 195 q 155 201 155 195 q 165 223 155 209 q 188 255 176 238 q 211 290 201 273 q 221 319 221 307 q 218 330 221 326 q 210 334 215 334 q 178 320 195 334 q 146 284 162 307 q 115 233 130 262 q 89 174 100 204 q 71 113 77 143 q 64 57 64 82 q 73 36 64 42 q 100 31 81 31 q 188 46 145 31 q 269 85 230 61 q 343 139 308 109 q 410 199 378 169 q 428 181 417 190 q 444 167 439 173 q 355 83 402 123 q 256 14 308 43 q 146 -33 203 -16 q 26 -50 89 -50 m 342 585 q 334 564 342 581 q 316 530 326 548 q 295 498 305 512 q 280 484 285 484 q 259 490 275 484 q 226 505 243 496 q 195 523 209 514 q 182 534 182 531 q 190 564 182 545 q 207 601 197 583 q 227 633 217 620 q 240 647 236 647 q 266 638 249 647 q 300 620 283 630 q 330 599 317 609 q 342 585 342 589 z "},"":{"ha":760,"x_min":-14,"x_max":917,"o":"m 533 606 q 576 638 553 618 q 622 684 599 659 q 665 739 644 709 q 702 799 686 768 q 728 859 718 829 q 737 917 737 889 q 734 951 737 938 q 725 971 730 964 q 711 981 719 978 q 696 983 704 983 q 622 956 663 983 q 535 881 581 928 q 441 771 489 834 q 349 636 393 708 q 264 487 304 564 q 195 336 224 410 q 148 193 165 261 q 131 71 131 125 q 134 37 131 50 q 143 16 137 24 q 157 5 149 8 q 178 3 166 3 q 224 19 197 3 q 281 62 251 36 q 342 121 311 89 q 400 185 373 154 q 449 244 427 217 q 482 286 471 271 q 499 272 482 286 q 538 239 515 258 q 583 201 560 220 q 616 170 605 182 q 575 123 600 151 q 518 63 550 94 q 451 -1 487 31 q 377 -58 415 -33 q 300 -99 339 -83 q 225 -115 262 -115 q 169 -99 199 -115 q 110 -58 139 -83 q 56 -2 81 -33 q 14 60 31 29 q -10 130 -7 98 q -14 180 -14 161 q 1 298 -14 233 q 44 436 16 364 q 111 581 72 507 q 198 724 151 655 q 302 854 246 793 q 419 961 358 916 q 546 1033 481 1006 q 679 1059 612 1059 q 719 1049 698 1059 q 760 1023 740 1039 q 800 986 781 1007 q 833 943 819 965 q 856 899 847 921 q 864 859 864 877 q 848 769 864 818 q 804 670 831 720 q 738 572 776 620 q 656 488 699 525 l 533 606 m 621 1317 q 639 1321 628 1319 q 663 1326 650 1324 q 687 1330 675 1328 q 710 1333 700 1332 l 728 1198 q 800 1261 766 1231 q 871 1329 833 1292 q 895 1309 884 1321 q 917 1284 905 1296 q 826 1196 871 1238 q 735 1120 782 1154 q 690 1123 709 1120 q 649 1134 670 1126 q 640 1174 645 1150 q 632 1224 635 1198 q 625 1275 628 1250 q 621 1317 622 1299 z "},"":{"ha":443,"x_min":-97,"x_max":451,"o":"m 26 -50 q -1 -42 14 -50 q -33 -21 -17 -35 q -65 10 -50 -8 q -90 47 -80 28 q -96 64 -94 55 q -97 89 -97 74 q -85 166 -97 127 q -52 241 -73 205 q -2 307 -31 276 q 62 360 28 338 q 136 395 97 382 q 216 408 176 408 q 233 402 222 408 q 256 385 243 395 q 280 360 268 374 q 303 333 293 347 q 320 306 313 319 q 326 282 326 292 q 305 254 323 269 q 263 225 288 239 q 213 203 239 212 q 167 195 186 195 q 155 201 155 195 q 165 223 155 209 q 188 255 176 238 q 211 290 201 273 q 221 319 221 307 q 218 330 221 326 q 210 334 215 334 q 178 320 195 334 q 146 284 162 307 q 115 233 130 262 q 89 174 100 204 q 71 113 77 143 q 64 57 64 82 q 73 36 64 42 q 100 31 81 31 q 188 46 145 31 q 269 85 230 61 q 343 139 308 109 q 410 199 378 169 q 428 181 417 190 q 444 167 439 173 q 355 83 402 123 q 256 14 308 43 q 146 -33 203 -16 q 26 -50 89 -50 m 155 661 q 173 666 162 663 q 197 670 184 668 q 221 674 209 672 q 244 677 234 676 l 262 542 q 334 606 300 575 q 405 673 368 636 q 429 653 418 665 q 451 628 439 640 q 360 540 405 582 q 269 464 316 498 q 224 467 243 464 q 183 478 204 471 q 174 518 179 494 q 166 568 170 542 q 159 619 162 594 q 155 661 156 644 z "},"":{"ha":960,"x_min":-71,"x_max":973,"o":"m 942 871 q 957 847 951 859 q 966 819 963 835 q 971 784 970 804 q 972 737 973 764 q 950 557 970 650 q 892 377 930 465 q 802 208 855 289 q 679 61 748 127 q 525 -53 610 -5 q 342 -121 441 -100 q 286 -81 310 -100 q 245 -46 262 -62 q 218 -19 229 -31 q 203 -1 208 -7 q 132 -84 167 -54 q 62 -115 96 -115 q 30 -106 46 -115 q -1 -83 14 -97 q -28 -51 -16 -68 q -51 -17 -41 -33 q -65 13 -60 -1 q -71 33 -71 26 q -57 127 -71 75 q -20 238 -44 180 q 37 359 3 296 q 111 484 70 421 q 198 608 151 547 q 294 726 244 669 q 325 911 313 819 q 340 1086 337 1002 q 411 1038 379 1062 q 465 995 442 1015 q 511 951 491 972 l 509 921 q 636 993 574 967 q 755 1019 699 1019 q 809 1004 783 1019 q 860 966 836 989 q 904 918 884 944 q 942 871 925 892 m 479 739 q 449 613 467 679 q 411 480 432 547 q 366 347 390 413 q 317 219 342 280 q 263 104 291 158 q 208 7 235 50 q 365 53 292 20 q 499 133 438 85 q 610 240 560 181 q 699 365 660 300 q 766 498 737 430 q 813 631 795 566 q 841 755 831 696 q 850 861 850 814 q 846 890 850 876 q 835 918 842 905 q 816 937 827 930 q 790 945 805 945 q 726 929 762 945 q 651 887 691 914 q 568 822 611 859 q 479 739 524 784 m 33 12 q 67 37 46 6 q 114 124 88 67 q 168 261 140 181 q 223 433 196 340 q 143 315 180 373 q 80 207 106 258 q 39 113 54 155 q 24 41 24 71 q 33 12 24 18 m 627 1305 q 645 1310 633 1308 q 668 1314 656 1312 q 693 1318 680 1316 q 715 1322 705 1320 l 733 1186 q 805 1250 772 1219 q 876 1318 839 1280 q 900 1297 890 1310 q 922 1272 911 1284 q 832 1184 876 1226 q 741 1108 787 1142 q 695 1112 715 1108 q 654 1122 675 1115 q 646 1162 650 1139 q 637 1212 641 1186 q 630 1263 633 1238 q 627 1305 627 1288 z "},"":{"ha":896,"x_min":-97,"x_max":1027,"o":"m 374 75 q 385 58 374 58 q 415 66 397 58 q 453 88 433 75 q 493 117 473 101 q 531 149 513 134 q 564 178 549 165 q 586 200 578 192 q 602 184 593 194 q 619 167 612 175 q 579 127 602 149 q 531 83 557 106 q 478 39 506 60 q 424 1 451 18 q 371 -26 397 -16 q 322 -36 345 -36 q 292 -25 310 -36 q 258 3 275 -14 q 231 37 242 19 q 220 69 220 55 q 224 134 220 100 q 165 83 193 107 q 107 37 136 58 q 48 -2 79 16 q -16 -33 18 -20 q -33 -37 -26 -37 q -51 -31 -40 -37 q -72 -13 -62 -24 q -90 11 -82 -3 q -97 36 -97 24 q -86 98 -97 64 q -56 169 -76 132 q -7 241 -36 205 q 58 310 22 277 q 139 368 95 342 q 233 410 183 394 q 258 401 243 408 q 286 387 273 394 q 341 527 310 456 q 409 662 373 597 q 483 783 444 726 q 560 883 522 840 q 636 954 599 927 q 708 987 674 981 q 740 978 723 987 q 771 954 756 968 q 797 925 786 940 q 810 900 807 910 q 794 827 810 869 q 751 738 779 786 q 686 638 724 690 q 605 532 648 586 q 514 425 562 478 q 418 321 466 371 q 386 189 397 252 q 374 75 374 126 m 714 905 q 686 888 703 905 q 649 841 669 871 q 605 770 628 811 q 558 680 582 728 q 511 576 534 631 q 466 465 487 521 q 563 590 517 527 q 643 709 608 652 q 698 812 677 765 q 718 889 718 859 q 718 899 718 893 q 714 905 718 905 m 71 98 q 137 130 93 98 q 237 214 181 161 q 252 278 243 245 q 271 343 260 310 q 194 283 232 317 q 127 216 157 249 q 80 154 98 182 q 62 110 62 125 q 71 98 62 98 m 1027 893 q 1014 846 1027 873 q 984 794 1002 820 q 945 746 966 768 q 909 710 925 723 q 899 716 906 711 q 884 728 892 721 q 871 740 877 734 q 864 747 865 746 q 880 762 870 753 q 898 782 889 772 q 914 803 907 792 q 921 821 921 813 q 915 841 921 832 q 900 857 908 850 q 883 869 891 864 q 873 876 876 873 q 883 903 875 888 q 900 933 890 918 q 919 959 909 947 q 932 972 928 970 q 957 965 941 972 q 988 945 972 957 q 1015 920 1004 934 q 1027 893 1027 905 z "},"":{"ha":974,"x_min":-57,"x_max":987,"o":"m 956 871 q 970 847 964 859 q 980 819 977 835 q 985 784 984 804 q 986 737 987 764 q 964 557 984 650 q 906 377 943 465 q 816 208 869 289 q 693 61 762 127 q 539 -53 623 -5 q 355 -121 454 -100 q 300 -82 324 -101 q 259 -47 277 -63 q 232 -19 242 -31 q 216 -1 221 -7 q 145 -84 180 -54 q 77 -115 111 -115 q 44 -106 60 -115 q 13 -83 28 -97 q -15 -51 -2 -68 q -37 -17 -28 -33 q -52 13 -46 -1 q -57 33 -57 26 q -48 108 -57 67 q -24 193 -40 149 q 14 286 -9 238 q 64 385 37 334 q -7 386 20 385 q -39 387 -35 386 q -32 408 -37 395 q -23 433 -28 420 q -13 458 -18 446 q -4 475 -7 469 q 35 477 1 476 q 121 480 69 479 q 210 606 163 544 q 309 726 257 668 q 339 911 327 819 q 354 1086 351 1002 q 425 1038 393 1062 q 479 995 456 1015 q 525 951 505 972 l 523 921 q 650 993 588 967 q 770 1019 712 1019 q 823 1004 797 1019 q 873 966 850 989 q 918 918 897 944 q 956 871 939 892 m 610 484 q 603 457 607 471 q 593 430 598 444 q 582 405 587 416 q 572 387 576 393 l 394 386 q 312 177 356 275 q 222 7 269 78 q 379 53 307 20 q 513 133 452 85 q 624 240 574 181 q 712 365 673 300 q 780 498 751 430 q 827 631 808 566 q 855 755 846 696 q 864 861 864 814 q 860 890 864 876 q 849 918 857 905 q 830 937 841 930 q 804 945 819 945 q 741 929 776 945 q 665 887 705 914 q 582 822 625 859 q 494 739 538 784 q 464 614 481 679 q 426 483 447 550 l 610 484 m 47 12 q 79 33 60 7 q 122 109 98 59 q 171 230 145 159 q 222 385 197 301 l 201 385 q 135 281 165 332 q 83 186 104 231 q 49 104 61 141 q 37 41 37 67 q 47 12 37 18 z "},"":{"ha":444,"x_min":-92,"x_max":549,"o":"m 486 842 q 514 808 500 826 q 549 760 529 789 q 478 737 516 749 q 398 711 440 724 q 407 645 404 679 q 410 576 410 612 q 398 453 410 520 q 363 317 386 385 q 308 185 341 249 q 233 72 275 121 q 140 -7 191 22 q 31 -37 89 -37 q -12 -25 10 -37 q -51 5 -33 -13 q -80 43 -68 23 q -92 79 -92 64 q -78 182 -92 131 q -34 277 -64 233 q 41 355 -5 321 q 150 407 87 389 q 157 409 152 408 q 165 410 162 410 q 185 402 175 410 q 205 387 196 395 q 220 369 214 378 q 227 358 227 361 q 216 350 225 355 q 193 332 208 345 q 157 297 178 320 q 113 237 137 275 q 63 138 76 182 q 50 69 50 94 q 65 49 50 49 q 119 70 92 49 q 173 127 146 92 q 221 208 199 162 q 261 304 244 254 q 289 402 279 353 q 298 494 298 452 q 293 586 298 543 q 278 668 288 629 q 150 618 211 644 q 131 644 140 627 q 113 682 121 661 q 177 712 141 696 q 252 745 213 728 q 174 864 220 814 l 275 957 q 375 796 341 891 q 449 826 418 814 q 486 842 479 838 z "},"":{"ha":974,"x_min":-57,"x_max":987,"o":"m 956 871 q 970 847 964 859 q 980 819 977 835 q 985 784 984 804 q 986 737 987 764 q 964 557 984 650 q 906 377 943 465 q 816 208 869 289 q 693 61 762 127 q 539 -53 623 -5 q 355 -121 454 -100 q 300 -82 324 -101 q 259 -47 277 -63 q 232 -19 242 -31 q 216 -1 221 -7 q 145 -84 180 -54 q 77 -115 111 -115 q 44 -106 60 -115 q 13 -83 28 -97 q -15 -51 -2 -68 q -37 -17 -28 -33 q -52 13 -46 -1 q -57 33 -57 26 q -48 108 -57 67 q -24 193 -40 149 q 14 286 -9 238 q 64 385 37 334 q -7 386 20 385 q -39 387 -35 386 q -32 408 -37 395 q -23 433 -28 420 q -13 458 -18 446 q -4 475 -7 469 q 35 477 1 476 q 121 480 69 479 q 210 606 163 544 q 309 726 257 668 q 339 911 327 819 q 354 1086 351 1002 q 425 1038 393 1062 q 479 995 456 1015 q 525 951 505 972 l 523 921 q 650 993 588 967 q 770 1019 712 1019 q 823 1004 797 1019 q 873 966 850 989 q 918 918 897 944 q 956 871 939 892 m 610 484 q 603 457 607 471 q 593 430 598 444 q 582 405 587 416 q 572 387 576 393 l 394 386 q 312 177 356 275 q 222 7 269 78 q 379 53 307 20 q 513 133 452 85 q 624 240 574 181 q 712 365 673 300 q 780 498 751 430 q 827 631 808 566 q 855 755 846 696 q 864 861 864 814 q 860 890 864 876 q 849 918 857 905 q 830 937 841 930 q 804 945 819 945 q 741 929 776 945 q 665 887 705 914 q 582 822 625 859 q 494 739 538 784 q 464 614 481 679 q 426 483 447 550 l 610 484 m 47 12 q 79 33 60 7 q 122 109 98 59 q 171 230 145 159 q 222 385 197 301 l 201 385 q 135 281 165 332 q 83 186 104 231 q 49 104 61 141 q 37 41 37 67 q 47 12 37 18 z "},"":{"ha":618,"x_min":-97,"x_max":854,"o":"m 374 75 q 385 58 374 58 q 415 66 397 58 q 453 88 433 75 q 493 117 473 101 q 531 149 513 134 q 564 178 549 165 q 586 200 578 192 q 602 184 593 194 q 619 167 612 175 q 579 127 602 149 q 531 83 557 106 q 478 39 506 60 q 424 1 451 18 q 371 -26 397 -16 q 322 -36 345 -36 q 292 -25 310 -36 q 258 3 275 -14 q 231 37 242 19 q 220 69 220 55 q 224 134 220 100 q 165 83 193 107 q 107 37 136 58 q 48 -2 79 16 q -16 -33 18 -20 q -33 -37 -26 -37 q -51 -31 -40 -37 q -72 -13 -62 -24 q -90 11 -82 -3 q -97 36 -97 24 q -86 98 -97 64 q -56 169 -76 132 q -7 241 -36 205 q 58 310 22 277 q 139 368 95 342 q 233 410 183 394 q 258 401 243 408 q 286 387 273 394 q 332 505 307 446 q 387 621 357 564 l 261 612 q 268 633 263 621 q 277 659 272 646 q 287 683 282 671 q 296 700 292 694 q 356 705 319 702 q 437 711 392 707 q 505 815 470 766 q 575 900 541 863 q 644 959 610 937 q 708 987 677 982 q 740 978 723 987 q 771 954 756 968 q 797 925 786 940 q 810 900 807 910 q 793 824 810 867 q 746 730 776 781 q 820 734 791 733 q 854 736 850 736 q 847 710 852 724 q 837 683 842 696 q 826 658 831 669 q 817 640 821 646 q 772 639 806 640 q 684 635 738 638 q 559 476 629 557 q 418 321 490 395 q 386 189 397 252 q 374 75 374 126 m 71 98 q 137 130 93 98 q 237 214 181 161 q 252 278 243 245 q 271 343 260 310 q 194 283 232 317 q 127 216 157 249 q 80 154 98 182 q 62 110 62 125 q 71 98 62 98 m 578 720 q 615 722 597 721 q 652 724 633 723 q 701 818 683 776 q 718 889 718 861 q 718 899 718 893 q 714 905 718 905 q 689 892 704 905 q 657 854 675 878 q 619 795 639 829 q 578 720 599 761 m 534 629 q 499 548 516 589 q 466 465 481 507 q 532 549 500 507 q 593 631 564 591 l 534 629 z "},"":{"ha":764,"x_min":-56,"x_max":838,"o":"m 571 660 q 621 712 597 681 q 665 778 646 743 q 695 848 684 812 q 707 916 707 884 q 695 958 707 941 q 652 975 683 975 q 593 963 625 975 q 529 929 562 951 q 466 879 496 908 q 411 814 435 849 q 373 742 387 780 q 358 665 358 704 q 366 608 358 632 q 390 565 374 584 q 428 531 406 547 q 478 498 450 515 q 321 410 393 463 q 198 296 250 357 q 118 171 146 235 q 89 46 89 106 q 99 9 89 25 q 131 -7 109 -7 q 195 9 159 -7 q 268 50 230 24 q 344 106 306 75 q 416 169 382 137 q 476 229 450 200 q 518 277 503 257 q 589 219 559 244 q 644 172 618 193 q 606 129 633 157 q 542 69 579 101 q 461 4 505 37 q 373 -55 418 -28 q 283 -98 328 -81 q 203 -115 239 -115 q 139 -104 171 -115 q 79 -76 108 -94 q 27 -34 51 -58 q -15 14 3 -11 q -44 64 -33 39 q -56 111 -55 90 l -56 127 q -31 262 -56 199 q 38 378 -5 325 q 141 474 82 431 q 267 549 199 517 q 242 576 254 562 q 221 608 231 590 q 207 648 212 626 q 201 699 201 671 q 218 791 201 746 q 264 877 235 837 q 331 950 292 917 q 412 1007 369 983 q 499 1045 454 1031 q 586 1059 544 1059 q 684 1044 656 1059 q 733 1009 707 1032 q 783 959 760 986 q 822 903 806 931 q 838 852 838 875 q 825 772 838 814 q 791 690 812 730 q 743 615 770 650 q 688 557 715 581 l 571 660 m 705 1141 q 676 1129 690 1133 q 643 1120 663 1125 q 620 1160 633 1137 q 594 1208 608 1182 q 568 1263 581 1234 q 545 1324 555 1293 q 607 1344 579 1337 q 648 1353 635 1351 l 705 1141 l 705 1141 z "},"":{"ha":437,"x_min":-97,"x_max":439,"o":"m 439 167 q 321 64 376 106 q 216 -2 266 23 q 120 -38 165 -27 q 31 -49 74 -49 q -10 -35 12 -49 q -52 -2 -33 -22 q -84 38 -71 17 q -97 74 -97 59 q -82 176 -97 130 q -41 260 -66 222 q 16 326 -16 297 q 83 373 48 354 q 153 401 118 392 q 216 411 187 411 q 258 399 237 411 q 296 369 279 387 q 323 332 313 351 q 334 298 334 313 q 314 251 334 275 q 260 202 295 227 q 175 151 224 177 q 66 98 125 125 q 64 66 64 82 q 73 38 64 45 q 107 31 82 31 q 192 45 152 31 q 268 84 231 60 q 338 138 304 108 q 406 200 372 169 l 439 167 m 200 336 q 170 322 186 336 q 138 283 154 307 q 106 229 121 260 q 81 165 92 198 q 130 199 106 181 q 173 238 154 218 q 203 279 192 258 q 215 321 215 300 q 211 332 215 327 q 200 336 208 336 m 298 485 q 269 473 282 477 q 235 464 255 469 q 213 504 225 481 q 187 552 200 526 q 161 608 174 578 q 137 668 148 637 q 199 688 172 681 q 241 697 227 695 l 298 485 l 298 485 z "},"":{"ha":764,"x_min":-56,"x_max":838,"o":"m 571 660 q 621 712 597 681 q 665 778 646 743 q 695 848 684 812 q 707 916 707 884 q 695 958 707 941 q 652 975 683 975 q 593 963 625 975 q 529 929 562 951 q 466 879 496 908 q 411 814 435 849 q 373 742 387 780 q 358 665 358 704 q 366 608 358 632 q 390 565 374 584 q 428 531 406 547 q 478 498 450 515 q 321 410 393 463 q 198 296 250 357 q 118 171 146 235 q 89 46 89 106 q 99 9 89 25 q 131 -7 109 -7 q 195 9 159 -7 q 268 50 230 24 q 344 106 306 75 q 416 169 382 137 q 476 229 450 200 q 518 277 503 257 q 589 219 559 244 q 644 172 618 193 q 606 129 633 157 q 542 69 579 101 q 461 4 505 37 q 373 -55 418 -28 q 283 -98 328 -81 q 203 -115 239 -115 q 139 -104 171 -115 q 79 -76 108 -94 q 27 -34 51 -58 q -15 14 3 -11 q -44 64 -33 39 q -56 111 -55 90 l -56 127 q -31 262 -56 199 q 38 378 -5 325 q 141 474 82 431 q 267 549 199 517 q 242 576 254 562 q 221 608 231 590 q 207 648 212 626 q 201 699 201 671 q 218 791 201 746 q 264 877 235 837 q 331 950 292 917 q 412 1007 369 983 q 499 1045 454 1031 q 586 1059 544 1059 q 684 1044 656 1059 q 733 1009 707 1032 q 783 959 760 986 q 822 903 806 931 q 838 852 838 875 q 825 772 838 814 q 791 690 812 730 q 743 615 770 650 q 688 557 715 581 l 571 660 m 812 1286 q 730 1198 774 1240 q 642 1120 686 1156 q 631 1127 638 1122 q 616 1139 624 1133 q 602 1152 609 1146 q 593 1161 595 1158 q 631 1211 610 1182 q 671 1267 652 1239 q 707 1319 691 1295 q 729 1354 722 1342 q 756 1337 743 1348 q 781 1316 770 1326 q 800 1298 792 1306 q 812 1286 808 1289 z "},"":{"ha":437,"x_min":-97,"x_max":439,"o":"m 439 167 q 321 64 376 106 q 216 -2 266 23 q 120 -38 165 -27 q 31 -49 74 -49 q -10 -35 12 -49 q -52 -2 -33 -22 q -84 38 -71 17 q -97 74 -97 59 q -82 176 -97 130 q -41 260 -66 222 q 16 326 -16 297 q 83 373 48 354 q 153 401 118 392 q 216 411 187 411 q 258 399 237 411 q 296 369 279 387 q 323 332 313 351 q 334 298 334 313 q 314 251 334 275 q 260 202 295 227 q 175 151 224 177 q 66 98 125 125 q 64 66 64 82 q 73 38 64 45 q 107 31 82 31 q 192 45 152 31 q 268 84 231 60 q 338 138 304 108 q 406 200 372 169 l 439 167 m 200 336 q 170 322 186 336 q 138 283 154 307 q 106 229 121 260 q 81 165 92 198 q 130 199 106 181 q 173 238 154 218 q 203 279 192 258 q 215 321 215 300 q 211 332 215 327 q 200 336 208 336 m 404 631 q 322 542 366 584 q 233 464 278 500 q 223 471 230 466 q 208 484 216 477 q 194 496 201 490 q 184 505 187 502 q 222 555 201 526 q 263 611 243 583 q 298 663 283 640 q 321 699 314 686 q 348 681 335 692 q 373 661 361 671 q 392 642 384 650 q 404 631 400 633 z "},"":{"ha":764,"x_min":-56,"x_max":838,"o":"m 571 660 q 621 712 597 681 q 665 778 646 743 q 695 848 684 812 q 707 916 707 884 q 695 958 707 941 q 652 975 683 975 q 593 963 625 975 q 529 929 562 951 q 466 879 496 908 q 411 814 435 849 q 373 742 387 780 q 358 665 358 704 q 366 608 358 632 q 390 565 374 584 q 428 531 406 547 q 478 498 450 515 q 321 410 393 463 q 198 296 250 357 q 118 171 146 235 q 89 46 89 106 q 99 9 89 25 q 131 -7 109 -7 q 195 9 159 -7 q 268 50 230 24 q 344 106 306 75 q 416 169 382 137 q 476 229 450 200 q 518 277 503 257 q 589 219 559 244 q 644 172 618 193 q 606 129 633 157 q 542 69 579 101 q 461 4 505 37 q 373 -55 418 -28 q 283 -98 328 -81 q 203 -115 239 -115 q 139 -104 171 -115 q 79 -76 108 -94 q 27 -34 51 -58 q -15 14 3 -11 q -44 64 -33 39 q -56 111 -55 90 l -56 127 q -31 262 -56 199 q 38 378 -5 325 q 141 474 82 431 q 267 549 199 517 q 242 576 254 562 q 221 608 231 590 q 207 648 212 626 q 201 699 201 671 q 218 791 201 746 q 264 877 235 837 q 331 950 292 917 q 412 1007 369 983 q 499 1045 454 1031 q 586 1059 544 1059 q 684 1044 656 1059 q 733 1009 707 1032 q 783 959 760 986 q 822 903 806 931 q 838 852 838 875 q 825 772 838 814 q 791 690 812 730 q 743 615 770 650 q 688 557 715 581 l 571 660 m 786 1132 q 750 1126 768 1128 q 711 1120 732 1123 q 691 1178 701 1145 q 673 1247 681 1211 q 605 1189 639 1217 q 526 1126 571 1161 q 510 1145 519 1137 q 490 1166 502 1153 q 538 1211 513 1187 q 587 1259 564 1235 q 633 1304 611 1282 q 672 1343 654 1326 q 723 1331 703 1339 q 761 1313 743 1323 q 766 1269 763 1294 q 772 1218 769 1244 q 779 1170 776 1193 q 786 1132 783 1147 z "},"":{"ha":437,"x_min":-97,"x_max":439,"o":"m 439 167 q 321 64 376 106 q 216 -2 266 23 q 120 -38 165 -27 q 31 -49 74 -49 q -10 -35 12 -49 q -52 -2 -33 -22 q -84 38 -71 17 q -97 74 -97 59 q -82 176 -97 130 q -41 260 -66 222 q 16 326 -16 297 q 83 373 48 354 q 153 401 118 392 q 216 411 187 411 q 258 399 237 411 q 296 369 279 387 q 323 332 313 351 q 334 298 334 313 q 314 251 334 275 q 260 202 295 227 q 175 151 224 177 q 66 98 125 125 q 64 66 64 82 q 73 38 64 45 q 107 31 82 31 q 192 45 152 31 q 268 84 231 60 q 338 138 304 108 q 406 200 372 169 l 439 167 m 200 336 q 170 322 186 336 q 138 283 154 307 q 106 229 121 260 q 81 165 92 198 q 130 199 106 181 q 173 238 154 218 q 203 279 192 258 q 215 321 215 300 q 211 332 215 327 q 200 336 208 336 m 378 476 q 342 470 361 473 q 303 464 324 467 q 283 522 294 490 q 266 591 273 555 q 197 533 231 562 q 119 471 163 505 q 103 489 111 481 q 83 510 94 497 q 131 555 106 531 q 180 603 156 579 q 225 648 203 627 q 264 688 247 670 q 315 675 295 684 q 353 657 336 667 q 358 613 355 638 q 365 563 361 588 q 372 514 368 537 q 378 476 375 491 z "},"":{"ha":764,"x_min":-56,"x_max":838,"o":"m 571 660 q 621 712 597 681 q 665 778 646 743 q 695 848 684 812 q 707 916 707 884 q 695 958 707 941 q 652 975 683 975 q 593 963 625 975 q 529 929 562 951 q 466 879 496 908 q 411 814 435 849 q 373 742 387 780 q 358 665 358 704 q 366 608 358 632 q 390 565 374 584 q 428 531 406 547 q 478 498 450 515 q 321 410 393 463 q 198 296 250 357 q 118 171 146 235 q 89 46 89 106 q 99 9 89 25 q 131 -7 109 -7 q 195 9 159 -7 q 268 50 230 24 q 344 106 306 75 q 416 169 382 137 q 476 229 450 200 q 518 277 503 257 q 589 219 559 244 q 644 172 618 193 q 606 129 633 157 q 542 69 579 101 q 461 4 505 37 q 373 -55 418 -28 q 283 -98 328 -81 q 203 -115 239 -115 q 139 -104 171 -115 q 79 -76 108 -94 q 27 -34 51 -58 q -15 14 3 -11 q -44 64 -33 39 q -56 111 -55 90 l -56 127 q -31 262 -56 199 q 38 378 -5 325 q 141 474 82 431 q 267 549 199 517 q 242 576 254 562 q 221 608 231 590 q 207 648 212 626 q 201 699 201 671 q 218 791 201 746 q 264 877 235 837 q 331 950 292 917 q 412 1007 369 983 q 499 1045 454 1031 q 586 1059 544 1059 q 684 1044 656 1059 q 733 1009 707 1032 q 783 959 760 986 q 822 903 806 931 q 838 852 838 875 q 825 772 838 814 q 791 690 812 730 q 743 615 770 650 q 688 557 715 581 l 571 660 m 643 1255 q 635 1234 643 1251 q 616 1199 627 1217 q 595 1167 606 1181 q 581 1153 585 1153 q 559 1160 576 1153 q 526 1175 543 1166 q 495 1193 509 1184 q 481 1204 481 1201 q 489 1234 481 1215 q 507 1271 497 1253 q 527 1303 517 1290 q 540 1317 536 1317 q 566 1309 549 1317 q 600 1289 583 1300 q 630 1268 617 1278 q 643 1255 643 1258 m 838 1240 q 829 1220 838 1236 q 811 1186 821 1204 q 790 1154 800 1168 q 775 1139 780 1139 q 754 1146 770 1139 q 721 1161 738 1152 q 690 1178 703 1170 q 676 1190 676 1187 q 684 1219 676 1200 q 702 1257 692 1238 q 722 1289 712 1276 q 734 1303 731 1303 q 761 1294 743 1303 q 795 1275 778 1286 q 825 1255 812 1265 q 838 1240 838 1244 z "},"":{"ha":437,"x_min":-97,"x_max":439,"o":"m 439 167 q 321 64 376 106 q 216 -2 266 23 q 120 -38 165 -27 q 31 -49 74 -49 q -10 -35 12 -49 q -52 -2 -33 -22 q -84 38 -71 17 q -97 74 -97 59 q -82 176 -97 130 q -41 260 -66 222 q 16 326 -16 297 q 83 373 48 354 q 153 401 118 392 q 216 411 187 411 q 258 399 237 411 q 296 369 279 387 q 323 332 313 351 q 334 298 334 313 q 314 251 334 275 q 260 202 295 227 q 175 151 224 177 q 66 98 125 125 q 64 66 64 82 q 73 38 64 45 q 107 31 82 31 q 192 45 152 31 q 268 84 231 60 q 338 138 304 108 q 406 200 372 169 l 439 167 m 200 336 q 170 322 186 336 q 138 283 154 307 q 106 229 121 260 q 81 165 92 198 q 130 199 106 181 q 173 238 154 218 q 203 279 192 258 q 215 321 215 300 q 211 332 215 327 q 200 336 208 336 m 235 599 q 227 578 235 595 q 209 544 219 562 q 188 511 198 526 q 173 497 178 497 q 152 504 168 497 q 118 519 136 511 q 87 537 101 528 q 74 549 74 545 q 82 578 74 559 q 100 615 90 597 q 119 648 110 634 q 132 661 129 661 q 158 653 141 661 q 193 633 176 644 q 222 612 210 623 q 235 599 235 602 m 430 585 q 422 564 430 581 q 403 530 414 548 q 382 498 393 512 q 368 484 372 484 q 347 490 363 484 q 313 505 330 496 q 282 523 296 514 q 269 534 269 531 q 276 564 269 545 q 294 601 284 583 q 314 633 304 620 q 327 647 323 647 q 353 638 336 647 q 387 620 370 630 q 417 599 404 609 q 430 585 430 589 z "},"":{"ha":764,"x_min":-56,"x_max":838,"o":"m 571 660 q 621 712 597 681 q 665 778 646 743 q 695 848 684 812 q 707 916 707 884 q 695 958 707 941 q 652 975 683 975 q 593 963 625 975 q 529 929 562 951 q 466 879 496 908 q 411 814 435 849 q 373 742 387 780 q 358 665 358 704 q 366 608 358 632 q 390 565 374 584 q 428 531 406 547 q 478 498 450 515 q 321 410 393 463 q 198 296 250 357 q 118 171 146 235 q 89 46 89 106 q 99 9 89 25 q 131 -7 109 -7 q 195 9 159 -7 q 268 50 230 24 q 344 106 306 75 q 416 169 382 137 q 476 229 450 200 q 518 277 503 257 q 589 219 559 244 q 644 172 618 193 q 606 129 633 157 q 542 69 579 101 q 461 4 505 37 q 373 -55 418 -28 q 283 -98 328 -81 q 203 -115 239 -115 q 139 -104 171 -115 q 79 -76 108 -94 q 27 -34 51 -58 q -15 14 3 -11 q -44 64 -33 39 q -56 111 -55 90 l -56 127 q -31 262 -56 199 q 38 378 -5 325 q 141 474 82 431 q 267 549 199 517 q 242 576 254 562 q 221 608 231 590 q 207 648 212 626 q 201 699 201 671 q 218 791 201 746 q 264 877 235 837 q 331 950 292 917 q 412 1007 369 983 q 499 1045 454 1031 q 586 1059 544 1059 q 684 1044 656 1059 q 733 1009 707 1032 q 783 959 760 986 q 822 903 806 931 q 838 852 838 875 q 825 772 838 814 q 791 690 812 730 q 743 615 770 650 q 688 557 715 581 l 571 660 m 829 1272 q 801 1220 814 1240 q 778 1185 787 1200 q 746 1184 769 1184 q 693 1184 723 1184 q 631 1183 664 1183 q 569 1183 597 1183 q 518 1183 540 1183 q 490 1183 497 1183 q 512 1222 500 1200 q 536 1268 524 1243 q 561 1268 539 1268 q 613 1269 583 1268 q 679 1269 644 1269 q 746 1270 714 1270 q 800 1271 777 1271 q 829 1272 823 1272 z "},"":{"ha":437,"x_min":-97,"x_max":439,"o":"m 439 167 q 321 64 376 106 q 216 -2 266 23 q 120 -38 165 -27 q 31 -49 74 -49 q -10 -35 12 -49 q -52 -2 -33 -22 q -84 38 -71 17 q -97 74 -97 59 q -82 176 -97 130 q -41 260 -66 222 q 16 326 -16 297 q 83 373 48 354 q 153 401 118 392 q 216 411 187 411 q 258 399 237 411 q 296 369 279 387 q 323 332 313 351 q 334 298 334 313 q 314 251 334 275 q 260 202 295 227 q 175 151 224 177 q 66 98 125 125 q 64 66 64 82 q 73 38 64 45 q 107 31 82 31 q 192 45 152 31 q 268 84 231 60 q 338 138 304 108 q 406 200 372 169 l 439 167 m 200 336 q 170 322 186 336 q 138 283 154 307 q 106 229 121 260 q 81 165 92 198 q 130 199 106 181 q 173 238 154 218 q 203 279 192 258 q 215 321 215 300 q 211 332 215 327 q 200 336 208 336 m 421 616 q 393 564 407 584 q 370 529 380 544 q 338 528 361 528 q 286 528 315 528 q 223 528 256 528 q 161 528 190 528 q 111 528 132 528 q 83 528 90 528 q 104 566 92 545 q 128 612 117 587 q 153 612 132 612 q 205 613 175 612 q 271 613 236 613 q 338 614 307 614 q 392 615 370 615 q 421 616 415 616 z "},"":{"ha":764,"x_min":-56,"x_max":838,"o":"m 571 660 q 621 712 597 681 q 665 778 646 743 q 695 848 684 812 q 707 916 707 884 q 695 958 707 941 q 652 975 683 975 q 593 963 625 975 q 529 929 562 951 q 466 879 496 908 q 411 814 435 849 q 373 742 387 780 q 358 665 358 704 q 366 608 358 632 q 390 565 374 584 q 428 531 406 547 q 478 498 450 515 q 321 410 393 463 q 198 296 250 357 q 118 171 146 235 q 89 46 89 106 q 99 9 89 25 q 131 -7 109 -7 q 195 9 159 -7 q 268 50 230 24 q 344 106 306 75 q 416 169 382 137 q 476 229 450 200 q 518 277 503 257 q 589 219 559 244 q 644 172 618 193 q 606 129 633 157 q 542 69 579 101 q 461 4 505 37 q 373 -55 418 -28 q 283 -98 328 -81 q 203 -115 239 -115 q 139 -104 171 -115 q 79 -76 108 -94 q 27 -34 51 -58 q -15 14 3 -11 q -44 64 -33 39 q -56 111 -55 90 l -56 127 q -31 262 -56 199 q 38 378 -5 325 q 141 474 82 431 q 267 549 199 517 q 242 576 254 562 q 221 608 231 590 q 207 648 212 626 q 201 699 201 671 q 218 791 201 746 q 264 877 235 837 q 331 950 292 917 q 412 1007 369 983 q 499 1045 454 1031 q 586 1059 544 1059 q 684 1044 656 1059 q 733 1009 707 1032 q 783 959 760 986 q 822 903 806 931 q 838 852 838 875 q 825 772 838 814 q 791 690 812 730 q 743 615 770 650 q 688 557 715 581 l 571 660 m 815 1286 q 797 1244 808 1270 q 766 1194 786 1218 q 716 1152 746 1169 q 640 1134 686 1134 q 601 1138 619 1134 q 570 1151 583 1142 q 548 1173 556 1159 q 541 1206 541 1186 q 542 1229 541 1216 q 546 1256 543 1242 q 554 1284 549 1270 q 565 1310 559 1298 q 590 1310 575 1310 q 618 1309 604 1310 q 644 1306 632 1308 q 660 1304 655 1305 q 652 1288 657 1299 q 642 1263 647 1276 q 634 1237 637 1251 q 631 1214 631 1224 q 634 1205 631 1208 q 646 1202 637 1202 q 684 1212 667 1202 q 714 1237 701 1221 q 735 1272 726 1253 q 749 1309 743 1291 q 790 1296 776 1301 q 815 1286 805 1291 z "},"":{"ha":437,"x_min":-97,"x_max":439,"o":"m 439 167 q 321 64 376 106 q 216 -2 266 23 q 120 -38 165 -27 q 31 -49 74 -49 q -10 -35 12 -49 q -52 -2 -33 -22 q -84 38 -71 17 q -97 74 -97 59 q -82 176 -97 130 q -41 260 -66 222 q 16 326 -16 297 q 83 373 48 354 q 153 401 118 392 q 216 411 187 411 q 258 399 237 411 q 296 369 279 387 q 323 332 313 351 q 334 298 334 313 q 314 251 334 275 q 260 202 295 227 q 175 151 224 177 q 66 98 125 125 q 64 66 64 82 q 73 38 64 45 q 107 31 82 31 q 192 45 152 31 q 268 84 231 60 q 338 138 304 108 q 406 200 372 169 l 439 167 m 200 336 q 170 322 186 336 q 138 283 154 307 q 106 229 121 260 q 81 165 92 198 q 130 199 106 181 q 173 238 154 218 q 203 279 192 258 q 215 321 215 300 q 211 332 215 327 q 200 336 208 336 m 408 631 q 390 588 401 614 q 358 538 378 562 q 308 496 338 513 q 233 478 278 478 q 194 482 212 478 q 162 495 176 486 q 141 517 149 503 q 133 550 133 530 q 134 573 133 560 q 139 600 136 586 q 146 628 142 614 q 157 654 151 642 q 182 654 168 654 q 211 653 197 654 q 236 651 224 652 q 252 648 248 650 q 244 632 250 643 q 235 608 239 621 q 227 582 230 595 q 223 558 223 568 q 227 549 223 553 q 238 546 230 546 q 277 556 260 546 q 306 581 294 566 q 327 616 319 597 q 341 653 336 635 q 383 640 368 646 q 408 631 397 635 z "},"":{"ha":764,"x_min":-56,"x_max":838,"o":"m 571 660 q 621 712 597 681 q 665 778 646 743 q 695 848 684 812 q 707 916 707 884 q 695 958 707 941 q 652 975 683 975 q 593 963 625 975 q 529 929 562 951 q 466 879 496 908 q 411 814 435 849 q 373 742 387 780 q 358 665 358 704 q 366 608 358 632 q 390 565 374 584 q 428 531 406 547 q 478 498 450 515 q 321 410 393 463 q 198 296 250 357 q 118 171 146 235 q 89 46 89 106 q 99 9 89 25 q 131 -7 109 -7 q 195 9 159 -7 q 268 50 230 24 q 344 106 306 75 q 416 169 382 137 q 476 229 450 200 q 518 277 503 257 q 589 219 559 244 q 644 172 618 193 q 606 129 633 157 q 542 69 579 101 q 461 4 505 37 q 373 -55 418 -28 q 283 -98 328 -81 q 203 -115 239 -115 q 139 -104 171 -115 q 79 -76 108 -94 q 27 -34 51 -58 q -15 14 3 -11 q -44 64 -33 39 q -56 111 -55 90 l -56 127 q -31 262 -56 199 q 38 378 -5 325 q 141 474 82 431 q 267 549 199 517 q 242 576 254 562 q 221 608 231 590 q 207 648 212 626 q 201 699 201 671 q 218 791 201 746 q 264 877 235 837 q 331 950 292 917 q 412 1007 369 983 q 499 1045 454 1031 q 586 1059 544 1059 q 684 1044 656 1059 q 733 1009 707 1032 q 783 959 760 986 q 822 903 806 931 q 838 852 838 875 q 825 772 838 814 q 791 690 812 730 q 743 615 770 650 q 688 557 715 581 l 571 660 m 733 1240 q 725 1220 733 1236 q 706 1186 717 1204 q 686 1154 696 1168 q 671 1139 675 1139 q 650 1146 666 1139 q 617 1161 634 1152 q 586 1178 600 1170 q 572 1190 572 1187 q 580 1219 572 1200 q 598 1257 588 1238 q 617 1289 608 1276 q 631 1303 627 1303 q 656 1294 640 1303 q 690 1275 673 1286 q 720 1255 707 1265 q 733 1240 733 1244 z "},"":{"ha":437,"x_min":-97,"x_max":439,"o":"m 439 167 q 321 64 376 106 q 216 -2 266 23 q 120 -38 165 -27 q 31 -49 74 -49 q -10 -35 12 -49 q -52 -2 -33 -22 q -84 38 -71 17 q -97 74 -97 59 q -82 176 -97 130 q -41 260 -66 222 q 16 326 -16 297 q 83 373 48 354 q 153 401 118 392 q 216 411 187 411 q 258 399 237 411 q 296 369 279 387 q 323 332 313 351 q 334 298 334 313 q 314 251 334 275 q 260 202 295 227 q 175 151 224 177 q 66 98 125 125 q 64 66 64 82 q 73 38 64 45 q 107 31 82 31 q 192 45 152 31 q 268 84 231 60 q 338 138 304 108 q 406 200 372 169 l 439 167 m 200 336 q 170 322 186 336 q 138 283 154 307 q 106 229 121 260 q 81 165 92 198 q 130 199 106 181 q 173 238 154 218 q 203 279 192 258 q 215 321 215 300 q 211 332 215 327 q 200 336 208 336 m 326 585 q 317 564 326 581 q 299 530 309 548 q 278 498 288 512 q 263 484 268 484 q 242 490 258 484 q 209 505 227 496 q 178 523 192 514 q 165 534 165 531 q 173 564 165 545 q 190 601 180 583 q 210 633 200 620 q 223 647 219 647 q 249 638 232 647 q 283 620 266 630 q 313 599 300 609 q 326 585 326 589 z "},"":{"ha":764,"x_min":-56,"x_max":838,"o":"m 328 -314 q 277 -334 309 -324 q 203 -345 245 -345 q 177 -336 192 -345 q 148 -315 162 -328 q 125 -290 134 -303 q 115 -267 115 -277 q 123 -224 115 -245 q 143 -184 131 -203 q 171 -147 156 -165 q 201 -115 186 -130 q 107 -91 153 -115 q 26 -32 62 -68 q -32 46 -9 4 q -56 127 -54 89 q -31 262 -56 199 q 38 378 -5 325 q 141 474 82 431 q 267 550 199 517 q 242 576 254 562 q 221 609 231 591 q 207 649 212 627 q 201 699 201 671 q 218 791 201 746 q 264 877 235 837 q 331 950 292 917 q 412 1007 369 983 q 499 1045 454 1031 q 586 1059 544 1059 q 684 1044 656 1059 q 733 1009 707 1032 q 783 959 760 986 q 822 903 806 931 q 838 852 838 875 q 825 772 838 814 q 791 690 812 730 q 743 615 770 650 q 688 557 715 581 l 571 660 q 621 712 597 681 q 665 778 646 743 q 695 848 684 812 q 707 916 707 884 q 695 958 707 941 q 652 975 683 975 q 593 963 625 975 q 529 929 562 951 q 466 879 496 908 q 411 814 435 849 q 373 742 387 780 q 358 665 358 704 q 366 608 358 632 q 390 565 374 584 q 428 531 406 547 q 478 498 450 515 q 321 410 393 463 q 198 296 250 357 q 118 171 146 235 q 89 46 89 106 q 99 9 89 25 q 131 -7 109 -7 q 195 9 159 -7 q 268 50 230 24 q 344 106 306 75 q 416 169 382 137 q 476 229 450 200 q 518 277 503 257 q 589 219 559 244 q 644 172 618 193 q 598 120 630 153 q 523 50 567 87 q 424 -24 479 12 q 310 -87 370 -60 q 274 -112 294 -94 q 235 -153 254 -130 q 204 -198 217 -175 q 192 -237 192 -221 q 198 -252 192 -247 q 212 -257 204 -257 q 231 -255 220 -257 q 256 -248 243 -252 q 283 -238 270 -243 q 309 -227 297 -233 q 313 -248 311 -235 q 319 -273 316 -260 q 324 -297 321 -286 q 328 -314 326 -309 z "},"":{"ha":437,"x_min":-97,"x_max":439,"o":"m 244 -225 q 194 -245 226 -235 q 119 -256 161 -256 q 94 -247 109 -256 q 65 -227 79 -239 q 41 -201 51 -214 q 32 -178 32 -188 q 38 -140 32 -159 q 54 -105 44 -122 q 77 -72 64 -87 q 103 -41 90 -56 q 66 -47 84 -45 q 31 -49 48 -49 q -10 -35 12 -49 q -52 -2 -33 -22 q -84 38 -71 17 q -97 74 -97 59 q -82 176 -97 130 q -41 260 -66 222 q 16 326 -16 297 q 83 373 48 354 q 153 401 118 392 q 216 411 187 411 q 258 399 237 411 q 296 369 279 387 q 323 332 313 351 q 334 298 334 313 q 314 251 334 275 q 259 202 295 227 q 174 151 224 177 q 65 97 125 124 q 64 82 64 90 q 64 66 64 74 q 73 38 64 45 q 107 31 82 31 q 192 45 152 31 q 268 84 231 60 q 338 138 304 108 q 406 200 372 169 l 439 167 q 378 110 406 134 q 322 65 349 85 q 268 28 296 45 q 210 -4 241 12 q 178 -29 195 -12 q 145 -67 160 -46 q 119 -110 130 -88 q 109 -149 109 -132 q 115 -163 109 -158 q 129 -168 121 -168 q 148 -166 136 -168 q 173 -159 159 -163 q 200 -149 186 -155 q 225 -138 214 -144 q 230 -159 227 -146 q 235 -184 233 -172 q 240 -209 238 -197 q 244 -225 243 -220 m 200 336 q 170 322 186 336 q 137 284 154 308 q 106 229 121 260 q 81 165 91 198 q 130 200 106 182 q 173 238 155 218 q 203 279 192 258 q 215 321 215 300 q 211 332 215 327 q 200 336 208 336 z "},"":{"ha":764,"x_min":-56,"x_max":842,"o":"m 571 660 q 621 712 597 681 q 665 778 646 743 q 695 848 684 812 q 707 916 707 884 q 695 958 707 941 q 652 975 683 975 q 593 963 625 975 q 529 929 562 951 q 466 879 496 908 q 411 814 435 849 q 373 742 387 780 q 358 665 358 704 q 366 608 358 632 q 390 565 374 584 q 428 531 406 547 q 478 498 450 515 q 321 410 393 463 q 198 296 250 357 q 118 171 146 235 q 89 46 89 106 q 99 9 89 25 q 131 -7 109 -7 q 195 9 159 -7 q 268 50 230 24 q 344 106 306 75 q 416 169 382 137 q 476 229 450 200 q 518 277 503 257 q 589 219 559 244 q 644 172 618 193 q 606 129 633 157 q 542 69 579 101 q 461 4 505 37 q 373 -55 418 -28 q 283 -98 328 -81 q 203 -115 239 -115 q 139 -104 171 -115 q 79 -76 108 -94 q 27 -34 51 -58 q -15 14 3 -11 q -44 64 -33 39 q -56 111 -55 90 l -56 127 q -31 262 -56 199 q 38 378 -5 325 q 141 474 82 431 q 267 549 199 517 q 242 576 254 562 q 221 608 231 590 q 207 648 212 626 q 201 699 201 671 q 218 791 201 746 q 264 877 235 837 q 331 950 292 917 q 412 1007 369 983 q 499 1045 454 1031 q 586 1059 544 1059 q 684 1044 656 1059 q 733 1009 707 1032 q 783 959 760 986 q 822 903 806 931 q 838 852 838 875 q 825 772 838 814 q 791 690 812 730 q 743 615 770 650 q 688 557 715 581 l 571 660 m 546 1317 q 564 1321 553 1319 q 587 1326 575 1324 q 612 1330 600 1328 q 635 1333 625 1332 l 652 1198 q 725 1261 691 1231 q 795 1329 758 1292 q 820 1309 809 1321 q 842 1284 830 1296 q 751 1196 795 1238 q 660 1120 707 1154 q 614 1123 634 1120 q 574 1134 595 1126 q 565 1174 570 1150 q 556 1224 560 1198 q 550 1275 553 1250 q 546 1317 547 1299 z "},"":{"ha":437,"x_min":-97,"x_max":439,"o":"m 439 167 q 321 64 376 106 q 216 -2 266 23 q 120 -38 165 -27 q 31 -49 74 -49 q -10 -35 12 -49 q -52 -2 -33 -22 q -84 38 -71 17 q -97 74 -97 59 q -82 176 -97 130 q -41 260 -66 222 q 16 326 -16 297 q 83 373 48 354 q 153 401 118 392 q 216 411 187 411 q 258 399 237 411 q 296 369 279 387 q 323 332 313 351 q 334 298 334 313 q 314 251 334 275 q 260 202 295 227 q 175 151 224 177 q 66 98 125 125 q 64 66 64 82 q 73 38 64 45 q 107 31 82 31 q 192 45 152 31 q 268 84 231 60 q 338 138 304 108 q 406 200 372 169 l 439 167 m 200 336 q 170 322 186 336 q 138 283 154 307 q 106 229 121 260 q 81 165 92 198 q 130 199 106 181 q 173 238 154 218 q 203 279 192 258 q 215 321 215 300 q 211 332 215 327 q 200 336 208 336 m 138 661 q 156 666 145 663 q 180 670 168 668 q 204 674 192 672 q 227 677 217 676 l 245 542 q 317 606 283 575 q 388 673 351 636 q 412 653 401 665 q 434 628 422 640 q 343 540 388 582 q 252 464 299 498 q 207 467 227 464 q 166 478 187 471 q 157 518 162 494 q 149 568 153 542 q 142 619 145 594 q 138 661 139 644 z "},"":{"ha":818,"x_min":-14,"x_max":873,"o":"m 710 364 q 692 329 706 359 q 657 250 677 298 q 614 139 637 202 q 569 6 591 76 q 528 -138 547 -64 q 497 -282 509 -212 q 455 -293 479 -288 q 409 -303 432 -298 q 367 -311 386 -308 q 339 -314 348 -314 q 363 -214 351 -262 q 389 -122 375 -167 q 421 -33 404 -77 q 461 58 438 12 q 407 -6 435 25 q 348 -62 378 -37 q 287 -101 317 -86 q 225 -115 256 -115 q 178 -104 204 -115 q 125 -72 152 -92 q 74 -25 99 -52 q 30 35 49 3 q -2 102 10 66 q -14 172 -14 137 q 3 300 -14 231 q 48 442 19 369 q 119 590 77 515 q 210 732 160 664 q 316 860 259 801 q 433 964 372 920 q 557 1033 494 1008 q 684 1059 621 1059 q 730 1048 707 1059 q 773 1022 753 1038 q 809 987 793 1006 q 838 951 826 968 q 862 906 851 932 q 873 854 873 880 q 860 763 873 811 q 824 667 847 715 q 770 575 801 620 q 703 496 739 531 l 583 607 q 632 661 604 628 q 686 736 661 694 q 730 825 712 778 q 749 921 749 872 q 748 939 749 929 q 744 958 747 949 q 732 973 740 967 q 710 979 724 979 q 627 951 672 979 q 534 874 582 922 q 438 761 486 825 q 345 623 389 696 q 261 474 300 551 q 193 326 222 398 q 148 191 164 254 q 131 82 131 128 q 141 21 131 39 q 171 3 152 3 q 223 18 194 3 q 284 58 252 33 q 347 114 315 83 q 406 176 378 144 q 455 237 433 208 q 490 286 477 266 q 511 327 503 306 q 532 370 520 348 q 579 369 557 370 q 623 367 602 368 q 665 366 644 366 q 710 364 686 365 m 848 1132 q 812 1126 831 1128 q 773 1120 794 1123 q 753 1178 764 1145 q 736 1247 743 1211 q 667 1189 701 1217 q 589 1126 633 1161 q 573 1145 581 1137 q 553 1166 564 1153 q 601 1211 576 1187 q 650 1259 626 1235 q 695 1304 673 1282 q 734 1343 717 1326 q 785 1331 765 1339 q 823 1313 806 1323 q 828 1269 825 1294 q 835 1218 831 1244 q 842 1170 838 1193 q 848 1132 845 1147 z "},"":{"ha":528,"x_min":-155,"x_max":530,"o":"m 530 167 q 413 57 472 107 q 297 -36 355 7 q 274 -99 286 -67 q 248 -164 261 -132 q 202 -250 228 -209 q 146 -326 176 -291 q 87 -389 117 -361 q 28 -437 56 -417 q -24 -467 0 -456 q -65 -478 -48 -478 q -92 -468 -77 -478 q -122 -443 -108 -458 q -145 -409 -136 -427 q -155 -375 -155 -391 q -131 -306 -155 -340 q -65 -236 -107 -272 q 35 -160 -22 -200 q 158 -75 92 -121 q 192 17 173 -36 q 236 149 210 71 q 179 82 212 115 q 112 23 146 49 q 43 -19 77 -3 q -20 -35 9 -35 q -39 -27 -27 -35 q -63 -9 -51 -20 q -83 18 -75 3 q -92 52 -92 34 q -81 105 -92 74 q -49 172 -70 137 q 1 244 -28 208 q 67 313 31 281 q 148 371 104 345 q 241 410 192 396 q 262 404 249 410 q 289 391 276 398 q 312 377 302 384 q 322 368 322 370 q 320 365 322 367 q 318 364 319 364 q 278 338 302 355 q 227 299 254 321 q 172 254 199 278 q 123 205 145 229 q 87 159 101 181 q 74 119 74 137 q 77 109 74 113 q 86 104 80 104 q 124 116 103 104 q 168 147 146 128 q 213 190 191 166 q 255 236 235 213 q 291 278 275 258 q 315 310 307 298 q 318 313 317 311 q 321 315 319 314 q 335 302 326 314 q 353 274 345 290 q 369 242 362 258 q 375 220 375 227 l 375 218 q 374 214 375 218 q 355 147 366 190 q 326 49 343 104 q 413 121 369 83 q 500 203 456 159 l 530 167 m -75 -387 q -36 -367 -62 -387 q 18 -314 -11 -346 q 74 -242 46 -281 q 119 -167 101 -203 q 39 -227 75 -199 q -24 -281 2 -255 q -65 -333 -50 -308 q -79 -382 -79 -357 q -75 -387 -79 -387 m 429 476 q 393 470 412 473 q 354 464 375 467 q 334 522 345 490 q 317 591 324 555 q 248 533 282 562 q 170 471 214 505 q 154 489 162 481 q 134 510 145 497 q 182 555 157 531 q 231 603 207 579 q 276 648 254 627 q 315 688 298 670 q 366 675 346 684 q 404 657 387 667 q 409 613 406 638 q 416 563 412 588 q 422 514 419 537 q 429 476 426 491 z "},"":{"ha":818,"x_min":-14,"x_max":878,"o":"m 710 364 q 692 329 706 359 q 657 250 677 298 q 614 139 637 202 q 569 6 591 76 q 528 -138 547 -64 q 497 -282 509 -212 q 455 -293 479 -288 q 409 -303 432 -298 q 367 -311 386 -308 q 339 -314 348 -314 q 363 -214 351 -262 q 389 -122 375 -167 q 421 -33 404 -77 q 461 58 438 12 q 407 -6 435 25 q 348 -62 378 -37 q 287 -101 317 -86 q 225 -115 256 -115 q 178 -104 204 -115 q 125 -72 152 -92 q 74 -25 99 -52 q 30 35 49 3 q -2 102 10 66 q -14 172 -14 137 q 3 300 -14 231 q 48 442 19 369 q 119 590 77 515 q 210 732 160 664 q 316 860 259 801 q 433 964 372 920 q 557 1033 494 1008 q 684 1059 621 1059 q 730 1048 707 1059 q 773 1022 753 1038 q 809 987 793 1006 q 838 951 826 968 q 862 906 851 932 q 873 854 873 880 q 860 763 873 811 q 824 667 847 715 q 770 575 801 620 q 703 496 739 531 l 583 607 q 632 661 604 628 q 686 736 661 694 q 730 825 712 778 q 749 921 749 872 q 748 939 749 929 q 744 958 747 949 q 732 973 740 967 q 710 979 724 979 q 627 951 672 979 q 534 874 582 922 q 438 761 486 825 q 345 623 389 696 q 261 474 300 551 q 193 326 222 398 q 148 191 164 254 q 131 82 131 128 q 141 21 131 39 q 171 3 152 3 q 223 18 194 3 q 284 58 252 33 q 347 114 315 83 q 406 176 378 144 q 455 237 433 208 q 490 286 477 266 q 511 327 503 306 q 532 370 520 348 q 579 369 557 370 q 623 367 602 368 q 665 366 644 366 q 710 364 686 365 m 878 1286 q 860 1244 871 1270 q 828 1194 848 1218 q 778 1152 808 1169 q 703 1134 748 1134 q 664 1138 682 1134 q 632 1151 646 1142 q 611 1173 618 1159 q 603 1206 603 1186 q 604 1229 603 1216 q 609 1256 606 1242 q 616 1284 612 1270 q 627 1310 621 1298 q 652 1310 637 1310 q 681 1309 667 1310 q 706 1306 694 1308 q 722 1304 718 1305 q 714 1288 720 1299 q 705 1263 709 1276 q 696 1237 700 1251 q 693 1214 693 1224 q 696 1205 693 1208 q 708 1202 700 1202 q 747 1212 730 1202 q 776 1237 764 1221 q 797 1272 789 1253 q 811 1309 806 1291 q 853 1296 838 1301 q 878 1286 867 1291 z "},"":{"ha":528,"x_min":-155,"x_max":530,"o":"m 530 167 q 413 57 472 107 q 297 -36 355 7 q 274 -99 286 -67 q 248 -164 261 -132 q 202 -250 228 -209 q 146 -326 176 -291 q 87 -389 117 -361 q 28 -437 56 -417 q -24 -467 0 -456 q -65 -478 -48 -478 q -92 -468 -77 -478 q -122 -443 -108 -458 q -145 -409 -136 -427 q -155 -375 -155 -391 q -131 -306 -155 -340 q -65 -236 -107 -272 q 35 -160 -22 -200 q 158 -75 92 -121 q 192 17 173 -36 q 236 149 210 71 q 179 82 212 115 q 112 23 146 49 q 43 -19 77 -3 q -20 -35 9 -35 q -39 -27 -27 -35 q -63 -9 -51 -20 q -83 18 -75 3 q -92 52 -92 34 q -81 105 -92 74 q -49 172 -70 137 q 1 244 -28 208 q 67 313 31 281 q 148 371 104 345 q 241 410 192 396 q 262 404 249 410 q 289 391 276 398 q 312 377 302 384 q 322 368 322 370 q 320 365 322 367 q 318 364 319 364 q 278 338 302 355 q 227 299 254 321 q 172 254 199 278 q 123 205 145 229 q 87 159 101 181 q 74 119 74 137 q 77 109 74 113 q 86 104 80 104 q 124 116 103 104 q 168 147 146 128 q 213 190 191 166 q 255 236 235 213 q 291 278 275 258 q 315 310 307 298 q 318 313 317 311 q 321 315 319 314 q 335 302 326 314 q 353 274 345 290 q 369 242 362 258 q 375 220 375 227 l 375 218 q 374 214 375 218 q 355 147 366 190 q 326 49 343 104 q 413 121 369 83 q 500 203 456 159 l 530 167 m -75 -387 q -36 -367 -62 -387 q 18 -314 -11 -346 q 74 -242 46 -281 q 119 -167 101 -203 q 39 -227 75 -199 q -24 -281 2 -255 q -65 -333 -50 -308 q -79 -382 -79 -357 q -75 -387 -79 -387 m 458 631 q 440 588 452 614 q 409 538 429 562 q 359 496 389 513 q 283 478 329 478 q 244 482 262 478 q 213 495 227 486 q 192 517 199 503 q 184 550 184 530 q 185 573 184 560 q 190 600 186 586 q 197 628 193 614 q 208 654 202 642 q 233 654 218 654 q 261 653 248 654 q 287 651 275 652 q 303 648 298 650 q 295 632 300 643 q 286 608 290 621 q 277 582 281 595 q 274 558 274 568 q 277 549 274 553 q 289 546 281 546 q 328 556 311 546 q 357 581 345 566 q 378 616 370 597 q 392 653 387 635 q 434 640 419 646 q 458 631 448 635 z "},"":{"ha":818,"x_min":-14,"x_max":873,"o":"m 710 364 q 692 329 706 359 q 657 250 677 298 q 614 139 637 202 q 569 6 591 76 q 528 -138 547 -64 q 497 -282 509 -212 q 455 -293 479 -288 q 409 -303 432 -298 q 367 -311 386 -308 q 339 -314 348 -314 q 363 -214 351 -262 q 389 -122 375 -167 q 421 -33 404 -77 q 461 58 438 12 q 407 -6 435 25 q 348 -62 378 -37 q 287 -101 317 -86 q 225 -115 256 -115 q 178 -104 204 -115 q 125 -72 152 -92 q 74 -25 99 -52 q 30 35 49 3 q -2 102 10 66 q -14 172 -14 137 q 3 300 -14 231 q 48 442 19 369 q 119 590 77 515 q 210 732 160 664 q 316 860 259 801 q 433 964 372 920 q 557 1033 494 1008 q 684 1059 621 1059 q 730 1048 707 1059 q 773 1022 753 1038 q 809 987 793 1006 q 838 951 826 968 q 862 906 851 932 q 873 854 873 880 q 860 763 873 811 q 824 667 847 715 q 770 575 801 620 q 703 496 739 531 l 583 607 q 632 661 604 628 q 686 736 661 694 q 730 825 712 778 q 749 921 749 872 q 748 939 749 929 q 744 958 747 949 q 732 973 740 967 q 710 979 724 979 q 627 951 672 979 q 534 874 582 922 q 438 761 486 825 q 345 623 389 696 q 261 474 300 551 q 193 326 222 398 q 148 191 164 254 q 131 82 131 128 q 141 21 131 39 q 171 3 152 3 q 223 18 194 3 q 284 58 252 33 q 347 114 315 83 q 406 176 378 144 q 455 237 433 208 q 490 286 477 266 q 511 327 503 306 q 532 370 520 348 q 579 369 557 370 q 623 367 602 368 q 665 366 644 366 q 710 364 686 365 m 795 1240 q 787 1220 795 1236 q 769 1186 779 1204 q 748 1154 758 1168 q 733 1139 738 1139 q 712 1146 728 1139 q 679 1161 696 1152 q 648 1178 662 1170 q 635 1190 635 1187 q 643 1219 635 1200 q 660 1257 650 1238 q 680 1289 670 1276 q 693 1303 689 1303 q 719 1294 702 1303 q 753 1275 736 1286 q 783 1255 770 1265 q 795 1240 795 1244 z "},"":{"ha":528,"x_min":-155,"x_max":530,"o":"m 530 167 q 413 57 472 107 q 297 -36 355 7 q 274 -99 286 -67 q 248 -164 261 -132 q 202 -250 228 -209 q 146 -326 176 -291 q 87 -389 117 -361 q 28 -437 56 -417 q -24 -467 0 -456 q -65 -478 -48 -478 q -92 -468 -77 -478 q -122 -443 -108 -458 q -145 -409 -136 -427 q -155 -375 -155 -391 q -131 -306 -155 -340 q -65 -236 -107 -272 q 35 -160 -22 -200 q 158 -75 92 -121 q 192 17 173 -36 q 236 149 210 71 q 179 82 212 115 q 112 23 146 49 q 43 -19 77 -3 q -20 -35 9 -35 q -39 -27 -27 -35 q -63 -9 -51 -20 q -83 18 -75 3 q -92 52 -92 34 q -81 105 -92 74 q -49 172 -70 137 q 1 244 -28 208 q 67 313 31 281 q 148 371 104 345 q 241 410 192 396 q 262 404 249 410 q 289 391 276 398 q 312 377 302 384 q 322 368 322 370 q 320 365 322 367 q 318 364 319 364 q 278 338 302 355 q 227 299 254 321 q 172 254 199 278 q 123 205 145 229 q 87 159 101 181 q 74 119 74 137 q 77 109 74 113 q 86 104 80 104 q 124 116 103 104 q 168 147 146 128 q 213 190 191 166 q 255 236 235 213 q 291 278 275 258 q 315 310 307 298 q 318 313 317 311 q 321 315 319 314 q 335 302 326 314 q 353 274 345 290 q 369 242 362 258 q 375 220 375 227 l 375 218 q 374 214 375 218 q 355 147 366 190 q 326 49 343 104 q 413 121 369 83 q 500 203 456 159 l 530 167 m -75 -387 q -36 -367 -62 -387 q 18 -314 -11 -346 q 74 -242 46 -281 q 119 -167 101 -203 q 39 -227 75 -199 q -24 -281 2 -255 q -65 -333 -50 -308 q -79 -382 -79 -357 q -75 -387 -79 -387 m 376 585 q 368 564 376 581 q 350 530 360 548 q 329 498 339 512 q 314 484 319 484 q 293 490 309 484 q 260 505 277 496 q 229 523 243 514 q 216 534 216 531 q 223 564 216 545 q 241 601 231 583 q 260 633 251 620 q 274 647 270 647 q 300 638 283 647 q 334 620 317 630 q 363 599 351 609 q 376 585 376 589 z "},"":{"ha":818,"x_min":-14,"x_max":873,"o":"m 710 364 q 692 329 706 359 q 657 250 677 298 q 614 139 637 202 q 569 6 591 76 q 528 -138 547 -64 q 497 -282 509 -212 q 455 -293 479 -288 q 409 -303 432 -298 q 367 -311 386 -308 q 339 -314 348 -314 q 363 -214 351 -262 q 389 -122 375 -167 q 421 -33 404 -77 q 461 58 438 12 q 407 -6 435 25 q 348 -62 378 -37 q 287 -101 317 -86 q 225 -115 256 -115 q 178 -104 204 -115 q 125 -72 152 -92 q 74 -25 99 -52 q 30 35 49 3 q -2 102 10 66 q -14 172 -14 137 q 3 300 -14 231 q 48 442 19 369 q 119 590 77 515 q 210 732 160 664 q 316 860 259 801 q 433 964 372 920 q 557 1033 494 1008 q 684 1059 621 1059 q 730 1048 707 1059 q 773 1022 753 1038 q 809 987 793 1006 q 838 951 826 968 q 862 906 851 932 q 873 854 873 880 q 860 763 873 811 q 824 667 847 715 q 770 575 801 620 q 703 496 739 531 l 583 607 q 632 661 604 628 q 686 736 661 694 q 730 825 712 778 q 749 921 749 872 q 748 939 749 929 q 744 958 747 949 q 732 973 740 967 q 710 979 724 979 q 627 951 672 979 q 534 874 582 922 q 438 761 486 825 q 345 623 389 696 q 261 474 300 551 q 193 326 222 398 q 148 191 164 254 q 131 82 131 128 q 141 21 131 39 q 171 3 152 3 q 223 18 194 3 q 284 58 252 33 q 347 114 315 83 q 406 176 378 144 q 455 237 433 208 q 490 286 477 266 q 511 327 503 306 q 532 370 520 348 q 579 369 557 370 q 623 367 602 368 q 665 366 644 366 q 710 364 686 365 m 268 -246 q 255 -293 268 -267 q 225 -345 243 -319 q 186 -394 207 -371 q 150 -429 166 -416 q 140 -424 147 -429 q 125 -412 133 -418 q 112 -399 118 -405 q 105 -392 106 -393 q 121 -377 111 -387 q 139 -357 130 -368 q 155 -337 149 -347 q 162 -319 162 -326 q 156 -298 162 -307 q 141 -282 149 -289 q 124 -271 132 -275 q 114 -263 117 -266 q 124 -236 116 -252 q 141 -207 132 -221 q 160 -181 151 -192 q 174 -167 169 -170 q 198 -175 182 -167 q 229 -194 214 -182 q 256 -220 245 -205 q 268 -246 268 -234 z "},"":{"ha":528,"x_min":-155,"x_max":530,"o":"m 530 167 q 413 57 472 107 q 297 -36 355 7 q 274 -99 286 -67 q 248 -164 261 -132 q 202 -250 228 -209 q 146 -326 176 -291 q 87 -389 117 -361 q 28 -437 56 -417 q -24 -467 0 -456 q -65 -478 -48 -478 q -92 -468 -77 -478 q -122 -443 -108 -458 q -145 -409 -136 -427 q -155 -375 -155 -391 q -131 -306 -155 -340 q -65 -236 -107 -272 q 35 -160 -22 -200 q 158 -75 92 -121 q 192 17 173 -36 q 236 149 210 71 q 179 82 212 115 q 112 23 146 49 q 43 -19 77 -3 q -20 -35 9 -35 q -39 -27 -27 -35 q -63 -9 -51 -20 q -83 18 -75 3 q -92 52 -92 34 q -81 105 -92 74 q -49 172 -70 137 q 1 244 -28 208 q 67 313 31 281 q 148 371 104 345 q 241 410 192 396 q 262 404 249 410 q 289 391 276 398 q 312 377 302 384 q 322 368 322 370 q 320 365 322 367 q 318 364 319 364 q 278 338 302 355 q 227 299 254 321 q 172 254 199 278 q 123 205 145 229 q 87 159 101 181 q 74 119 74 137 q 77 109 74 113 q 86 104 80 104 q 124 116 103 104 q 168 147 146 128 q 213 190 191 166 q 255 236 235 213 q 291 278 275 258 q 315 310 307 298 q 318 313 317 311 q 321 315 319 314 q 335 302 326 314 q 353 274 345 290 q 369 242 362 258 q 375 220 375 227 q 372 203 375 215 q 365 175 370 191 q 355 141 360 159 q 343 105 349 123 q 333 73 338 88 q 326 49 328 58 q 413 121 369 83 q 500 203 456 159 l 530 167 m 180 550 q 193 597 180 570 q 223 649 205 623 q 262 697 241 675 q 298 733 282 720 q 308 727 301 732 q 323 715 315 722 q 337 703 331 709 q 343 696 342 697 q 328 681 337 690 q 309 661 318 671 q 293 641 300 651 q 286 623 286 630 q 293 602 286 611 q 308 586 299 593 q 324 574 316 578 q 335 567 332 570 q 325 540 333 555 q 307 510 317 525 q 289 485 298 496 q 275 471 280 473 q 251 478 267 471 q 219 498 235 486 q 192 524 203 509 q 180 550 180 538 m -75 -387 q -36 -367 -62 -387 q 18 -314 -11 -346 q 74 -242 46 -281 q 119 -167 101 -203 q 39 -227 75 -199 q -24 -281 2 -255 q -65 -333 -50 -308 q -79 -382 -79 -357 q -75 -387 -79 -387 z "},"":{"ha":922,"x_min":-127,"x_max":896,"o":"m 453 930 q 392 776 422 850 q 333 631 362 701 q 273 492 303 560 q 213 359 243 425 q 316 374 264 366 q 414 389 369 382 q 492 401 459 396 q 534 408 524 406 q 645 688 592 546 q 751 978 699 830 q 794 935 771 958 q 838 891 817 912 q 875 854 859 870 q 896 832 890 838 q 803 635 848 731 q 713 446 758 538 q 809 474 773 461 q 864 493 845 486 q 887 502 882 500 q 890 497 892 503 q 882 478 888 492 q 865 446 875 464 q 843 409 855 429 q 819 374 831 390 q 796 347 807 357 q 778 335 785 336 q 745 330 764 332 q 704 323 728 327 q 649 315 680 319 q 516 54 578 171 q 404 -143 454 -63 q 357 -103 379 -123 q 313 -75 334 -83 q 264 99 300 5 q 178 286 229 193 q 80 84 130 184 q -26 -122 30 -16 q -82 -80 -56 -98 q -127 -49 -109 -62 q -62 86 -98 10 q 11 250 -27 161 q 87 437 48 338 q 163 641 125 536 q 237 855 201 746 q 304 1072 273 964 q 345 1035 324 1053 q 386 998 366 1016 q 423 963 406 980 q 453 930 440 945 m 369 35 q 486 292 429 161 q 255 266 387 279 q 290 206 273 237 q 321 144 307 175 q 348 86 336 114 q 369 35 359 58 m 774 1084 q 738 1078 756 1081 q 699 1072 720 1076 q 679 1131 689 1098 q 661 1200 669 1163 q 593 1142 627 1170 q 514 1079 559 1114 q 498 1098 507 1090 q 478 1118 490 1105 q 526 1163 501 1139 q 575 1211 551 1187 q 621 1257 599 1235 q 660 1296 642 1278 q 711 1284 690 1292 q 749 1265 731 1276 q 754 1221 751 1246 q 760 1171 757 1196 q 767 1122 764 1145 q 774 1084 770 1099 z "},"":{"ha":585,"x_min":-72,"x_max":628,"o":"m 347 57 q 374 66 357 57 q 412 88 391 75 q 454 118 433 102 q 496 151 476 135 q 532 180 516 167 q 555 200 547 193 q 570 184 562 194 q 586 167 578 175 q 549 131 571 152 q 500 89 526 111 q 447 46 475 67 q 393 8 419 25 q 343 -19 366 -9 q 304 -29 320 -29 q 274 -23 292 -29 q 241 -6 257 -16 q 214 15 225 3 q 203 39 203 27 q 214 106 203 68 q 238 186 224 145 q 268 266 252 227 q 297 337 283 306 q 276 322 292 336 q 238 285 260 309 q 190 229 216 262 q 139 155 164 196 q 90 67 113 115 q 52 -32 67 20 q 46 -43 50 -39 q 33 -46 42 -46 q 14 -40 27 -46 q -13 -25 1 -34 q -41 -7 -27 -17 q -62 9 -54 2 q -69 18 -66 14 q -72 31 -72 22 q -57 140 -72 75 q -16 282 -42 205 q 45 441 10 358 q 120 604 80 524 q 202 756 159 684 q 287 884 245 829 q 367 973 329 939 q 437 1008 406 1006 q 469 994 453 1004 q 499 971 485 983 q 525 947 513 959 q 542 928 536 936 q 547 915 546 922 q 549 904 549 907 q 535 844 549 880 q 497 763 522 808 q 438 667 473 718 q 360 562 403 616 q 269 453 318 508 q 166 347 220 398 q 142 275 153 310 q 209 339 178 313 q 263 380 239 365 q 303 402 287 395 q 329 408 320 408 q 351 400 335 408 q 383 382 366 393 q 414 359 400 371 q 432 340 429 348 q 432 331 433 337 q 429 322 431 326 q 415 280 423 304 q 396 229 406 256 q 377 175 387 202 q 360 125 368 148 q 348 85 353 102 q 343 61 343 68 q 347 57 343 57 m 288 640 q 256 571 271 606 q 227 503 241 537 q 315 621 272 561 q 391 736 357 681 q 445 838 425 791 q 465 917 465 885 q 460 932 465 932 q 435 910 452 932 q 395 849 418 888 q 345 757 372 810 q 288 640 317 703 m 628 1087 q 592 1081 610 1084 q 553 1075 574 1078 q 533 1133 543 1101 q 515 1202 523 1166 q 447 1144 481 1173 q 368 1082 413 1116 q 352 1100 361 1093 q 332 1121 344 1108 q 380 1166 355 1142 q 429 1214 406 1190 q 475 1259 453 1238 q 514 1299 496 1281 q 565 1286 545 1295 q 603 1268 585 1278 q 608 1224 605 1249 q 614 1174 611 1199 q 621 1125 618 1148 q 628 1087 625 1102 z "},"":{"ha":964,"x_min":-86,"x_max":994,"o":"m 865 677 l 994 677 q 987 651 991 665 q 977 624 983 637 q 966 600 972 611 q 957 582 961 588 q 914 582 951 582 q 819 581 876 581 l 755 446 q 850 474 814 461 q 905 493 886 486 q 928 502 924 500 q 932 497 933 503 q 923 478 930 492 q 906 446 916 464 q 884 409 897 429 q 860 374 872 390 q 838 347 848 357 q 819 335 827 336 q 786 330 805 332 q 746 323 770 327 q 690 315 722 319 q 558 54 620 171 q 446 -143 496 -63 q 402 -106 424 -124 q 362 -78 380 -87 q 356 -77 359 -78 q 354 -75 355 -76 q 336 8 348 -36 q 306 98 323 52 q 267 192 289 144 q 220 285 245 239 q 122 83 172 183 q 16 -122 72 -17 q -41 -80 -14 -98 q -86 -49 -67 -62 q -26 74 -58 5 q 41 223 6 143 q 111 394 75 304 q 182 579 147 484 q 85 580 123 580 q 45 582 47 581 q 51 603 47 590 q 60 628 55 615 q 70 652 65 641 q 79 669 75 664 q 120 672 83 671 q 217 674 157 673 q 284 871 252 772 q 346 1072 317 971 q 387 1035 366 1053 q 428 998 408 1016 q 465 963 448 980 q 494 930 482 945 q 444 800 469 863 q 393 675 418 737 q 538 676 464 676 q 683 677 612 677 q 793 978 739 825 q 836 935 812 958 q 880 891 859 912 q 916 854 901 870 q 937 832 932 838 l 865 677 m 646 580 q 499 579 572 580 q 353 579 425 579 q 304 468 328 522 q 255 359 280 413 q 358 374 306 366 q 456 389 411 382 q 534 401 501 396 q 576 408 566 406 l 646 580 m 410 35 q 470 162 441 98 q 528 292 499 227 q 296 266 428 279 q 331 206 315 237 q 362 144 348 175 q 389 86 377 114 q 410 35 401 58 z "},"":{"ha":585,"x_min":-72,"x_max":615,"o":"m 347 57 q 374 66 357 57 q 412 88 391 75 q 454 118 433 102 q 496 151 476 135 q 532 180 516 167 q 555 200 547 193 q 570 184 562 194 q 586 167 578 175 q 549 131 571 152 q 500 89 526 111 q 447 46 475 67 q 393 8 419 25 q 343 -19 366 -9 q 304 -29 320 -29 q 274 -23 292 -29 q 241 -6 257 -16 q 214 15 225 3 q 203 39 203 27 q 214 106 203 68 q 238 186 224 145 q 268 266 252 227 q 297 337 283 306 q 276 322 292 336 q 238 285 260 309 q 190 229 216 262 q 139 155 164 196 q 90 67 113 115 q 52 -32 67 20 q 46 -43 50 -39 q 33 -46 42 -46 q 14 -40 27 -46 q -13 -25 1 -34 q -41 -7 -27 -17 q -62 9 -54 2 q -69 18 -66 14 q -72 31 -72 22 q -56 143 -72 76 q -14 289 -41 210 q 49 453 13 368 q 127 619 85 538 l 22 612 q 29 633 24 621 q 38 659 33 646 q 48 683 43 671 q 57 700 54 694 q 107 704 77 702 q 175 709 138 706 q 245 825 210 771 q 315 919 281 879 q 380 983 349 959 q 437 1008 411 1006 q 469 994 453 1004 q 499 971 485 983 q 525 947 513 959 q 542 928 536 936 q 547 915 546 922 q 549 904 549 907 q 530 830 549 876 q 477 728 511 785 q 529 731 505 730 q 571 733 553 732 q 601 735 589 734 q 615 736 612 736 q 608 710 612 724 q 598 683 604 696 q 587 658 593 669 q 578 640 582 646 q 524 639 566 640 q 415 634 481 637 q 302 490 365 564 q 166 347 239 416 q 142 275 153 310 q 209 339 178 313 q 262 380 239 365 q 301 402 286 395 q 323 408 317 408 q 349 400 332 408 q 383 382 366 393 q 414 359 400 371 q 432 340 429 348 q 432 331 433 337 q 429 322 431 326 q 415 280 423 304 q 396 229 406 256 q 377 175 387 202 q 360 125 368 148 q 348 85 353 102 q 343 61 343 68 q 347 57 343 57 m 460 932 q 440 916 453 932 q 410 873 427 901 q 371 806 392 845 q 326 719 349 766 l 383 723 q 443 832 420 783 q 465 917 465 882 q 460 932 465 932 m 281 628 q 254 565 267 596 q 227 503 240 534 q 275 566 251 534 q 321 630 298 597 l 281 628 z "},"":{"ha":690,"x_min":-139,"x_max":774,"o":"m 765 939 q 771 919 768 931 q 774 890 774 907 q 762 797 774 848 q 728 686 749 745 q 675 564 706 627 q 606 437 644 501 q 526 309 569 372 q 435 186 482 245 q 497 121 465 151 q 567 66 530 90 q 525 40 545 50 q 464 76 498 52 q 393 136 430 100 q 234 -25 314 43 q 77 -126 155 -93 q 53 -133 67 -130 q 15 -136 39 -136 q -24 -122 -4 -136 q -63 -88 -45 -108 q -97 -48 -82 -68 q -119 -17 -111 -28 q -134 15 -128 -4 q -139 62 -139 34 q -132 133 -139 97 q -104 215 -124 169 q -76 225 -96 218 q -30 238 -55 231 q 19 251 -5 245 q 60 260 43 257 q 22 201 39 229 q -8 145 4 173 q -28 87 -21 117 q -36 25 -36 58 q -31 -1 -36 12 q -12 -14 -26 -14 q 41 7 9 -14 q 112 66 73 28 q 195 154 151 103 q 285 264 239 205 q 237 341 259 300 q 200 427 216 382 q 175 518 184 471 q 165 614 165 565 q 188 747 165 686 q 249 858 211 808 q 335 945 286 907 q 435 1009 383 983 q 537 1048 486 1035 q 629 1061 587 1061 q 664 1053 652 1061 q 691 1030 675 1045 q 722 998 707 1015 q 749 965 737 981 q 765 939 761 949 m 285 541 q 299 443 285 495 q 339 337 313 391 q 419 453 380 393 q 493 571 458 512 q 557 687 528 630 q 608 795 587 744 q 641 890 629 846 q 653 966 653 934 q 650 977 653 975 q 640 979 646 979 q 601 968 631 979 q 531 933 570 957 q 448 874 492 910 q 369 790 405 839 q 309 679 332 741 q 285 541 285 616 m 729 1141 q 700 1129 713 1133 q 667 1120 686 1125 q 644 1160 656 1137 q 618 1208 631 1182 q 592 1263 605 1234 q 568 1324 579 1293 q 631 1344 603 1337 q 672 1353 659 1351 l 729 1141 l 729 1141 z "},"":{"ha":290,"x_min":-78,"x_max":296,"o":"m 12 -37 q -14 -30 2 -37 q -43 -13 -29 -23 q -68 11 -58 -2 q -78 36 -78 24 q -60 104 -71 66 q -35 183 -48 143 q -7 261 -22 223 q 19 330 7 300 q 40 378 31 359 q 52 396 49 396 q 72 387 56 396 q 106 366 88 378 q 138 339 124 353 q 153 315 153 326 q 152 310 153 313 q 150 302 151 307 q 136 262 144 286 q 118 215 127 239 q 99 165 109 190 q 82 119 90 140 q 70 81 75 97 q 65 57 65 64 q 69 53 65 53 q 92 62 77 53 q 126 85 106 71 q 166 116 145 99 q 207 150 187 133 q 241 180 226 166 q 265 200 257 193 q 280 184 271 194 q 296 167 288 175 q 258 131 281 152 q 210 87 236 109 q 156 42 184 64 q 101 2 127 20 q 52 -26 75 -16 q 12 -37 28 -37 m 218 485 q 189 473 203 477 q 156 464 176 469 q 133 504 146 481 q 107 552 121 526 q 81 608 94 578 q 58 668 68 637 q 120 688 92 681 q 161 697 148 695 l 218 485 l 218 485 z "},"":{"ha":690,"x_min":-139,"x_max":836,"o":"m 765 939 q 771 919 768 931 q 774 890 774 907 q 762 797 774 848 q 728 686 749 745 q 675 564 706 627 q 606 437 644 501 q 526 309 569 372 q 435 186 482 245 q 497 121 465 151 q 567 66 530 90 q 525 40 545 50 q 464 76 498 52 q 393 136 430 100 q 234 -25 314 43 q 77 -126 155 -93 q 53 -133 67 -130 q 15 -136 39 -136 q -24 -122 -4 -136 q -63 -88 -45 -108 q -97 -48 -82 -68 q -119 -17 -111 -28 q -134 15 -128 -4 q -139 62 -139 34 q -132 133 -139 97 q -104 215 -124 169 q -76 225 -96 218 q -30 238 -55 231 q 19 251 -5 245 q 60 260 43 257 q 22 201 39 229 q -8 145 4 173 q -28 87 -21 117 q -36 25 -36 58 q -31 -1 -36 12 q -12 -14 -26 -14 q 41 7 9 -14 q 112 66 73 28 q 195 154 151 103 q 285 264 239 205 q 237 341 259 300 q 200 427 216 382 q 175 518 184 471 q 165 614 165 565 q 188 747 165 686 q 249 858 211 808 q 335 945 286 907 q 435 1009 383 983 q 537 1048 486 1035 q 629 1061 587 1061 q 664 1053 652 1061 q 691 1030 675 1045 q 722 998 707 1015 q 749 965 737 981 q 765 939 761 949 m 285 541 q 299 443 285 495 q 339 337 313 391 q 419 453 380 393 q 493 571 458 512 q 557 687 528 630 q 608 795 587 744 q 641 890 629 846 q 653 966 653 934 q 650 977 653 975 q 640 979 646 979 q 601 968 631 979 q 531 933 570 957 q 448 874 492 910 q 369 790 405 839 q 309 679 332 741 q 285 541 285 616 m 836 1286 q 754 1198 798 1240 q 665 1120 710 1156 q 655 1127 662 1122 q 640 1139 648 1133 q 626 1152 633 1146 q 616 1161 619 1158 q 654 1211 633 1182 q 695 1267 675 1239 q 730 1319 715 1295 q 753 1354 746 1342 q 780 1337 767 1348 q 805 1316 793 1326 q 824 1298 816 1306 q 836 1286 832 1289 z "},"":{"ha":290,"x_min":-78,"x_max":326,"o":"m 12 -37 q -14 -30 2 -37 q -43 -13 -29 -23 q -68 11 -58 -2 q -78 36 -78 24 q -60 104 -71 66 q -35 183 -48 143 q -7 261 -22 223 q 19 330 7 300 q 40 378 31 359 q 52 396 49 396 q 72 387 56 396 q 106 366 88 378 q 138 339 124 353 q 153 315 153 326 q 152 310 153 313 q 150 302 151 307 q 136 262 144 286 q 118 215 127 239 q 99 165 109 190 q 82 119 90 140 q 70 81 75 97 q 65 57 65 64 q 69 53 65 53 q 92 62 77 53 q 126 85 106 71 q 166 116 145 99 q 207 150 187 133 q 241 180 226 166 q 265 200 257 193 q 280 184 271 194 q 296 167 288 175 q 258 131 281 152 q 210 87 236 109 q 156 42 184 64 q 101 2 127 20 q 52 -26 75 -16 q 12 -37 28 -37 m 326 631 q 244 542 288 584 q 155 464 200 500 q 145 471 152 466 q 130 484 138 477 q 116 496 123 490 q 106 505 109 502 q 144 555 123 526 q 185 611 165 583 q 220 663 205 640 q 243 699 236 686 q 270 681 257 692 q 295 661 283 671 q 314 642 306 650 q 326 631 322 633 z "},"":{"ha":690,"x_min":-139,"x_max":810,"o":"m 765 939 q 771 919 768 931 q 774 890 774 907 q 762 797 774 848 q 728 686 749 745 q 675 564 706 627 q 606 437 644 501 q 526 309 569 372 q 435 186 482 245 q 497 121 465 151 q 567 66 530 90 q 525 40 545 50 q 464 76 498 52 q 393 136 430 100 q 234 -25 314 43 q 77 -126 155 -93 q 53 -133 67 -130 q 15 -136 39 -136 q -24 -122 -4 -136 q -63 -88 -45 -108 q -97 -48 -82 -68 q -119 -17 -111 -28 q -134 15 -128 -4 q -139 62 -139 34 q -132 133 -139 97 q -104 215 -124 169 q -76 225 -96 218 q -30 238 -55 231 q 19 251 -5 245 q 60 260 43 257 q 22 201 39 229 q -8 145 4 173 q -28 87 -21 117 q -36 25 -36 58 q -31 -1 -36 12 q -12 -14 -26 -14 q 41 7 9 -14 q 112 66 73 28 q 195 154 151 103 q 285 264 239 205 q 237 341 259 300 q 200 427 216 382 q 175 518 184 471 q 165 614 165 565 q 188 747 165 686 q 249 858 211 808 q 335 945 286 907 q 435 1009 383 983 q 537 1048 486 1035 q 629 1061 587 1061 q 664 1053 652 1061 q 691 1030 675 1045 q 722 998 707 1015 q 749 965 737 981 q 765 939 761 949 m 285 541 q 299 443 285 495 q 339 337 313 391 q 419 453 380 393 q 493 571 458 512 q 557 687 528 630 q 608 795 587 744 q 641 890 629 846 q 653 966 653 934 q 650 977 653 975 q 640 979 646 979 q 601 968 631 979 q 531 933 570 957 q 448 874 492 910 q 369 790 405 839 q 309 679 332 741 q 285 541 285 616 m 810 1132 q 774 1126 792 1128 q 734 1120 755 1123 q 715 1178 725 1145 q 697 1247 705 1211 q 629 1189 663 1217 q 550 1126 595 1161 q 534 1145 543 1137 q 514 1166 526 1153 q 562 1211 537 1187 q 611 1259 587 1235 q 656 1304 635 1282 q 696 1343 678 1326 q 747 1331 726 1339 q 785 1313 767 1323 q 790 1269 787 1294 q 796 1218 793 1244 q 803 1170 800 1193 q 810 1132 806 1147 z "},"":{"ha":290,"x_min":-78,"x_max":299,"o":"m 12 -37 q -14 -30 2 -37 q -43 -13 -29 -23 q -68 11 -58 -2 q -78 36 -78 24 q -60 104 -71 66 q -35 183 -48 143 q -7 261 -22 223 q 19 330 7 300 q 40 378 31 359 q 52 396 49 396 q 72 387 56 396 q 106 366 88 378 q 138 339 124 353 q 153 315 153 326 q 152 310 153 313 q 150 302 151 307 q 136 262 144 286 q 118 215 127 239 q 99 165 109 190 q 82 119 90 140 q 70 81 75 97 q 65 57 65 64 q 69 53 65 53 q 92 62 77 53 q 126 85 106 71 q 166 116 145 99 q 207 150 187 133 q 241 180 226 166 q 265 200 257 193 q 280 184 271 194 q 296 167 288 175 q 258 131 281 152 q 210 87 236 109 q 156 42 184 64 q 101 2 127 20 q 52 -26 75 -16 q 12 -37 28 -37 m 299 476 q 263 470 281 473 q 224 464 245 467 q 204 522 214 490 q 186 591 194 555 q 118 533 152 562 q 39 471 84 505 q 23 489 32 481 q 3 510 15 497 q 52 555 26 531 q 100 603 77 579 q 146 648 124 627 q 185 688 168 670 q 236 675 216 684 q 274 657 256 667 q 279 613 276 638 q 286 563 282 588 q 292 514 289 537 q 299 476 296 491 z "},"":{"ha":690,"x_min":-139,"x_max":861,"o":"m 765 939 q 771 919 768 931 q 774 890 774 907 q 762 797 774 848 q 728 686 749 745 q 675 564 706 627 q 606 437 644 501 q 526 309 569 372 q 435 186 482 245 q 497 121 465 151 q 567 66 530 90 q 525 40 545 50 q 464 76 498 52 q 393 136 430 100 q 234 -25 314 43 q 77 -126 155 -93 q 53 -133 67 -130 q 15 -136 39 -136 q -24 -122 -4 -136 q -63 -88 -45 -108 q -97 -48 -82 -68 q -119 -17 -111 -28 q -134 15 -128 -4 q -139 62 -139 34 q -132 133 -139 97 q -104 215 -124 169 q -76 225 -96 218 q -30 238 -55 231 q 19 251 -5 245 q 60 260 43 257 q 22 201 39 229 q -8 145 4 173 q -28 87 -21 117 q -36 25 -36 58 q -31 -1 -36 12 q -12 -14 -26 -14 q 41 7 9 -14 q 112 66 73 28 q 195 154 151 103 q 285 264 239 205 q 237 341 259 300 q 200 427 216 382 q 175 518 184 471 q 165 614 165 565 q 188 747 165 686 q 249 858 211 808 q 335 945 286 907 q 435 1009 383 983 q 537 1048 486 1035 q 629 1061 587 1061 q 664 1053 652 1061 q 691 1030 675 1045 q 722 998 707 1015 q 749 965 737 981 q 765 939 761 949 m 285 541 q 299 443 285 495 q 339 337 313 391 q 419 453 380 393 q 493 571 458 512 q 557 687 528 630 q 608 795 587 744 q 641 890 629 846 q 653 966 653 934 q 650 977 653 975 q 640 979 646 979 q 601 968 631 979 q 531 933 570 957 q 448 874 492 910 q 369 790 405 839 q 309 679 332 741 q 285 541 285 616 m 667 1255 q 659 1234 667 1251 q 640 1199 650 1217 q 619 1167 629 1181 q 604 1153 609 1153 q 583 1160 600 1153 q 550 1175 567 1166 q 519 1193 532 1184 q 505 1204 505 1201 q 513 1234 505 1215 q 531 1271 521 1253 q 551 1303 541 1290 q 564 1317 560 1317 q 590 1309 572 1317 q 624 1289 607 1300 q 654 1268 641 1278 q 667 1255 667 1258 m 861 1240 q 853 1220 861 1236 q 834 1186 845 1204 q 814 1154 824 1168 q 799 1139 804 1139 q 778 1146 794 1139 q 744 1161 762 1152 q 713 1178 727 1170 q 700 1190 700 1187 q 708 1219 700 1200 q 726 1257 715 1238 q 745 1289 736 1276 q 758 1303 755 1303 q 784 1294 767 1303 q 819 1275 802 1286 q 848 1255 836 1265 q 861 1240 861 1244 z "},"":{"ha":290,"x_min":-78,"x_max":351,"o":"m 12 -37 q -14 -30 2 -37 q -43 -13 -29 -23 q -68 11 -58 -2 q -78 36 -78 24 q -60 104 -71 66 q -35 183 -48 143 q -7 261 -22 223 q 19 330 7 300 q 40 378 31 359 q 52 396 49 396 q 72 387 56 396 q 106 366 88 378 q 138 339 124 353 q 153 315 153 326 q 152 310 153 313 q 150 302 151 307 q 136 262 144 286 q 118 215 127 239 q 99 165 109 190 q 82 119 90 140 q 70 81 75 97 q 65 57 65 64 q 69 53 65 53 q 92 62 77 53 q 126 85 106 71 q 166 116 145 99 q 207 150 187 133 q 241 180 226 166 q 265 200 257 193 q 280 184 271 194 q 296 167 288 175 q 258 131 281 152 q 210 87 236 109 q 156 42 184 64 q 101 2 127 20 q 52 -26 75 -16 q 12 -37 28 -37 m 156 599 q 148 578 156 595 q 129 544 140 562 q 109 511 119 526 q 94 497 98 497 q 73 504 89 497 q 39 519 56 511 q 8 537 22 528 q -5 549 -5 545 q 2 578 -5 559 q 20 615 10 597 q 40 648 31 634 q 53 661 50 661 q 79 653 62 661 q 113 633 96 644 q 143 612 130 623 q 156 599 156 602 m 351 585 q 342 564 351 581 q 324 530 334 548 q 303 498 313 512 q 288 484 293 484 q 267 490 283 484 q 234 505 251 496 q 203 523 216 514 q 189 534 189 531 q 197 564 189 545 q 215 601 205 583 q 235 633 225 620 q 248 647 244 647 q 274 638 256 647 q 308 620 291 630 q 338 599 325 609 q 351 585 351 589 z "},"":{"ha":690,"x_min":-139,"x_max":893,"o":"m 765 939 q 771 919 768 931 q 774 890 774 907 q 762 797 774 848 q 728 686 749 745 q 675 564 706 627 q 606 437 644 501 q 526 309 569 372 q 435 186 482 245 q 497 121 465 151 q 567 66 530 90 q 525 40 545 50 q 464 76 498 52 q 393 136 430 100 q 234 -25 314 43 q 77 -126 155 -93 q 53 -133 67 -130 q 15 -136 39 -136 q -24 -122 -4 -136 q -63 -88 -45 -108 q -97 -48 -82 -68 q -119 -17 -111 -28 q -134 15 -128 -4 q -139 62 -139 34 q -132 133 -139 97 q -104 215 -124 169 q -76 225 -96 218 q -30 238 -55 231 q 19 251 -5 245 q 60 260 43 257 q 22 201 39 229 q -8 145 4 173 q -28 87 -21 117 q -36 25 -36 58 q -31 -1 -36 12 q -12 -14 -26 -14 q 41 7 9 -14 q 112 66 73 28 q 195 154 151 103 q 285 264 239 205 q 237 341 259 300 q 200 427 216 382 q 175 518 184 471 q 165 614 165 565 q 188 747 165 686 q 249 858 211 808 q 335 945 286 907 q 435 1009 383 983 q 537 1048 486 1035 q 629 1061 587 1061 q 664 1053 652 1061 q 691 1030 675 1045 q 722 998 707 1015 q 749 965 737 981 q 765 939 761 949 m 285 541 q 299 443 285 495 q 339 337 313 391 q 419 453 380 393 q 493 571 458 512 q 557 687 528 630 q 608 795 587 744 q 641 890 629 846 q 653 966 653 934 q 650 977 653 975 q 640 979 646 979 q 601 968 631 979 q 531 933 570 957 q 448 874 492 910 q 369 790 405 839 q 309 679 332 741 q 285 541 285 616 m 768 1236 q 790 1241 779 1236 q 811 1254 801 1246 q 829 1271 821 1261 q 846 1291 838 1280 q 869 1276 859 1284 q 893 1260 880 1268 q 867 1223 882 1243 q 830 1185 851 1202 q 785 1155 810 1167 q 729 1143 760 1143 q 702 1155 718 1143 q 671 1181 687 1166 q 641 1207 655 1195 q 616 1219 627 1219 q 598 1214 609 1219 q 576 1201 588 1209 q 554 1182 565 1193 q 533 1160 543 1171 q 507 1179 515 1171 q 486 1196 498 1187 q 517 1232 499 1212 q 557 1270 536 1252 q 604 1299 579 1287 q 654 1312 629 1312 q 681 1300 665 1312 q 711 1274 696 1288 q 742 1248 727 1260 q 768 1236 758 1236 z "},"":{"ha":290,"x_min":-78,"x_max":382,"o":"m 12 -37 q -14 -30 2 -37 q -43 -13 -29 -23 q -68 11 -58 -2 q -78 36 -78 24 q -60 104 -71 66 q -35 183 -48 143 q -7 261 -22 223 q 19 330 7 300 q 40 378 31 359 q 52 396 49 396 q 72 387 56 396 q 106 366 88 378 q 138 339 124 353 q 153 315 153 326 q 152 310 153 313 q 150 302 151 307 q 136 262 144 286 q 118 215 127 239 q 99 165 109 190 q 82 119 90 140 q 70 81 75 97 q 65 57 65 64 q 69 53 65 53 q 92 62 77 53 q 126 85 106 71 q 166 116 145 99 q 207 150 187 133 q 241 180 226 166 q 265 200 257 193 q 280 184 271 194 q 296 167 288 175 q 258 131 281 152 q 210 87 236 109 q 156 42 184 64 q 101 2 127 20 q 52 -26 75 -16 q 12 -37 28 -37 m 258 581 q 279 585 269 581 q 300 598 290 590 q 319 615 310 606 q 335 635 328 625 q 358 621 348 629 q 382 604 369 612 q 356 567 372 587 q 320 529 340 547 q 274 499 299 511 q 218 488 249 488 q 192 499 207 488 q 160 525 176 511 q 130 551 144 539 q 106 564 116 563 q 88 558 98 564 q 66 545 77 553 q 43 526 54 537 q 22 504 32 515 q -4 524 5 515 q -24 541 -13 532 q 7 576 -12 556 q 47 614 25 596 q 93 644 68 631 q 144 656 118 656 q 170 644 155 656 q 201 618 185 632 q 232 592 216 604 q 258 581 247 581 z "},"":{"ha":690,"x_min":-139,"x_max":852,"o":"m 765 939 q 771 919 768 931 q 774 890 774 907 q 762 797 774 848 q 728 686 749 745 q 675 564 706 627 q 606 437 644 501 q 526 309 569 372 q 435 186 482 245 q 497 121 465 151 q 567 66 530 90 q 525 40 545 50 q 464 76 498 52 q 393 136 430 100 q 234 -25 314 43 q 77 -126 155 -93 q 53 -133 67 -130 q 15 -136 39 -136 q -24 -122 -4 -136 q -63 -88 -45 -108 q -97 -48 -82 -68 q -119 -17 -111 -28 q -134 15 -128 -4 q -139 62 -139 34 q -132 133 -139 97 q -104 215 -124 169 q -76 225 -96 218 q -30 238 -55 231 q 19 251 -5 245 q 60 260 43 257 q 22 201 39 229 q -8 145 4 173 q -28 87 -21 117 q -36 25 -36 58 q -31 -1 -36 12 q -12 -14 -26 -14 q 41 7 9 -14 q 112 66 73 28 q 195 154 151 103 q 285 264 239 205 q 237 341 259 300 q 200 427 216 382 q 175 518 184 471 q 165 614 165 565 q 188 747 165 686 q 249 858 211 808 q 335 945 286 907 q 435 1009 383 983 q 537 1048 486 1035 q 629 1061 587 1061 q 664 1053 652 1061 q 691 1030 675 1045 q 722 998 707 1015 q 749 965 737 981 q 765 939 761 949 m 285 541 q 299 443 285 495 q 339 337 313 391 q 419 453 380 393 q 493 571 458 512 q 557 687 528 630 q 608 795 587 744 q 641 890 629 846 q 653 966 653 934 q 650 977 653 975 q 640 979 646 979 q 601 968 631 979 q 531 933 570 957 q 448 874 492 910 q 369 790 405 839 q 309 679 332 741 q 285 541 285 616 m 852 1272 q 825 1220 838 1240 q 802 1185 811 1200 q 770 1184 793 1184 q 717 1184 747 1184 q 654 1183 688 1183 q 592 1183 621 1183 q 542 1183 564 1183 q 514 1183 521 1183 q 536 1222 524 1200 q 559 1268 548 1243 q 585 1268 563 1268 q 637 1269 606 1268 q 703 1269 667 1269 q 769 1270 738 1270 q 824 1271 801 1271 q 852 1272 846 1272 z "},"":{"ha":290,"x_min":-78,"x_max":342,"o":"m 12 -37 q -14 -30 2 -37 q -43 -13 -29 -23 q -68 11 -58 -2 q -78 36 -78 24 q -60 104 -71 66 q -35 183 -48 143 q -7 261 -22 223 q 19 330 7 300 q 40 378 31 359 q 52 396 49 396 q 72 387 56 396 q 106 366 88 378 q 138 339 124 353 q 153 315 153 326 q 152 310 153 313 q 150 302 151 307 q 136 262 144 286 q 118 215 127 239 q 99 165 109 190 q 82 119 90 140 q 70 81 75 97 q 65 57 65 64 q 69 53 65 53 q 92 62 77 53 q 126 85 106 71 q 166 116 145 99 q 207 150 187 133 q 241 180 226 166 q 265 200 257 193 q 280 184 271 194 q 296 167 288 175 q 258 131 281 152 q 210 87 236 109 q 156 42 184 64 q 101 2 127 20 q 52 -26 75 -16 q 12 -37 28 -37 m 342 616 q 314 564 328 584 q 291 529 300 544 q 259 528 282 528 q 207 528 236 528 q 144 528 177 528 q 82 528 111 528 q 32 528 53 528 q 3 528 10 528 q 25 566 13 545 q 49 612 37 587 q 74 612 52 612 q 126 613 96 612 q 192 613 157 613 q 259 614 227 614 q 313 615 290 615 q 342 616 336 616 z "}}}
